<?xml version="1.0" encoding="utf-8"?>
<!-- Generator: Adobe Illustrator 22.1.0, SVG Export Plug-In . SVG Version: 6.00 Build 0)  -->
<svg version="1.1" id="Layer_1" xmlns="http://www.w3.org/2000/svg" xmlns:xlink="http://www.w3.org/1999/xlink" x="0px" y="0px"
	 viewBox="0 0 225.9 438" style="enable-background:new 0 0 225.9 438;" xml:space="preserve">
<style type="text/css">
	.st0{fill:none;stroke:#666666;stroke-width:0.12;stroke-miterlimit:10;}
	.st1{fill:#666666;}
	.st2{fill:none;}
	.st3{fill:#595A5C;}
	.st4{fill:#010101;}
	.st5{fill:#231F20;}
	.st6{fill:#FFFFFF;}
	.st7{clip-path:url(#SVGID_2_);}
	.st8{fill:#FFFFFF;stroke:#010101;stroke-width:0.18;stroke-miterlimit:10;}
	.st9{fill:none;stroke:#666666;stroke-width:0.13;stroke-miterlimit:10;}
	.st10{fill:#FCDFE4;}
	.st11{fill:#3F3F3F;}
	.st12{clip-path:url(#SVGID_4_);}
	.st13{clip-path:url(#SVGID_6_);}
	.st14{clip-path:url(#SVGID_8_);}
	.st15{fill:none;stroke:#3F3F3F;stroke-width:0.12;stroke-miterlimit:10;}
</style>
<title>Celular_Herbivore</title>
<line class="st0" x1="25.7" y1="47" x2="162.6" y2="47"/>
<g>
	<path class="st1" d="M26.2,56.5H26v-2.3h0.2V56.5z"/>
	<path class="st1" d="M27,54.8v0.3c0.1-0.1,0.1-0.2,0.2-0.2c0.1-0.1,0.2-0.1,0.3-0.1c0.2,0,0.3,0,0.4,0.2c0.1,0.1,0.1,0.3,0.1,0.5
		v1.1h-0.2v-1.1c0-0.1,0-0.2-0.1-0.3c-0.1-0.1-0.2-0.1-0.3-0.1c-0.1,0-0.2,0-0.3,0.1c-0.1,0.1-0.2,0.2-0.2,0.3v1.2h-0.2v-1.7H27z"/>
	<path class="st1" d="M28.6,54.3c0-0.1,0.1-0.1,0.1-0.1c0,0,0.1,0,0.1,0c0,0,0,0.1,0,0.1c0,0,0,0.1,0,0.1c0,0-0.1,0-0.1,0
		C28.7,54.4,28.6,54.3,28.6,54.3C28.6,54.3,28.6,54.3,28.6,54.3L28.6,54.3z M28.8,56.5h-0.2v-1.7h0.2V56.5z"/>
	<path class="st1" d="M30,56.4c0.1,0,0.2,0,0.3-0.1c0.1-0.1,0.1-0.2,0.1-0.3h0.2c0,0.1,0,0.2-0.1,0.3c-0.1,0.1-0.1,0.2-0.2,0.2
		c-0.1,0-0.2,0.1-0.3,0.1c-0.2,0-0.4-0.1-0.5-0.2c-0.1-0.2-0.2-0.4-0.2-0.6v-0.1c0-0.2,0-0.3,0.1-0.4c0.1-0.1,0.1-0.2,0.3-0.3
		c0.1-0.1,0.2-0.1,0.4-0.1c0.2,0,0.3,0.1,0.5,0.2c0.1,0.1,0.2,0.3,0.2,0.4h-0.2c0-0.1,0-0.2-0.1-0.3c-0.1-0.1-0.2-0.1-0.3-0.1
		c-0.2,0-0.3,0.1-0.4,0.2c-0.1,0.2-0.2,0.3-0.2,0.5l0,0c0,0.2,0,0.4,0.2,0.5C29.6,56.3,29.8,56.4,30,56.4z"/>
	<path class="st1" d="M31,54.3C31,54.3,31,54.3,31,54.3C31,54.2,31.1,54.2,31,54.3c0.1-0.1,0.2-0.1,0.2-0.1c0,0,0,0.1,0,0.1
		c0,0,0,0.1,0,0.1C31.2,54.4,31.1,54.4,31,54.3C31.1,54.4,31,54.4,31,54.3C31,54.4,31,54.4,31,54.3z M31.2,56.5H31v-1.7h0.2V56.5z"
		/>
	<path class="st1" d="M31.6,55.7c0-0.2,0-0.3,0.1-0.4c0.1-0.1,0.2-0.2,0.3-0.3c0.1-0.1,0.3-0.1,0.4-0.1c0.2,0,0.4,0.1,0.6,0.2
		c0.1,0.2,0.2,0.4,0.2,0.6l0,0c0,0.2,0,0.3-0.1,0.4c-0.1,0.1-0.2,0.2-0.3,0.3c-0.1,0.1-0.3,0.1-0.4,0.1c-0.2,0-0.4-0.1-0.6-0.2
		C31.7,56.1,31.6,55.9,31.6,55.7L31.6,55.7z M31.8,55.7c0,0.2,0,0.4,0.2,0.5c0.1,0.1,0.3,0.2,0.4,0.2c0.2,0,0.3-0.1,0.4-0.2
		c0.1-0.1,0.2-0.3,0.2-0.5l0,0c0-0.1,0-0.3-0.1-0.4c0-0.1-0.1-0.2-0.2-0.2c-0.1-0.1-0.2-0.1-0.3-0.1c-0.2,0-0.3,0.1-0.4,0.2
		C31.9,55.3,31.8,55.5,31.8,55.7L31.8,55.7z"/>
</g>
<g>
	<path class="st1" d="M84.5,55.8c0,0.2-0.1,0.4-0.3,0.6c-0.2,0.1-0.4,0.2-0.6,0.2c-0.2,0-0.3,0-0.4-0.1c-0.1-0.1-0.2-0.2-0.3-0.4
		c-0.1-0.2-0.1-0.4-0.1-0.5v-0.3c0-0.2,0-0.4,0.1-0.6c0.1-0.1,0.2-0.3,0.3-0.4c0.1-0.1,0.3-0.1,0.5-0.1c0.4,0,0.8,0.3,0.8,0.7
		c0,0,0,0,0,0h-0.2c0-0.4-0.3-0.6-0.7-0.6c-0.2,0-0.3,0.1-0.5,0.2C83,54.8,83,55,83,55.2v0.3c0,0.2,0,0.5,0.2,0.6
		c0.1,0.2,0.3,0.2,0.5,0.2c0.2,0,0.3,0,0.5-0.2c0.1-0.1,0.2-0.3,0.2-0.4L84.5,55.8z"/>
	<path class="st1" d="M86,56.5c0-0.1,0-0.2,0-0.2c-0.1,0.1-0.2,0.2-0.2,0.2c-0.1,0-0.2,0.1-0.3,0.1c-0.1,0-0.3,0-0.4-0.1
		c-0.1-0.1-0.2-0.2-0.2-0.3c0-0.2,0.1-0.3,0.2-0.4c0.2-0.1,0.4-0.2,0.6-0.2H86v-0.2c0-0.1,0-0.2-0.1-0.3c-0.2-0.1-0.5-0.1-0.7,0
		c-0.1,0.1-0.1,0.2-0.1,0.2h-0.2c0-0.1,0.1-0.3,0.2-0.3c0.1-0.1,0.3-0.2,0.5-0.2c0.2,0,0.3,0,0.4,0.1c0.1,0.1,0.2,0.3,0.2,0.4v0.8
		c0,0.1,0,0.2,0,0.4l0,0L86,56.5z M85.4,56.4c0.1,0,0.2,0,0.3-0.1c0.1-0.1,0.2-0.1,0.2-0.2v-0.4h-0.3c-0.2,0-0.3,0-0.4,0.1
		C85.1,55.8,85,56,85,56.1c0,0.1,0,0.2,0.1,0.2C85.2,56.4,85.3,56.4,85.4,56.4L85.4,56.4z"/>
	<path class="st1" d="M87,54.4v0.4h0.4V55H87v1.1c0,0.1,0,0.1,0,0.2c0,0,0.1,0.1,0.2,0.1h0.2v0.2c-0.1,0-0.1,0-0.2,0
		c-0.1,0-0.2,0-0.3-0.1c-0.1-0.1-0.1-0.2-0.1-0.3V55h-0.3v-0.2h0.3v-0.4L87,54.4z"/>
	<path class="st1" d="M88.8,56.5c0-0.1,0-0.2,0-0.2c-0.1,0.1-0.2,0.2-0.3,0.2c-0.1,0-0.2,0.1-0.3,0.1c-0.1,0-0.3,0-0.4-0.1
		c-0.1-0.1-0.2-0.2-0.2-0.3c0-0.2,0.1-0.3,0.2-0.4c0.2-0.1,0.4-0.2,0.6-0.2h0.3v-0.2c0-0.1,0-0.2-0.1-0.3c-0.1-0.1-0.2-0.1-0.3-0.1
		c-0.1,0-0.2,0-0.3,0.1c-0.1,0.1-0.1,0.2-0.1,0.2h-0.2c0-0.1,0.1-0.3,0.2-0.3c0.1-0.1,0.3-0.2,0.5-0.2c0.2,0,0.3,0,0.4,0.1
		c0.1,0.1,0.2,0.3,0.2,0.4v0.8c0,0.1,0,0.3,0.1,0.4l0,0L88.8,56.5z M88.2,56.4c0.1,0,0.2,0,0.3-0.1c0.1-0.1,0.2-0.1,0.2-0.2v-0.4
		h-0.4c-0.2,0-0.3,0-0.4,0.1c-0.1,0.1-0.2,0.2-0.2,0.3c0,0.1,0,0.2,0.1,0.2C88,56.4,88.1,56.4,88.2,56.4z M88.6,54.1h0.2l-0.4,0.4
		h-0.2L88.6,54.1z"/>
	<path class="st1" d="M89.7,56.5h-0.2v-2.4h0.2V56.5z"/>
	<path class="st1" d="M90.1,55.7c0-0.2,0-0.3,0.1-0.4c0.1-0.1,0.2-0.2,0.3-0.3c0.1-0.1,0.3-0.1,0.4-0.1c0.2,0,0.4,0.1,0.6,0.2
		c0.2,0.2,0.2,0.4,0.2,0.6l0,0c0,0.2,0,0.3-0.1,0.4c-0.1,0.1-0.2,0.2-0.3,0.3c-0.3,0.2-0.7,0.2-1-0.1C90.1,56.1,90,55.9,90.1,55.7
		L90.1,55.7z M90.3,55.7c0,0.2,0.1,0.4,0.2,0.5c0.2,0.2,0.5,0.3,0.8,0.1c0,0,0.1-0.1,0.1-0.1c0.1-0.1,0.2-0.3,0.2-0.5l0,0
		c0-0.1,0-0.3-0.1-0.4c0-0.1-0.1-0.2-0.2-0.2c-0.2-0.2-0.6-0.1-0.7,0.2c0,0,0,0,0,0C90.3,55.3,90.2,55.5,90.3,55.7L90.3,55.7z"/>
	<path class="st1" d="M91.9,55.7c0-0.2,0-0.5,0.2-0.6c0.1-0.2,0.3-0.2,0.5-0.2c0.2,0,0.4,0.1,0.5,0.3v-0.2h0.2v1.7
		c0,0.2-0.1,0.4-0.2,0.5c-0.1,0.1-0.3,0.2-0.5,0.2c-0.1,0-0.2,0-0.3-0.1c-0.1,0-0.2-0.1-0.3-0.2l0.1-0.1c0.1,0.2,0.3,0.2,0.5,0.2
		c0.1,0,0.3,0,0.4-0.1c0.1-0.1,0.1-0.2,0.1-0.4v-0.2c-0.1,0.2-0.3,0.3-0.5,0.2c-0.2,0-0.4-0.1-0.5-0.2C92,56.1,91.9,55.9,91.9,55.7
		L91.9,55.7z M92.1,55.7c0,0.2,0,0.4,0.1,0.5c0.1,0.1,0.2,0.2,0.4,0.2c0.2,0,0.4-0.1,0.5-0.3v-0.8c-0.1-0.2-0.3-0.3-0.5-0.3
		c-0.1,0-0.3,0.1-0.4,0.2C92.2,55.3,92.1,55.5,92.1,55.7L92.1,55.7z"/>
	<path class="st1" d="M93.7,55.7c0-0.2,0-0.3,0.1-0.4c0.1-0.1,0.2-0.2,0.3-0.3c0.1-0.1,0.3-0.1,0.4-0.1c0.2,0,0.4,0.1,0.6,0.2
		c0.1,0.2,0.2,0.4,0.2,0.6l0,0c0,0.2,0,0.3-0.1,0.4c-0.1,0.3-0.4,0.4-0.7,0.4c-0.2,0-0.4-0.1-0.6-0.2C93.8,56.1,93.7,55.9,93.7,55.7
		L93.7,55.7z M93.9,55.7c0,0.2,0,0.4,0.2,0.5c0.1,0.1,0.3,0.2,0.4,0.2c0.2,0,0.3-0.1,0.4-0.2c0.1-0.1,0.2-0.3,0.2-0.5l0,0
		c0-0.1,0-0.3-0.1-0.4c0-0.1-0.1-0.2-0.2-0.2c-0.1-0.1-0.2-0.1-0.3-0.1c-0.2,0-0.3,0.1-0.4,0.2C94,55.3,93.9,55.5,93.9,55.7
		L93.9,55.7z"/>
</g>
<g>
	<path class="st1" d="M151.4,55.8c0,0.2-0.1,0.4-0.3,0.6c-0.2,0.1-0.4,0.2-0.6,0.2c-0.2,0-0.3,0-0.5-0.1c-0.1-0.1-0.2-0.2-0.3-0.4
		c-0.1-0.2-0.1-0.4-0.1-0.5v-0.3c0-0.2,0-0.4,0.1-0.6c0.1-0.2,0.2-0.3,0.3-0.4c0.3-0.2,0.7-0.1,1,0.1c0.2,0.1,0.2,0.3,0.2,0.6h-0.2
		c0-0.3-0.3-0.6-0.6-0.6c0,0,0,0-0.1,0c-0.2,0-0.4,0.1-0.5,0.2c-0.1,0.2-0.2,0.4-0.2,0.7v0.3c0,0.2,0,0.5,0.2,0.6
		c0.1,0.2,0.3,0.2,0.5,0.2c0.2,0,0.3,0,0.5-0.2c0.1-0.1,0.2-0.3,0.2-0.4L151.4,55.8z"/>
	<path class="st1" d="M151.7,55.7c0-0.2,0-0.3,0.1-0.4c0.1-0.1,0.2-0.2,0.3-0.3c0.1-0.1,0.3-0.1,0.4-0.1c0.2,0,0.4,0.1,0.6,0.2
		c0.2,0.2,0.2,0.4,0.2,0.6l0,0c0,0.2,0,0.3-0.1,0.4c-0.1,0.1-0.2,0.2-0.3,0.3c-0.1,0.1-0.3,0.1-0.4,0.1c-0.2,0-0.4-0.1-0.6-0.2
		C151.8,56.1,151.7,55.9,151.7,55.7L151.7,55.7z M151.9,55.7c0,0.2,0,0.4,0.1,0.5c0.2,0.2,0.5,0.3,0.8,0.1c0,0,0.1-0.1,0.1-0.1
		c0.1-0.1,0.2-0.3,0.2-0.5l0,0c0-0.1,0-0.3-0.1-0.4c0-0.1-0.1-0.2-0.2-0.2c-0.1-0.1-0.2-0.1-0.3-0.1c-0.2,0-0.3,0.1-0.4,0.2
		C151.9,55.3,151.9,55.5,151.9,55.7L151.9,55.7z"/>
	<path class="st1" d="M153.8,54.8v0.3c0.1-0.1,0.1-0.2,0.2-0.2c0.1-0.1,0.2-0.1,0.3-0.1c0.2,0,0.3,0,0.4,0.2
		c0.1,0.1,0.1,0.3,0.1,0.5v1.1h-0.2v-1.1c0-0.1,0-0.2-0.1-0.3c-0.1-0.1-0.2-0.1-0.3-0.1c-0.1,0-0.2,0-0.3,0.1
		c-0.1,0.1-0.2,0.2-0.2,0.3v1.2h-0.2v-1.7H153.8z"/>
	<path class="st1" d="M155.7,54.4v0.4h0.4V55h-0.4v1.1c0,0.1,0,0.2,0.1,0.2c0,0,0.1,0.1,0.2,0.1h0.2v0.2c-0.1,0-0.1,0-0.2,0
		c-0.1,0-0.2,0-0.3-0.1c-0.1-0.1-0.1-0.2-0.1-0.3V55h-0.3v-0.2h0.3v-0.4L155.7,54.4z"/>
	<path class="st1" d="M157.5,56.5c0-0.1,0-0.2,0-0.2c-0.1,0.1-0.2,0.2-0.3,0.2c-0.1,0-0.2,0.1-0.3,0.1c-0.1,0-0.3,0-0.4-0.1
		c-0.1-0.1-0.2-0.2-0.1-0.3c0-0.2,0.1-0.3,0.2-0.4c0.2-0.1,0.4-0.2,0.6-0.2h0.4v-0.2c0-0.1,0-0.2-0.1-0.3c-0.1-0.1-0.2-0.1-0.3-0.1
		c-0.1,0-0.2,0-0.3,0.1c-0.1,0.1-0.1,0.2-0.1,0.2h-0.2c0-0.1,0.1-0.3,0.2-0.3c0.1-0.1,0.3-0.2,0.5-0.2c0.2,0,0.3,0,0.4,0.1
		c0.1,0.1,0.2,0.3,0.2,0.4v0.8c0,0.1,0,0.3,0.1,0.4l0,0L157.5,56.5z M156.9,56.4c0.1,0,0.2,0,0.3-0.1c0.1-0.1,0.2-0.1,0.2-0.2v-0.4
		h-0.3c-0.2,0-0.3,0-0.4,0.1c-0.1,0.1-0.2,0.2-0.2,0.3c0,0.1,0,0.2,0.1,0.2C156.7,56.4,156.8,56.4,156.9,56.4z"/>
	<path class="st1" d="M158.8,56.4c0.1,0,0.2,0,0.3-0.1c0.1-0.1,0.1-0.2,0.1-0.3h0.2c0,0.1,0,0.2-0.1,0.3c-0.1,0.1-0.1,0.2-0.2,0.2
		c-0.1,0-0.2,0.1-0.3,0.1c-0.2,0-0.4-0.1-0.5-0.2c-0.1-0.2-0.2-0.4-0.2-0.6v-0.1c0-0.2,0-0.3,0.1-0.4c0.1-0.1,0.1-0.2,0.2-0.3
		c0.1-0.1,0.3-0.1,0.4-0.1c0.2,0,0.3,0.1,0.5,0.2c0.1,0.1,0.2,0.3,0.2,0.4h-0.2c0-0.3-0.2-0.5-0.5-0.5c0,0,0,0,0,0
		c-0.2,0-0.3,0.1-0.4,0.2c-0.1,0.2-0.2,0.3-0.1,0.5l0,0c0,0.2,0,0.4,0.1,0.5C158.5,56.3,158.7,56.4,158.8,56.4z"/>
	<path class="st1" d="M160.2,54.4v0.4h0.4V55h-0.4v1.1c0,0.1,0,0.1,0,0.2c0,0,0.1,0.1,0.2,0.1h0.2v0.2c-0.1,0-0.1,0-0.2,0
		c-0.1,0-0.2,0-0.3-0.1c-0.1-0.1-0.1-0.2-0.1-0.3V55h-0.3v-0.2h0.3v-0.4L160.2,54.4z"/>
	<path class="st1" d="M160.8,55.7c0-0.2,0-0.3,0.1-0.4c0.1-0.1,0.2-0.2,0.3-0.3c0.1-0.1,0.3-0.1,0.4-0.1c0.2,0,0.4,0.1,0.6,0.2
		c0.2,0.2,0.2,0.4,0.2,0.6l0,0c0,0.2,0,0.3-0.1,0.4c-0.1,0.1-0.2,0.2-0.3,0.3c-0.3,0.2-0.7,0.2-1-0.1
		C160.8,56.1,160.7,55.9,160.8,55.7L160.8,55.7z M161,55.7c0,0.2,0.1,0.4,0.2,0.5c0.2,0.2,0.5,0.3,0.8,0.1c0,0,0.1-0.1,0.1-0.1
		c0.1-0.2,0.2-0.3,0.2-0.5l0,0c0-0.1,0-0.3-0.1-0.4c0-0.1-0.1-0.2-0.2-0.2c-0.2-0.2-0.5-0.1-0.7,0.1C161,55.3,161,55.5,161,55.7
		L161,55.7z"/>
</g>
<rect x="36.8" y="91.2" class="st2" width="114.6" height="25.6"/>
<g>
	<path class="st1" d="M41.6,92.3h-1.8v5h-1v-5H37v-0.8h4.6V92.3z"/>
	<path class="st1" d="M44.2,93.8c-0.1,0-0.3,0-0.4,0c-0.4,0-0.7,0.2-0.9,0.5v3h-1V93h0.9v0.5c0.2-0.4,0.6-0.6,1-0.6
		c0.1,0,0.2,0,0.3,0L44.2,93.8z"/>
	<path class="st1" d="M47.4,96.8c-0.3,0.3-0.7,0.5-1.2,0.5c-0.4,0-0.8-0.1-1.1-0.4c-0.3-0.3-0.4-0.8-0.4-1.2v-2.8h1v2.8
		c0,0.6,0.2,0.8,0.7,0.8c0.4,0,0.8-0.2,0.9-0.5v-3.1h1v4.3h-0.9L47.4,96.8z"/>
	<path class="st1" d="M50.4,97.2h-1v-6.1h1V97.2z"/>
	<path class="st1" d="M52.9,95.9l0.9-2.9h1l-1.7,5C53,98.6,52.4,99,51.8,99c-0.2,0-0.3,0-0.5-0.1v-0.8h0.2c0.2,0,0.4,0,0.6-0.1
		c0.1-0.1,0.2-0.3,0.3-0.4l0.1-0.4L50.9,93h1L52.9,95.9z"/>
	<path class="st1" d="M62.1,97.2h-1l-2.6-4.1v4.1h-1v-5.8h1l2.6,4.1v-4.1h1L62.1,97.2z"/>
	<path class="st1" d="M65.8,97.2c-0.1-0.1-0.1-0.3-0.1-0.4c-0.3,0.3-0.7,0.5-1.1,0.5c-0.4,0-0.8-0.1-1.1-0.4
		c-0.5-0.5-0.6-1.3-0.1-1.8c0.1-0.1,0.1-0.1,0.2-0.2c0.4-0.3,0.9-0.4,1.5-0.4h0.6v-0.3c0-0.2-0.1-0.4-0.2-0.5
		c-0.2-0.1-0.4-0.2-0.6-0.2c-0.2,0-0.4,0.1-0.5,0.2c-0.1,0.1-0.2,0.3-0.2,0.4h-1c0-0.2,0.1-0.5,0.2-0.7c0.2-0.2,0.4-0.4,0.6-0.5
		c0.3-0.1,0.6-0.2,0.9-0.2c0.4,0,0.9,0.1,1.2,0.4c0.3,0.3,0.5,0.7,0.5,1.1v1.9c0,0.3,0,0.6,0.2,0.9v0.1L65.8,97.2z M64.7,96.6
		c0.2,0,0.4,0,0.5-0.1c0.2-0.1,0.3-0.2,0.4-0.4v-0.8h-0.5c-0.3,0-0.6,0-0.8,0.2c-0.2,0.1-0.3,0.3-0.3,0.5c0,0.2,0.1,0.3,0.2,0.4
		C64.3,96.5,64.5,96.6,64.7,96.6z"/>
	<path class="st1" d="M68.8,91.9v1h0.8v0.7h-0.8V96c0,0.1,0,0.3,0.1,0.4c0.1,0.1,0.2,0.1,0.3,0.1c0.1,0,0.2,0,0.3,0v0.8
		c-0.2,0.1-0.4,0.1-0.6,0.1c-0.7,0-1.1-0.4-1.1-1.2v-2.4h-0.7v-0.7h0.7v-1L68.8,91.9z"/>
	<path class="st1" d="M72.9,96.8c-0.3,0.3-0.8,0.5-1.2,0.5c-0.4,0-0.8-0.1-1.1-0.4c-0.3-0.3-0.4-0.8-0.4-1.2v-2.8h1v2.8
		c0,0.6,0.2,0.8,0.7,0.8c0.4,0,0.8-0.2,0.9-0.5v-3.1h1v4.3H73L72.9,96.8z"/>
	<path class="st1" d="M77.1,93.8c-0.1,0-0.3,0-0.4,0c-0.4,0-0.7,0.2-0.9,0.5v3h-1V93h0.9v0.5c0.2-0.4,0.6-0.6,1-0.6
		c0.1,0,0.2,0,0.3,0L77.1,93.8z"/>
	<path class="st1" d="M80.2,97.2c-0.1-0.1-0.1-0.3-0.1-0.4c-0.3,0.3-0.7,0.5-1.1,0.5c-0.4,0-0.8-0.1-1.1-0.4
		c-0.5-0.5-0.6-1.3-0.1-1.8c0.1-0.1,0.1-0.1,0.2-0.2c0.4-0.3,1-0.4,1.5-0.4H80v-0.3c0-0.4-0.2-0.7-0.6-0.7c0,0-0.1,0-0.1,0
		c-0.2,0-0.4,0.1-0.5,0.2c-0.1,0.1-0.2,0.3-0.2,0.4h-1c0-0.2,0.1-0.5,0.2-0.7c0.2-0.2,0.4-0.4,0.6-0.5c0.3-0.1,0.6-0.2,0.9-0.2
		c0.4,0,0.9,0.1,1.2,0.4c0.3,0.3,0.5,0.7,0.5,1.1v1.9c0,0.3,0,0.6,0.2,0.9v0.1L80.2,97.2z M79.1,96.6c0.2,0,0.4,0,0.5-0.1
		c0.2-0.1,0.3-0.2,0.4-0.4v-0.8h-0.5c-0.3,0-0.6,0-0.8,0.2c-0.2,0.1-0.3,0.3-0.3,0.5c0,0.2,0.1,0.3,0.2,0.4
		C78.7,96.5,78.9,96.5,79.1,96.6z"/>
	<path class="st1" d="M83,97.2h-1v-6.1h1V97.2z"/>
	<path class="st1" d="M84.2,98.6l-0.5-0.3c0.1-0.2,0.2-0.4,0.3-0.6c0.1-0.2,0.1-0.4,0.1-0.6v-0.8H85V97c0,0.3-0.1,0.6-0.2,0.8
		C84.6,98.1,84.4,98.4,84.2,98.6z"/>
	<path class="st1" d="M91,95.8c0-0.2-0.1-0.4-0.3-0.6c-0.3-0.2-0.6-0.3-1-0.4c-0.4-0.1-0.8-0.3-1.1-0.5c-0.5-0.3-0.8-0.8-0.8-1.3
		c0-0.5,0.2-0.9,0.6-1.2c0.4-0.3,0.9-0.5,1.5-0.4c0.4,0,0.7,0.1,1.1,0.2c0.3,0.1,0.6,0.4,0.7,0.6c0.2,0.3,0.3,0.6,0.3,0.9h-1
		c0-0.3-0.1-0.5-0.3-0.7c-0.2-0.2-0.5-0.3-0.8-0.3c-0.3,0-0.5,0.1-0.8,0.2c-0.2,0.1-0.3,0.4-0.3,0.6c0,0.2,0.1,0.4,0.3,0.5
		c0.3,0.2,0.6,0.3,1,0.4c0.4,0.1,0.7,0.3,1.1,0.5c0.2,0.1,0.5,0.3,0.6,0.6c0.1,0.2,0.2,0.5,0.2,0.8c0,0.5-0.2,0.9-0.6,1.2
		c-0.4,0.3-1,0.5-1.5,0.4c-0.4,0-0.8-0.1-1.2-0.2c-0.3-0.1-0.6-0.4-0.8-0.6c-0.2-0.3-0.3-0.6-0.3-1h1c0,0.3,0.1,0.6,0.3,0.8
		c0.3,0.2,0.6,0.3,0.9,0.3c0.3,0,0.6-0.1,0.8-0.2C90.9,96.1,91,96,91,95.8z"/>
	<path class="st1" d="M94.7,97.3c-0.6,0-1.1-0.2-1.5-0.6c-0.4-0.4-0.6-1-0.6-1.5v-0.1c0-0.4,0.1-0.8,0.2-1.2
		c0.2-0.3,0.4-0.6,0.7-0.8c0.3-0.2,0.6-0.3,1-0.3c0.5,0,1,0.2,1.4,0.6c0.3,0.5,0.5,1,0.5,1.6v0.4h-2.8c0,0.3,0.1,0.6,0.3,0.8
		c0.2,0.2,0.5,0.3,0.8,0.3c0.4,0,0.8-0.2,1.1-0.5l0.5,0.5c-0.2,0.3-0.4,0.5-0.7,0.6C95.4,97.3,95,97.3,94.7,97.3z M94.6,93.6
		c-0.2,0-0.5,0.1-0.6,0.3c-0.2,0.2-0.3,0.5-0.3,0.8h1.8v-0.1c0-0.3-0.1-0.5-0.2-0.7C95,93.7,94.8,93.6,94.6,93.6z"/>
	<path class="st1" d="M98.1,92.9v0.5c0.3-0.4,0.8-0.6,1.3-0.6c0.9,0,1.3,0.5,1.4,1.5v2.8h-1v-2.8c0-0.2,0-0.4-0.2-0.6
		c-0.2-0.1-0.4-0.2-0.6-0.2c-0.4,0-0.7,0.2-0.9,0.5v3.1h-1v-4.3L98.1,92.9z"/>
	<path class="st1" d="M104.1,96.1c0-0.2-0.1-0.3-0.2-0.4c-0.2-0.1-0.5-0.2-0.7-0.2c-0.3-0.1-0.5-0.1-0.8-0.3c-0.4-0.2-0.7-0.5-0.7-1
		c0-0.4,0.2-0.7,0.5-0.9c0.7-0.5,1.7-0.5,2.4,0c0.3,0.2,0.5,0.6,0.5,1h-1c0-0.2-0.1-0.3-0.2-0.5c-0.3-0.2-0.7-0.2-1.1,0
		c-0.1,0.1-0.2,0.2-0.2,0.4c0,0.1,0.1,0.3,0.2,0.3c0.2,0.1,0.5,0.2,0.8,0.2c0.3,0.1,0.6,0.2,0.9,0.3c0.2,0.1,0.4,0.2,0.5,0.4
		c0.1,0.2,0.2,0.4,0.2,0.6c0,0.4-0.2,0.7-0.5,0.9c-0.4,0.3-0.8,0.4-1.3,0.4c-0.3,0-0.6-0.1-0.9-0.2c-0.3-0.1-0.5-0.3-0.6-0.5
		c-0.1-0.2-0.2-0.5-0.2-0.7h0.9c0,0.2,0.1,0.4,0.3,0.5c0.4,0.2,0.8,0.2,1.2,0C104,96.4,104.1,96.2,104.1,96.1z"/>
	<path class="st1" d="M105.7,95.1c0-0.4,0.1-0.8,0.2-1.1c0.2-0.3,0.4-0.6,0.7-0.8c0.3-0.2,0.6-0.3,1-0.3c0.5,0,1,0.2,1.4,0.6
		c0.4,0.4,0.6,0.9,0.6,1.5v0.3c0,0.4-0.1,0.8-0.2,1.1c-0.2,0.3-0.4,0.6-0.7,0.8c-0.3,0.2-0.7,0.3-1.1,0.3c-0.5,0-1.1-0.2-1.4-0.6
		C105.8,96.3,105.6,95.7,105.7,95.1L105.7,95.1z M106.7,95.1c0,0.4,0.1,0.7,0.3,1c0.4,0.4,1,0.5,1.4,0.1c0,0,0.1-0.1,0.1-0.1
		c0.2-0.3,0.3-0.7,0.3-1.1c0-0.4-0.1-0.7-0.3-1c-0.4-0.4-1-0.5-1.4-0.1c0,0-0.1,0.1-0.1,0.1C106.8,94.4,106.7,94.8,106.7,95.1
		L106.7,95.1z"/>
	<path class="st1" d="M112.8,93.8c-0.1,0-0.3,0-0.4,0c-0.4,0-0.7,0.2-0.9,0.5v3h-1V93h0.9v0.5c0.2-0.4,0.6-0.6,1-0.6
		c0.1,0,0.2,0,0.3,0L112.8,93.8z"/>
	<path class="st1" d="M113.4,91.8c0-0.1,0-0.3,0.1-0.4c0.1-0.1,0.3-0.2,0.4-0.2c0.1,0,0.3,0,0.4,0.2c0.1,0.1,0.2,0.2,0.1,0.4
		c0,0.1-0.1,0.3-0.1,0.4c-0.1,0.1-0.3,0.2-0.4,0.2c-0.2,0-0.3,0-0.4-0.2C113.4,92.1,113.4,92,113.4,91.8z M114.4,97.2h-1v-4.3h1
		V97.2z"/>
	<path class="st1" d="M118,97.2c-0.1-0.1-0.1-0.3-0.1-0.4c-0.3,0.3-0.7,0.5-1.1,0.5c-0.4,0-0.8-0.1-1.1-0.4
		c-0.5-0.5-0.6-1.3-0.1-1.8c0.1-0.1,0.1-0.1,0.2-0.2c0.4-0.3,1-0.4,1.5-0.4h0.6v-0.3c0-0.4-0.2-0.7-0.6-0.7c0,0-0.1,0-0.1,0
		c-0.2,0-0.4,0.1-0.5,0.2c-0.1,0.1-0.2,0.3-0.2,0.4h-1c0-0.2,0.1-0.5,0.2-0.7c0.2-0.2,0.4-0.4,0.6-0.5c0.3-0.1,0.6-0.2,0.9-0.2
		c0.4,0,0.9,0.1,1.2,0.4c0.3,0.3,0.5,0.7,0.5,1.1v1.9c0,0.3,0,0.6,0.2,0.9v0.1L118,97.2z M117,96.6c0.2,0,0.4,0,0.5-0.1
		c0.2-0.1,0.3-0.2,0.4-0.4v-0.8h-0.5c-0.3,0-0.6,0-0.8,0.2c-0.2,0.1-0.3,0.3-0.3,0.5c0,0.2,0.1,0.3,0.2,0.4
		C116.6,96.5,116.8,96.5,117,96.6z"/>
	<path class="st1" d="M120.9,97.2h-1v-6.1h1V97.2z"/>
	<path class="st1" d="M124.1,97.2v-5.8h2c0.5,0,1.1,0.1,1.5,0.4c0.4,0.3,0.5,0.7,0.5,1.2c0,0.3-0.1,0.5-0.2,0.7
		c-0.2,0.2-0.4,0.4-0.6,0.5c0.3,0.1,0.5,0.2,0.7,0.5c0.2,0.2,0.3,0.5,0.3,0.8c0,0.5-0.2,0.9-0.5,1.2c-0.4,0.3-1,0.5-1.5,0.4H124.1z
		 M125.1,93.9h1c0.3,0,0.5-0.1,0.7-0.2c0.3-0.3,0.3-0.9,0-1.2c0,0,0,0,0,0c-0.2-0.1-0.5-0.2-0.8-0.2h-1L125.1,93.9z M125.1,94.6v1.8
		h1.1c0.3,0,0.5-0.1,0.7-0.2c0.2-0.2,0.3-0.4,0.3-0.7c0.1-0.5-0.3-0.9-0.7-0.9c-0.1,0-0.1,0-0.2,0L125.1,94.6z"/>
	<path class="st1" d="M131,97.3c-0.6,0-1.1-0.2-1.5-0.6c-0.4-0.4-0.6-1-0.6-1.5v-0.1c0-0.4,0.1-0.8,0.2-1.2c0.3-0.7,1-1.1,1.7-1.1
		c0.5,0,1,0.2,1.4,0.6c0.3,0.5,0.5,1,0.5,1.6v0.4h-2.8c0,0.3,0.1,0.6,0.4,0.8c0.2,0.2,0.5,0.3,0.8,0.3c0.4,0,0.8-0.2,1.1-0.5
		l0.5,0.5c-0.2,0.3-0.4,0.5-0.7,0.6C131.7,97.3,131.4,97.3,131,97.3z M130.9,93.6c-0.2,0-0.5,0.1-0.6,0.3c-0.2,0.2-0.3,0.5-0.3,0.8
		h1.8v-0.1c0-0.3-0.1-0.5-0.3-0.7C131.4,93.7,131.1,93.6,130.9,93.6L130.9,93.6z"/>
	<path class="st1" d="M136.1,97.2c-0.1-0.1-0.1-0.3-0.1-0.4c-0.3,0.3-0.7,0.5-1.1,0.5c-0.4,0-0.8-0.1-1.1-0.4
		c-0.5-0.5-0.6-1.3-0.1-1.8c0.1-0.1,0.1-0.1,0.2-0.2c0.4-0.3,0.9-0.4,1.5-0.4h0.6v-0.3c0-0.4-0.2-0.7-0.6-0.7c0,0-0.1,0-0.1,0
		c-0.2,0-0.4,0.1-0.5,0.2c-0.1,0.1-0.2,0.3-0.2,0.4h-1c0-0.2,0.1-0.5,0.2-0.7c0.2-0.2,0.4-0.4,0.6-0.5c0.3-0.1,0.6-0.2,0.9-0.2
		c0.4,0,0.9,0.1,1.2,0.4c0.3,0.3,0.5,0.7,0.5,1.1v1.9c0,0.3,0,0.6,0.2,0.9v0.1L136.1,97.2z M135,96.6c0.2,0,0.4,0,0.5-0.1
		c0.2-0.1,0.3-0.2,0.4-0.4v-0.8h-0.5c-0.3,0-0.6,0-0.8,0.2c-0.2,0.1-0.3,0.3-0.3,0.5c0,0.2,0.1,0.3,0.2,0.4
		C134.6,96.5,134.8,96.6,135,96.6z"/>
	<path class="st1" d="M140.5,96.8c-0.3,0.3-0.7,0.5-1.2,0.5c-0.4,0-0.8-0.1-1.1-0.4c-0.3-0.3-0.4-0.8-0.4-1.2v-2.8h1v2.8
		c0,0.6,0.2,0.8,0.7,0.8c0.4,0.1,0.8-0.2,1-0.5v-3.1h1v4.3h-0.9L140.5,96.8z"/>
	<path class="st1" d="M143.6,91.9v1h0.8v0.7h-0.8V96c0,0.1,0,0.3,0.1,0.4c0.1,0.1,0.2,0.1,0.4,0.1c0.1,0,0.2,0,0.3,0v0.8
		c-0.2,0.1-0.4,0.1-0.6,0.1c-0.7,0-1.1-0.4-1.1-1.2v-2.4H142v-0.7h0.7v-1L143.6,91.9z"/>
	<path class="st1" d="M146.6,95.9l0.9-2.9h1l-1.7,5c-0.1,0.6-0.7,1.1-1.3,1.1c-0.2,0-0.3,0-0.5-0.1v-0.8h0.2
		c0.4,0.1,0.8-0.2,0.9-0.6l0.1-0.4l-1.5-4.3h1L146.6,95.9z"/>
</g>
<g id="_Group_">
	<path id="_Compound_Path_" class="st3" d="M215.7,31.6c0-17.4-14.1-31.5-31.5-31.5H33.8C16.4,0.1,2.3,14.2,2.3,31.6l0,0v371
		c0,17.4,14.1,31.5,31.5,31.5l0,0h150.4c17.4,0,31.5-14.1,31.5-31.5l0,0V31.6z M210.9,402.3c0,14.9-12.1,27-27,27H33.5
		c-14.9,0-27-12.1-27-27v-371c0-14.9,12.1-27,27-27h150.4c14.9,0,27,12.1,27,27V402.3z"/>
	<path id="_Path_" class="st4" d="M2.3,57.4H2c-1.1,0-2,0.9-2,2v12.4c0,1.1,0.9,2,2,2h0.3"/>
	<path id="_Path_2" class="st4" d="M215.7,149.3L215.7,149.3c1.2,0,2.3-1,2.3-2.2c0,0,0-0.1,0-0.1v-45.9c0-1.2-1-2.3-2.2-2.3
		c0,0-0.1,0-0.1,0l0,0"/>
	<g id="_Group_2">
		<path id="_Path_3" class="st4" d="M2.3,89L2.3,89C1.1,89,0,90,0,91.2c0,0,0,0.1,0,0.1v26.1c0,1.2,1,2.3,2.2,2.3c0,0,0.1,0,0.1,0
			l0,0"/>
		<path id="_Path_4" class="st4" d="M2.3,128.4L2.3,128.4c-1.2,0-2.3,1-2.3,2.2c0,0,0,0.1,0,0.1v26.1c0,1.2,1,2.3,2.2,2.3
			c0,0,0.1,0,0.1,0l0,0"/>
	</g>
	<path id="_Path_5" class="st2" d="M184.8,11.6h-17.2c-3.7,0-5,0-5.3,4.7s-3.6,7.5-8.1,8.9c-1.6,0.4-3.2,0.5-4.8,0.3H69.8
		c-1.6,0-3.3,0.3-4.8-0.2c-4.5-1.4-7.8-4.3-8.1-9.1s-1.6-4.6-5.3-4.6H34.3c-10.6,0-18.7,8.7-18.7,19.3v370.7
		c-0.2,10.1,7.9,18.4,18,18.6c0.2,0,0.5,0,0.7,0h150.5c10.6,0,19.4-8.1,19.4-18.6V30.8C204.1,20.2,195.4,11.6,184.8,11.6z"/>
	<path id="_Compound_Path_2" class="st5" d="M210.9,31.3c0-14.9-12.1-27-27-27H33.5c-14.9,0-27,12.1-27,27v371c0,14.9,12.1,27,27,27
		h150.4c14.9,0,27-12.1,27-27V31.3z M133.9,14.9c0,1.4-1.2,2.6-2.6,2.6c-1.4,0-2.6-1.2-2.6-2.6s1.2-2.6,2.6-2.6
		C132.7,12.3,133.9,13.4,133.9,14.9C133.9,14.9,133.9,14.9,133.9,14.9z M98,13.4h23.6c0.8-0.1,1.6,0.4,1.7,1.3
		c0.1,0.8-0.4,1.6-1.3,1.7c-0.2,0-0.3,0-0.5,0H98c-0.8,0.1-1.6-0.4-1.7-1.3c-0.1-0.8,0.4-1.6,1.3-1.7C97.7,13.4,97.8,13.4,98,13.4z
		 M204.2,401.5c0,10.6-8.8,18.6-19.4,18.6H34.3c-10.1,0.2-18.5-7.8-18.7-18c0-0.2,0-0.4,0-0.6V30.8c0-10.6,8.1-19.3,18.7-19.3h17.4
		c3.7,0,5,0,5.3,4.7s3.6,7.5,8.1,8.9c1.6,0.4,3.2,0.5,4.8,0.3h79.6c1.6,0,3.3,0.3,4.8-0.2c4.5-1.4,7.8-4.3,8.1-9.1s1.6-4.6,5.3-4.6
		h17.2c10.7,0,19.3,8.6,19.4,19.3v370.7H204.2z"/>
	<circle id="_Path_6" class="st6" cx="131.3" cy="14.9" r="2.6"/>
	<path id="_Path_7" class="st6" d="M98,16.4h23.6c0.8,0.1,1.6-0.4,1.7-1.3c0.1-0.8-0.4-1.6-1.3-1.7c-0.2,0-0.3,0-0.5,0H98
		c-0.8-0.2-1.6,0.4-1.8,1.2c-0.2,0.8,0.4,1.6,1.2,1.8C97.6,16.4,97.8,16.4,98,16.4z"/>
</g>
<g>
	<defs>
		<path id="SVGID_1_" d="M204.2,401.5c0,10.6-8.8,18.6-19.4,18.6H34.3c-10.1,0.2-18.5-7.8-18.7-18c0-0.2,0-0.4,0-0.6V30.8
			c0-10.6,8.1-19.3,18.7-19.3h17.4c3.7,0,5,0,5.3,4.7s3.6,7.5,8.1,8.9c1.6,0.4,3.2,0.5,4.8,0.3h79.6c1.6,0,3.3,0.3,4.8-0.2
			c4.5-1.4,7.8-4.3,8.1-9.1s1.6-4.6,5.3-4.6h17.2c10.7,0,19.3,8.6,19.4,19.3v370.7H204.2z"/>
	</defs>
	<clipPath id="SVGID_2_">
		<use xlink:href="#SVGID_1_"  style="overflow:visible;"/>
	</clipPath>
	<g class="st7">
		<rect x="0.1" y="0.1" class="st8" width="211.8" height="420.1"/>
	</g>
</g>
<path d="M129.2,37c0.3-2.2,2.4-3.7,4.6-3.3c1.7,0.3,3,1.6,3.3,3.3c0.3,2.2-1.1,4.2-3.3,4.6s-4.2-1.1-4.6-3.3
	C129.1,37.8,129.1,37.4,129.2,37z M133.1,40.3c1.4-0.1,2.6-1.3,2.6-2.7c0.1-1.4-1-2.6-2.5-2.7c0,0,0,0,0,0c-1.4,0-2.6,1.1-2.6,2.5
	c0,0.1,0,0.1,0,0.2C130.5,39,131.6,40.3,133.1,40.3C133.1,40.3,133.1,40.3,133.1,40.3z"/>
<path d="M96.4,40.9v-7.6c1.1,0,2.2-0.1,3.3,0c0.8,0,1.5,0.5,1.7,1.3c0.3,0.8-0.1,1.7-0.8,2.1c0.3,0.2,0.6,0.4,0.8,0.7
	c0.7,1,0.4,2.3-0.5,2.9c-0.2,0.1-0.3,0.2-0.5,0.3c-0.5,0.2-1.1,0.2-1.7,0.2C97.9,40.9,97.2,40.9,96.4,40.9z M97.8,37.4v2.3h1.6
	c0.6,0,1-0.5,1-1.1c0.1-0.5-0.3-1-0.9-1.1c0,0-0.1,0-0.1,0C98.9,37.4,98.3,37.4,97.8,37.4z M97.8,36.3h1.4c0.5,0,0.9-0.4,0.9-0.9
	c0,0,0,0,0-0.1c0-0.5-0.3-0.9-0.8-0.9c0,0-0.1,0-0.1,0h-1.4L97.8,36.3z"/>
<path d="M60,40.8h-1.3v-7.6H60v3.2h3.5v-3.2h1.3v7.6h-1.3v-3.1H60V40.8z"/>
<path d="M76.8,33.3v1.1h-3.1v2h2.5v1.2h-2.5v2.1H77v1.2h-4.7v-7.6H76.8z"/>
<path d="M161.2,40.8h-4.7v-7.6h4.5v1.1h-3.1v2h2.5v1.2h-2.5v2.1h3.3V40.8z"/>
<path d="M108.7,33.3h1.3v7.6h-1.3V33.3z"/>
<path d="M123.4,33.3h-1.5c-0.7,2-1.3,3.9-2,5.9c-0.7-2-1.3-3.9-2-5.9h-1.5c0.9,2.5,1.8,4.9,2.7,7.3l0.2,0.3c0,0.1,0.1,0.1,0.2,0.1
	h0.9c0.1,0,0.1,0,0.2-0.1l0.1-0.3c0.6-1.5,1.1-3,1.7-4.5C122.7,35.1,123.1,34.2,123.4,33.3z"/>
<path d="M148,37.6c0.2-0.1,0.3-0.2,0.4-0.2c0.7-0.5,1-1.4,0.8-2.2c0-0.9-0.6-1.6-1.5-1.8c-1.2-0.2-2.4-0.2-3.6-0.2v7.7h1.3v-2.8h1.1
	c0.2,0.1,0.5,0.4,0.6,0.6c0.3,0.7,0.6,1.3,1,1.9c0.1,0.1,0.3,0.3,0.4,0.3h1.3C149.1,39.7,148.6,38.7,148,37.6z M147.6,36.3
	c-0.3,0.3-0.7,0.5-1.1,0.5h-1.1v-2.5h1.2c0.4,0,0.8,0.2,1.1,0.5C148,35.3,148,35.9,147.6,36.3L147.6,36.3z"/>
<path d="M87.8,37.6c0.2-0.1,0.3-0.2,0.4-0.2c0.7-0.5,1-1.4,0.8-2.2c0-0.9-0.6-1.6-1.5-1.8c-1.2-0.2-2.4-0.2-3.6-0.2v7.7h1.3v-2.8
	h1.1c0.2,0.1,0.5,0.4,0.6,0.6c0.3,0.7,0.6,1.3,1,1.9c0.1,0.1,0.3,0.3,0.4,0.3h1.3C89,39.7,88.4,38.7,87.8,37.6z M87.5,36.3
	c-0.3,0.3-0.7,0.5-1.1,0.5h-1.1v-2.5h1.2c0.4,0,0.8,0.2,1.1,0.5C87.8,35.3,87.8,35.8,87.5,36.3z"/>
<line class="st9" x1="36.3" y1="47" x2="183.7" y2="47"/>
<g>
	<path class="st1" d="M36.9,57.3h-0.2v-2.5h0.2V57.3z"/>
	<path class="st1" d="M37.7,55.5v0.3c0.1-0.1,0.2-0.2,0.3-0.3c0.1-0.1,0.2-0.1,0.3-0.1c0.2,0,0.3,0,0.4,0.2c0.1,0.1,0.2,0.3,0.2,0.5
		v1.2h-0.2v-1.2c0-0.1,0-0.3-0.1-0.4c-0.1-0.1-0.2-0.1-0.3-0.1c-0.1,0-0.2,0-0.3,0.1c-0.1,0.1-0.2,0.2-0.2,0.3v1.3h-0.2v-1.8H37.7z"
		/>
	<path class="st1" d="M39.4,54.9C39.4,54.9,39.4,54.9,39.4,54.9C39.4,54.8,39.5,54.8,39.4,54.9c0.1-0.1,0.2-0.1,0.2-0.1
		c0,0,0,0.1,0,0.1c0,0,0,0.1,0,0.1C39.6,55,39.5,55,39.4,54.9C39.5,55,39.4,55,39.4,54.9C39.4,55,39.4,55,39.4,54.9z M39.6,57.3
		h-0.2v-1.8h0.2L39.6,57.3z"/>
	<path class="st1" d="M40.9,57.2c0.1,0,0.3,0,0.4-0.1c0.1-0.1,0.1-0.2,0.2-0.3h0.2c0,0.1,0,0.2-0.1,0.3c-0.1,0.1-0.2,0.2-0.3,0.2
		c-0.1,0.1-0.2,0.1-0.3,0.1c-0.2,0-0.4-0.1-0.6-0.3c-0.2-0.2-0.2-0.4-0.2-0.7v-0.1c0-0.2,0-0.3,0.1-0.5c0.1-0.3,0.4-0.5,0.7-0.4
		c0.2,0,0.4,0.1,0.5,0.2c0.1,0.1,0.2,0.3,0.2,0.5h-0.2c0-0.1-0.1-0.3-0.2-0.4c-0.1-0.1-0.2-0.1-0.4-0.1c-0.2,0-0.3,0.1-0.4,0.2
		c-0.1,0.2-0.2,0.4-0.2,0.6v0.1c0,0.2,0,0.4,0.2,0.6C40.6,57.1,40.7,57.2,40.9,57.2z"/>
	<path class="st1" d="M42,54.9C42,54.9,42,54.9,42,54.9c0-0.1,0.1-0.1,0.1-0.1c0,0,0.1,0,0.1,0c0,0,0,0.1,0,0.1c0,0,0,0.1,0,0.1
		c0,0-0.1,0-0.1,0C42.1,55,42,55,42,54.9C42,55,42,55,42,54.9z M42.2,57.3H42v-1.8h0.2V57.3z"/>
	<path class="st1" d="M42.7,56.4c0-0.2,0-0.3,0.1-0.5c0.1-0.1,0.2-0.2,0.3-0.3c0.1-0.1,0.3-0.1,0.4-0.1c0.2,0,0.5,0.1,0.6,0.3
		c0.2,0.2,0.2,0.4,0.2,0.7l0,0c0,0.2,0,0.3-0.1,0.5c-0.1,0.1-0.2,0.2-0.3,0.3c-0.1,0.1-0.3,0.1-0.4,0.1c-0.2,0-0.4-0.1-0.6-0.3
		C42.7,56.8,42.7,56.6,42.7,56.4L42.7,56.4z M42.9,56.4c0,0.2,0.1,0.4,0.2,0.5c0.1,0.1,0.3,0.2,0.4,0.2c0.2,0,0.3-0.1,0.4-0.2
		c0.1-0.2,0.2-0.4,0.2-0.6l0,0c0-0.1,0-0.3-0.1-0.4c0-0.1-0.1-0.2-0.2-0.3c-0.1-0.1-0.2-0.1-0.3-0.1c-0.2,0-0.3,0.1-0.4,0.2
		C42.9,56,42.9,56.2,42.9,56.4z"/>
</g>
<g>
	<path class="st1" d="M99.6,56.5c0,0.2-0.1,0.5-0.2,0.7c-0.2,0.1-0.4,0.2-0.6,0.2c-0.2,0-0.3,0-0.5-0.1C98.1,57.2,98,57,98,56.9
		c-0.1-0.2-0.1-0.4-0.1-0.6V56c0-0.2,0-0.4,0.1-0.6c0.1-0.2,0.2-0.3,0.3-0.4c0.1-0.1,0.3-0.1,0.5-0.1c0.5,0,0.9,0.3,0.9,0.7
		c0,0,0,0,0,0.1h-0.3c0-0.3-0.3-0.6-0.6-0.6c0,0,0,0-0.1,0c-0.2,0-0.4,0.1-0.5,0.2C98,55.5,98,55.7,98,56v0.2c0,0.2,0.1,0.5,0.2,0.7
		c0.1,0.2,0.3,0.3,0.5,0.3c0.2,0,0.4,0,0.5-0.2c0.1-0.1,0.2-0.3,0.2-0.5L99.6,56.5z"/>
	<path class="st1" d="M101.3,57.3c0-0.1,0-0.2,0-0.3c-0.1,0.1-0.2,0.2-0.3,0.2c-0.1,0.1-0.2,0.1-0.4,0.1c-0.2,0-0.3,0-0.4-0.2
		c-0.1-0.1-0.2-0.2-0.2-0.4c0-0.2,0.1-0.3,0.2-0.4c0.2-0.1,0.4-0.2,0.6-0.2h0.4V56c0-0.1,0-0.2-0.1-0.3c-0.1-0.1-0.2-0.1-0.4-0.1
		c-0.1,0-0.2,0-0.4,0.1c-0.1,0.1-0.1,0.2-0.1,0.3h-0.2c0-0.2,0.1-0.3,0.2-0.4c0.1-0.1,0.3-0.2,0.5-0.2c0.2,0,0.3,0,0.5,0.2
		c0.1,0.1,0.2,0.3,0.2,0.4v0.9c0,0.1,0,0.3,0.1,0.4l0,0L101.3,57.3z M100.6,57.2c0.1,0,0.3,0,0.4-0.1c0.1-0.1,0.2-0.2,0.2-0.3v-0.4
		h-0.4c-0.2,0-0.3,0-0.5,0.1c-0.1,0.1-0.2,0.2-0.2,0.3c0,0.1,0,0.2,0.1,0.3C100.4,57.1,100.5,57.2,100.6,57.2L100.6,57.2z"/>
	<path class="st1" d="M102.3,55v0.5h0.4v0.2h-0.4v1.2c0,0.1,0,0.2,0.1,0.2c0,0.1,0.1,0.1,0.2,0.1h0.2v0.2c-0.1,0-0.1,0-0.2,0
		c-0.1,0-0.2,0-0.3-0.1c-0.1-0.1-0.1-0.2-0.1-0.4v-1.2h-0.3v-0.2h0.3V55H102.3z"/>
	<path class="st1" d="M104.3,57.3c0-0.1,0-0.2,0-0.3c-0.1,0.1-0.2,0.2-0.3,0.2c-0.1,0.1-0.2,0.1-0.4,0.1c-0.2,0-0.3,0-0.4-0.2
		c-0.1-0.1-0.2-0.2-0.2-0.4c0-0.2,0.1-0.3,0.2-0.4c0.2-0.1,0.4-0.2,0.6-0.2h0.4V56c0-0.1,0-0.2-0.1-0.3c-0.1-0.1-0.2-0.1-0.4-0.1
		c-0.1,0-0.2,0-0.4,0.1c-0.1,0.1-0.1,0.2-0.1,0.3h-0.2c0-0.2,0.1-0.3,0.2-0.4c0.1-0.1,0.3-0.2,0.5-0.2c0.2,0,0.3,0,0.5,0.2
		c0.1,0.1,0.2,0.3,0.2,0.4v0.9c0,0.1,0,0.3,0.1,0.4l0,0L104.3,57.3z M103.6,57.2c0.1,0,0.3,0,0.4-0.1c0.1-0.1,0.2-0.2,0.2-0.3v-0.4
		h-0.4c-0.2,0-0.3,0-0.5,0.1c-0.1,0.1-0.2,0.2-0.2,0.3c0,0.1,0,0.2,0.1,0.3C103.4,57.1,103.5,57.2,103.6,57.2L103.6,57.2z M104,54.7
		h0.2l-0.4,0.5h-0.2L104,54.7z"/>
	<path class="st1" d="M105.2,57.3H105v-2.6h0.2V57.3z"/>
	<path class="st1" d="M105.6,56.4c0-0.2,0-0.3,0.1-0.5c0.1-0.1,0.2-0.3,0.3-0.3c0.1-0.1,0.3-0.1,0.4-0.1c0.2,0,0.5,0.1,0.6,0.3
		c0.2,0.2,0.2,0.4,0.2,0.7l0,0c0,0.2,0,0.3-0.1,0.5c-0.1,0.1-0.2,0.2-0.3,0.3c-0.1,0.1-0.3,0.1-0.4,0.1c-0.2,0-0.4-0.1-0.6-0.3
		C105.7,56.8,105.6,56.6,105.6,56.4L105.6,56.4z M105.9,56.4c0,0.2,0,0.4,0.2,0.5c0.1,0.1,0.3,0.2,0.4,0.2c0.2,0,0.3-0.1,0.4-0.2
		c0.1-0.2,0.2-0.4,0.2-0.6l0,0c0-0.1,0-0.3-0.1-0.4c0-0.1-0.1-0.2-0.2-0.3c-0.1-0.1-0.2-0.1-0.3-0.1c-0.2,0-0.3,0.1-0.4,0.2
		C105.9,56,105.8,56.2,105.9,56.4L105.9,56.4z"/>
	<path class="st1" d="M107.6,56.4c0-0.2,0.1-0.5,0.2-0.7c0.2-0.3,0.7-0.3,1-0.1c0,0,0.1,0.1,0.1,0.1v-0.3h0.2v1.8
		c0,0.2-0.1,0.4-0.2,0.6c-0.1,0.1-0.3,0.2-0.5,0.2c-0.1,0-0.3,0-0.4-0.1c-0.1-0.1-0.2-0.1-0.3-0.2l0.1-0.1c0.1,0.2,0.3,0.3,0.5,0.3
		c0.1,0,0.3-0.1,0.4-0.2c0.1-0.1,0.2-0.3,0.1-0.4v-0.2c-0.1,0.2-0.4,0.3-0.6,0.3c-0.2,0-0.4-0.1-0.5-0.3
		C107.7,56.9,107.6,56.6,107.6,56.4L107.6,56.4z M107.8,56.4c0,0.2,0,0.4,0.1,0.6c0.1,0.1,0.2,0.2,0.4,0.2c0.2,0,0.4-0.1,0.5-0.3
		v-0.9c-0.1-0.2-0.3-0.4-0.5-0.4c-0.2,0-0.3,0.1-0.4,0.2C107.9,56,107.8,56.2,107.8,56.4L107.8,56.4z"/>
	<path class="st1" d="M109.5,56.4c0-0.2,0-0.3,0.1-0.5c0.1-0.3,0.4-0.5,0.7-0.4c0.2,0,0.4,0.1,0.6,0.3c0.2,0.2,0.2,0.4,0.2,0.7l0,0
		c0,0.2,0,0.3-0.1,0.5c-0.1,0.1-0.2,0.2-0.3,0.3c-0.3,0.2-0.7,0.1-1-0.1C109.6,56.8,109.6,56.6,109.5,56.4L109.5,56.4z M109.8,56.4
		c0,0.2,0.1,0.4,0.2,0.5c0.1,0.2,0.3,0.2,0.5,0.2c0.2,0,0.3-0.1,0.4-0.2c0.1-0.2,0.2-0.4,0.2-0.6l0,0c0-0.1,0-0.3-0.1-0.4
		c0-0.1-0.1-0.2-0.2-0.3c-0.1-0.1-0.2-0.1-0.3-0.1c-0.2,0-0.3,0.1-0.4,0.2C109.8,56,109.8,56.2,109.8,56.4L109.8,56.4z"/>
</g>
<g>
	<path class="st1" d="M171.6,56.5c0,0.2-0.1,0.5-0.2,0.7c-0.2,0.1-0.4,0.2-0.6,0.2c-0.2,0-0.3,0-0.5-0.1c-0.1-0.1-0.3-0.2-0.3-0.4
		c-0.1-0.2-0.1-0.4-0.1-0.6V56c0-0.2,0-0.4,0.1-0.6c0.1-0.2,0.2-0.3,0.3-0.4c0.1-0.1,0.3-0.1,0.5-0.1c0.5,0,0.9,0.3,0.9,0.7
		c0,0,0,0,0,0.1h-0.3c0-0.3-0.3-0.6-0.6-0.6c0,0,0,0-0.1,0c-0.2,0-0.4,0.1-0.5,0.2c-0.1,0.2-0.2,0.5-0.2,0.7v0.2
		c0,0.2,0.1,0.5,0.2,0.7c0.1,0.2,0.3,0.3,0.5,0.3c0.2,0,0.4,0,0.5-0.2c0.1-0.1,0.2-0.3,0.2-0.5L171.6,56.5z"/>
	<path class="st1" d="M172,56.4c0-0.2,0-0.3,0.1-0.5c0.1-0.1,0.2-0.3,0.3-0.3c0.1-0.1,0.3-0.1,0.4-0.1c0.2,0,0.4,0.1,0.6,0.3
		c0.2,0.2,0.2,0.4,0.2,0.7l0,0c0,0.2,0,0.3-0.1,0.5c-0.1,0.1-0.2,0.2-0.3,0.3c-0.1,0.1-0.3,0.1-0.4,0.1c-0.2,0-0.4-0.1-0.6-0.3
		C172.1,56.8,172,56.6,172,56.4L172,56.4z M172.2,56.4c0,0.2,0,0.4,0.2,0.5c0.1,0.1,0.3,0.2,0.4,0.2c0.2,0,0.3-0.1,0.4-0.2
		c0.1-0.2,0.2-0.4,0.2-0.6l0,0c0-0.1,0-0.3-0.1-0.4c0-0.1-0.1-0.2-0.2-0.3c-0.2-0.2-0.6-0.1-0.8,0.1C172.2,56,172.2,56.2,172.2,56.4
		L172.2,56.4z"/>
	<path class="st1" d="M174.3,55.5v0.3c0.1-0.1,0.2-0.2,0.3-0.3c0.1-0.1,0.2-0.1,0.3-0.1c0.2,0,0.3,0,0.4,0.2
		c0.1,0.1,0.2,0.3,0.1,0.5v1.2h-0.2v-1.2c0-0.1,0-0.3-0.1-0.4c-0.1-0.1-0.2-0.1-0.3-0.1c-0.1,0-0.2,0-0.3,0.1
		c-0.1,0.1-0.2,0.2-0.2,0.3v1.3H174v-1.8H174.3z"/>
	<path class="st1" d="M176.3,55v0.5h0.4v0.2h-0.4v1.2c0,0.1,0,0.2,0.1,0.2c0,0.1,0.1,0.1,0.2,0.1h0.2v0.2c-0.1,0-0.1,0-0.2,0
		c-0.1,0-0.2,0-0.3-0.1c-0.1-0.1-0.1-0.2-0.1-0.4v-1.2h-0.3v-0.2h0.3V55H176.3z"/>
	<path class="st1" d="M178.3,57.3c0-0.1,0-0.2,0-0.3c-0.1,0.1-0.2,0.2-0.3,0.2c-0.1,0.1-0.2,0.1-0.4,0.1c-0.2,0-0.3,0-0.4-0.2
		c-0.1-0.1-0.2-0.2-0.2-0.4c0-0.2,0.1-0.3,0.2-0.4c0.2-0.1,0.4-0.2,0.6-0.2h0.4V56c0-0.1,0-0.2-0.1-0.3c-0.1-0.1-0.2-0.1-0.4-0.1
		c-0.1,0-0.2,0-0.4,0.1c-0.1,0.1-0.1,0.2-0.1,0.3h-0.2c0-0.2,0.1-0.3,0.2-0.4c0.1-0.1,0.3-0.2,0.5-0.2c0.2,0,0.3,0,0.5,0.2
		c0.1,0.1,0.2,0.3,0.2,0.4v0.9c0,0.1,0,0.3,0.1,0.4l0,0L178.3,57.3z M177.6,57.2c0.1,0,0.3,0,0.4-0.1c0.1-0.1,0.2-0.2,0.2-0.3v-0.4
		h-0.4c-0.2,0-0.3,0-0.5,0.1c-0.1,0.1-0.2,0.2-0.2,0.3c0,0.1,0,0.2,0.1,0.3C177.4,57.1,177.5,57.2,177.6,57.2L177.6,57.2z"/>
	<path class="st1" d="M179.7,57.2c0.1,0,0.3,0,0.4-0.1c0.1-0.1,0.1-0.2,0.1-0.3h0.2c0,0.1,0,0.2-0.1,0.3c-0.1,0.1-0.2,0.2-0.3,0.2
		c-0.1,0.1-0.2,0.1-0.4,0.1c-0.2,0-0.4-0.1-0.6-0.3c-0.2-0.2-0.2-0.4-0.2-0.7v-0.1c0-0.2,0-0.3,0.1-0.5c0.1-0.1,0.1-0.2,0.3-0.3
		c0.1-0.1,0.3-0.1,0.4-0.1c0.2,0,0.4,0.1,0.5,0.2c0.1,0.1,0.2,0.3,0.2,0.5h-0.2c0-0.1-0.1-0.3-0.1-0.4c-0.1-0.1-0.2-0.1-0.4-0.1
		c-0.2,0-0.3,0.1-0.4,0.2c-0.1,0.2-0.2,0.4-0.1,0.6v0.1c0,0.2,0,0.4,0.1,0.6C179.3,57.1,179.5,57.2,179.7,57.2z"/>
	<path class="st1" d="M181.1,55v0.5h0.4v0.2h-0.4v1.2c0,0.1,0,0.2,0,0.2c0.1,0.1,0.2,0.1,0.3,0.1h0.2v0.2c-0.1,0-0.1,0-0.2,0
		c-0.1,0-0.2,0-0.3-0.1c-0.1-0.1-0.1-0.2-0.1-0.4v-1.2h-0.3v-0.2h0.3V55H181.1z"/>
	<path class="st1" d="M181.8,56.4c0-0.2,0-0.3,0.1-0.5c0.1-0.1,0.2-0.2,0.3-0.3c0.1-0.1,0.3-0.1,0.4-0.1c0.2,0,0.5,0.1,0.6,0.3
		c0.2,0.2,0.2,0.4,0.2,0.7l0,0c0,0.2,0,0.3-0.1,0.5c-0.1,0.1-0.2,0.3-0.3,0.3c-0.1,0.1-0.3,0.1-0.4,0.1c-0.2,0-0.4-0.1-0.6-0.3
		C181.8,56.8,181.8,56.6,181.8,56.4L181.8,56.4z M182,56.4c0,0.2,0.1,0.4,0.2,0.5c0.1,0.1,0.3,0.2,0.4,0.2c0.2,0,0.3-0.1,0.4-0.2
		c0.1-0.2,0.2-0.4,0.2-0.6l0,0c0-0.1,0-0.3-0.1-0.4c0-0.1-0.1-0.2-0.2-0.3c-0.1-0.1-0.2-0.1-0.3-0.1c-0.2,0-0.3,0.1-0.4,0.2
		C182,56,182,56.2,182,56.4L182,56.4z"/>
</g>
<rect x="64.5" y="77.1" class="st10" width="90.9" height="3.6"/>
<rect x="64.8" y="72.5" class="st2" width="90.3" height="27.5"/>
<g>
	<path class="st1" d="M70.3,76.1c0,0.5-0.1,1.1-0.3,1.6c-0.2,0.4-0.5,0.8-0.9,1c-0.4,0.2-0.9,0.4-1.3,0.4c-0.9,0-1.8-0.5-2.2-1.4
		c-0.2-0.5-0.3-1-0.3-1.5v-0.4c0-0.5,0.1-1.1,0.3-1.6c0.4-0.9,1.2-1.4,2.2-1.4c0.5,0,0.9,0.1,1.3,0.4c0.4,0.2,0.7,0.6,0.9,1
		c0.2,0.5,0.3,1.1,0.3,1.6L70.3,76.1z M69.5,75.7c0-0.6-0.1-1.2-0.4-1.7c-0.3-0.4-0.8-0.6-1.2-0.6c-0.5,0-0.9,0.2-1.2,0.6
		c-0.3,0.5-0.5,1.1-0.5,1.7v0.4c0,0.6,0.1,1.2,0.4,1.7c0.3,0.4,0.7,0.6,1.2,0.6c0.5,0,0.9-0.2,1.2-0.6c0.3-0.5,0.5-1.1,0.4-1.7
		L69.5,75.7z"/>
	<path class="st1" d="M78.1,72.8V77c0,0.5-0.2,1.1-0.6,1.4c-0.4,0.4-0.9,0.6-1.5,0.6h-0.2c-0.6,0-1.2-0.2-1.6-0.6
		c-0.4-0.4-0.6-0.9-0.6-1.5v-4.2h0.8V77c-0.1,0.7,0.4,1.3,1.1,1.4c0.1,0,0.2,0,0.3,0c0.4,0,0.8-0.1,1.1-0.4c0.2-0.3,0.4-0.6,0.4-1
		v-4.3H78.1z"/>
	<path class="st1" d="M83.8,76.5h-1.4V79h-0.8v-6.2h2.1c0.6,0,1.2,0.1,1.6,0.5c0.4,0.4,0.6,0.9,0.6,1.4c0,0.4-0.1,0.7-0.3,1
		c-0.2,0.3-0.5,0.5-0.9,0.7l1.5,2.7l0,0h-0.9L83.8,76.5z M82.4,75.9h1.3c0.4,0,0.7-0.1,1-0.3c0.2-0.2,0.4-0.5,0.4-0.8
		c0-0.3-0.1-0.7-0.3-0.9c-0.3-0.2-0.6-0.3-1-0.3h-1.3V75.9z"/>
	<path class="st1" d="M94.3,76.6V79h-0.8v-6.2h2.3c0.6,0,1.2,0.2,1.6,0.5c0.4,0.4,0.6,0.9,0.6,1.4c0,0.5-0.2,1-0.6,1.4
		c-0.5,0.4-1,0.5-1.6,0.5L94.3,76.6z M94.3,75.9h1.5c0.4,0,0.7-0.1,1-0.3c0.2-0.2,0.4-0.6,0.3-0.9c0-0.3-0.1-0.7-0.3-0.9
		c-0.3-0.2-0.6-0.4-1-0.3h-1.5V75.9z"/>
	<path class="st1" d="M103.5,76.5H102V79h-0.8v-6.2h2.1c0.6,0,1.2,0.1,1.6,0.5c0.4,0.4,0.6,0.9,0.6,1.4c0,0.4-0.1,0.7-0.3,1
		c-0.2,0.3-0.5,0.5-0.9,0.7l1.5,2.7l0,0h-0.9L103.5,76.5z M102,75.9h1.3c0.4,0,0.7-0.1,1-0.3c0.2-0.2,0.4-0.5,0.4-0.8
		c0-0.3-0.1-0.7-0.4-0.9c-0.3-0.2-0.6-0.3-1-0.3H102L102,75.9z"/>
	<path class="st1" d="M113.5,76.1c0,0.5-0.1,1.1-0.3,1.6c-0.2,0.4-0.5,0.8-0.9,1c-0.8,0.5-1.8,0.5-2.6,0c-0.4-0.2-0.7-0.6-0.9-1
		c-0.2-0.5-0.3-1-0.3-1.6v-0.4c0-0.5,0.1-1.1,0.3-1.6c0.2-0.4,0.5-0.8,0.9-1.1c0.8-0.5,1.8-0.5,2.6,0c0.4,0.2,0.7,0.6,0.9,1
		c0.2,0.5,0.3,1.1,0.3,1.6V76.1z M112.7,75.7c0-0.6-0.1-1.2-0.4-1.7c-0.6-0.7-1.6-0.8-2.3-0.2c-0.1,0.1-0.2,0.1-0.2,0.2
		c-0.3,0.5-0.5,1.1-0.5,1.7v0.4c0,0.6,0.1,1.2,0.5,1.7c0.5,0.7,1.5,0.8,2.2,0.3c0.1-0.1,0.2-0.2,0.3-0.3c0.3-0.5,0.5-1.1,0.4-1.7
		V75.7z"/>
	<path class="st1" d="M117,79v-6.2h1.8c0.5,0,1,0.1,1.4,0.4c0.4,0.2,0.8,0.6,1,1c0.2,0.5,0.4,1,0.3,1.5v0.4c0,0.5-0.1,1.1-0.3,1.6
		c-0.2,0.4-0.6,0.8-1,1c-0.5,0.2-1,0.4-1.5,0.4L117,79z M117.8,73.5v4.9h0.9c0.6,0,1.1-0.2,1.5-0.6c0.4-0.5,0.6-1.1,0.5-1.7v-0.4
		c0-0.6-0.1-1.2-0.5-1.7c-0.4-0.4-0.9-0.6-1.4-0.6H117.8z"/>
	<path class="st1" d="M129.3,72.8V77c0,0.5-0.2,1.1-0.6,1.4c-0.4,0.4-0.9,0.6-1.5,0.6H127c-0.6,0-1.2-0.2-1.6-0.6
		c-0.4-0.4-0.6-0.9-0.6-1.5v-4.2h0.8V77c-0.1,0.7,0.4,1.3,1.1,1.4c0.1,0,0.2,0,0.3,0c0.4,0,0.8-0.1,1.1-0.4c0.2-0.3,0.4-0.6,0.4-1
		v-4.3H129.3z"/>
	<path class="st1" d="M137.3,77.1c0,0.6-0.3,1.1-0.7,1.5c-0.5,0.4-1,0.6-1.6,0.5c-0.7,0-1.3-0.3-1.8-0.8c-0.5-0.6-0.7-1.4-0.7-2.1
		v-0.6c0-0.5,0.1-1,0.3-1.5c0.2-0.4,0.5-0.8,0.9-1c0.4-0.2,0.9-0.4,1.3-0.3c0.6,0,1.2,0.2,1.6,0.6c0.4,0.4,0.7,1,0.7,1.5h-0.8
		c0-0.4-0.2-0.8-0.5-1.1c-0.3-0.2-0.6-0.4-1-0.3c-0.5,0-0.9,0.2-1.2,0.6c-0.3,0.5-0.5,1.1-0.4,1.7v0.6c0,0.6,0.1,1.1,0.4,1.6
		c0.3,0.4,0.7,0.6,1.2,0.6c0.4,0,0.7-0.1,1.1-0.3c0.3-0.3,0.5-0.7,0.5-1.1L137.3,77.1z"/>
	<path class="st1" d="M144.8,73.5h-2V79h-0.8v-5.6h-2v-0.7h4.8V73.5z"/>
	<path class="st1" d="M149.5,76.3c-0.6-0.1-1.1-0.4-1.5-0.8c-0.3-0.3-0.5-0.7-0.5-1.1c0-0.5,0.2-0.9,0.6-1.2c0.4-0.3,1-0.5,1.5-0.5
		c0.4,0,0.8,0.1,1.1,0.2c0.3,0.2,0.6,0.4,0.8,0.7c0.2,0.3,0.3,0.6,0.3,1H151c0-0.3-0.1-0.7-0.4-0.9c-0.3-0.2-0.6-0.3-1-0.3
		c-0.4,0-0.7,0.1-1,0.3c-0.2,0.2-0.3,0.5-0.3,0.7c0,0.3,0.1,0.5,0.3,0.7c0.3,0.2,0.7,0.4,1.1,0.5c0.4,0.1,0.8,0.3,1.2,0.5
		c0.3,0.1,0.5,0.4,0.6,0.6c0.2,0.2,0.2,0.5,0.2,0.8c0,0.5-0.2,0.9-0.6,1.2c-0.5,0.3-1,0.5-1.6,0.5c-0.4,0-0.8-0.1-1.2-0.2
		c-0.3-0.1-0.6-0.4-0.9-0.7c-0.2-0.3-0.3-0.6-0.3-1h0.8c0,0.4,0.1,0.7,0.4,0.9c0.3,0.2,0.7,0.3,1.1,0.3c0.4,0,0.7-0.1,1-0.3
		c0.2-0.2,0.4-0.4,0.4-0.7c0-0.3-0.1-0.5-0.3-0.7C150.3,76.5,149.9,76.4,149.5,76.3z"/>
</g>
<g>
	<path class="st11" d="M133.1,368h0.2v1.7c0,0.2-0.1,0.4-0.2,0.6c-0.1,0.1-0.3,0.2-0.5,0.2c-0.2,0-0.4-0.1-0.5-0.2
		c-0.1-0.1-0.2-0.3-0.2-0.5h0.2c0,0.1,0,0.3,0.1,0.4c0.1,0.1,0.2,0.1,0.4,0.1c0.1,0,0.3,0,0.4-0.1c0.1-0.1,0.2-0.3,0.1-0.4
		L133.1,368z"/>
	<path class="st11" d="M135,370.4c0-0.1,0-0.2,0-0.2c-0.1,0.1-0.2,0.2-0.3,0.2c-0.1,0-0.2,0.1-0.4,0.1c-0.2,0-0.3,0-0.4-0.1
		c-0.2-0.2-0.2-0.5,0-0.7c0,0,0.1,0,0.1-0.1c0.2-0.1,0.4-0.2,0.6-0.2h0.4v-0.2c0-0.1,0-0.2-0.1-0.3c-0.1-0.1-0.2-0.1-0.4-0.1
		c-0.1,0-0.2,0-0.4,0.1c-0.1,0.1-0.1,0.2-0.1,0.3h-0.2c0-0.1,0.1-0.3,0.2-0.4c0.1-0.1,0.3-0.2,0.5-0.2c0.2,0,0.3,0,0.5,0.1
		c0.1,0.1,0.2,0.3,0.2,0.4v0.9c0,0.1,0,0.3,0.1,0.4l0,0L135,370.4z M134.4,370.3c0.1,0,0.3,0,0.4-0.1c0.1-0.1,0.2-0.2,0.2-0.3v-0.4
		h-0.4c-0.2,0-0.3,0-0.5,0.1c-0.1,0.1-0.2,0.2-0.2,0.3c0,0.1,0,0.2,0.1,0.3C134.2,370.3,134.3,370.3,134.4,370.3L134.4,370.3z"/>
	<path class="st11" d="M136.8,370c0-0.1,0-0.2-0.1-0.2c-0.1-0.1-0.2-0.1-0.4-0.1c-0.1,0-0.3-0.1-0.4-0.1c-0.1,0-0.1-0.1-0.2-0.2
		c0-0.1-0.1-0.1-0.1-0.2c0-0.1,0.1-0.3,0.2-0.4c0.3-0.2,0.7-0.2,0.9,0c0.1,0.1,0.2,0.2,0.2,0.4h-0.2c0-0.1,0-0.2-0.1-0.3
		c-0.1-0.1-0.2-0.1-0.3-0.1c-0.1,0-0.2,0-0.3,0.1c-0.1,0.1-0.1,0.3,0,0.4c0,0,0,0,0,0c0.1,0.1,0.2,0.1,0.4,0.1
		c0.1,0,0.3,0.1,0.4,0.1c0.1,0,0.1,0.1,0.2,0.2c0.1,0.2,0.1,0.5-0.1,0.6c-0.1,0.1-0.3,0.1-0.5,0.1c-0.2,0-0.4,0-0.5-0.1
		c-0.1-0.1-0.2-0.2-0.2-0.4h0.2c0,0.1,0.1,0.2,0.1,0.3c0.1,0.1,0.2,0.1,0.4,0.1c0.1,0,0.2,0,0.3-0.1
		C136.7,370.1,136.8,370,136.8,370z"/>
	<path class="st11" d="M137.6,368.6v0.3c0.1-0.1,0.1-0.2,0.2-0.2c0.1-0.1,0.2-0.1,0.3-0.1c0.2,0,0.5,0.1,0.6,0.4
		c0.1-0.1,0.2-0.2,0.3-0.3c0.1-0.1,0.2-0.1,0.4-0.1c0.4,0,0.6,0.2,0.6,0.6v1.2h-0.2v-1.2c0-0.1,0-0.3-0.1-0.4
		c-0.1-0.1-0.2-0.1-0.3-0.1c-0.1,0-0.3,0.1-0.4,0.1c-0.1,0.1-0.2,0.2-0.2,0.3v1.2h-0.2v-1.2c0-0.1,0-0.3-0.1-0.4
		c-0.1-0.1-0.2-0.1-0.3-0.1c-0.1,0-0.2,0-0.3,0.1c-0.1,0.1-0.2,0.2-0.2,0.3v1.2h-0.2v-1.8L137.6,368.6z"/>
	<path class="st11" d="M140.5,368.1c0,0,0-0.1,0-0.1c0.1-0.1,0.1-0.1,0.2,0c0,0,0,0,0,0c0,0,0,0.1,0,0.1c0,0,0,0.1,0,0.1
		C140.6,368.2,140.5,368.2,140.5,368.1C140.4,368.1,140.4,368.1,140.5,368.1z M140.7,370.4h-0.2v-1.8h0.2V370.4z"/>
	<path class="st11" d="M141.4,368.6v0.3c0.1-0.1,0.2-0.2,0.3-0.2c0.1-0.1,0.2-0.1,0.3-0.1c0.2,0,0.3,0,0.4,0.2
		c0.1,0.1,0.2,0.3,0.1,0.5v1.2h-0.2v-1.2c0-0.1,0-0.3-0.1-0.4c-0.1-0.1-0.2-0.1-0.3-0.1c-0.1,0-0.2,0-0.3,0.1
		c-0.1,0.1-0.2,0.2-0.2,0.3v1.2h-0.2v-1.8L141.4,368.6z"/>
	<path class="st11" d="M143.8,370.5c-0.1,0-0.3,0-0.4-0.1c-0.1-0.1-0.2-0.2-0.3-0.3c-0.1-0.1-0.1-0.3-0.1-0.5v-0.1
		c0-0.2,0-0.3,0.1-0.5c0.1-0.1,0.2-0.2,0.3-0.3c0.1-0.1,0.3-0.1,0.4-0.1c0.2,0,0.4,0.1,0.5,0.2c0.1,0.2,0.2,0.4,0.2,0.6v0.1h-1.3
		l0,0c0,0.2,0.1,0.4,0.2,0.5c0.1,0.1,0.3,0.2,0.4,0.2c0.1,0,0.2,0,0.3-0.1c0.1,0,0.2-0.1,0.2-0.2l0.1,0.1
		C144.4,370.3,144.1,370.5,143.8,370.5z M143.8,368.7c-0.1,0-0.3,0.1-0.4,0.2c-0.1,0.1-0.2,0.3-0.2,0.5h1.1l0,0c0-0.2,0-0.3-0.1-0.4
		C144.1,368.8,144,368.7,143.8,368.7L143.8,368.7z"/>
	<path class="st11" d="M145.8,370.4V368h0.7c0.2,0,0.4,0,0.6,0.2c0.1,0.1,0.2,0.3,0.2,0.5c0,0.1,0,0.2-0.1,0.3
		c-0.1,0.1-0.2,0.2-0.3,0.2c0.1,0,0.3,0.1,0.4,0.2c0.1,0.1,0.1,0.2,0.1,0.4c0,0.2-0.1,0.4-0.2,0.5c-0.2,0.1-0.4,0.2-0.6,0.2H145.8z
		 M146,369.1h0.6c0.1,0,0.3,0,0.4-0.1c0.1-0.1,0.1-0.2,0.1-0.3c0-0.1,0-0.3-0.1-0.4c-0.1-0.1-0.3-0.1-0.4-0.1H146V369.1z M146,369.2
		v1h0.6c0.2,0,0.3,0,0.4-0.1c0.1-0.1,0.2-0.2,0.1-0.4c0-0.1,0-0.3-0.1-0.4c-0.1-0.1-0.3-0.1-0.4-0.1H146z"/>
	<path class="st11" d="M147.8,369.5c0-0.2,0-0.3,0.1-0.5c0.1-0.1,0.2-0.2,0.3-0.3c0.1-0.1,0.3-0.1,0.4-0.1c0.2,0,0.4,0.1,0.6,0.2
		c0.2,0.2,0.2,0.4,0.2,0.7l0,0c0,0.2,0,0.3-0.1,0.5c-0.1,0.1-0.2,0.2-0.3,0.3c-0.1,0.1-0.3,0.1-0.4,0.1c-0.2,0-0.4-0.1-0.6-0.2
		C147.8,370,147.7,369.7,147.8,369.5L147.8,369.5z M147.9,369.5c0,0.2,0.1,0.4,0.2,0.5c0.2,0.2,0.6,0.3,0.8,0.1c0,0,0.1,0,0.1-0.1
		c0.1-0.2,0.2-0.4,0.2-0.6l0,0c0-0.1,0-0.3-0.1-0.4c0-0.1-0.1-0.2-0.2-0.3c-0.1-0.1-0.2-0.1-0.3-0.1c-0.2,0-0.3,0.1-0.4,0.2
		C148,369.1,147.9,369.3,147.9,369.5L147.9,369.5z"/>
	<path class="st11" d="M149.7,369.5c0-0.2,0-0.5,0.2-0.7c0.1-0.2,0.3-0.3,0.5-0.2c0.2,0,0.4,0.1,0.6,0.3v-1h0.2v2.6H151v-0.2
		c-0.1,0.2-0.3,0.3-0.6,0.3c-0.2,0-0.4-0.1-0.5-0.2C149.8,370,149.7,369.8,149.7,369.5L149.7,369.5z M149.9,369.5
		c0,0.2,0,0.4,0.1,0.5c0.1,0.1,0.2,0.2,0.4,0.2c0.2,0,0.4-0.1,0.5-0.3v-0.9c-0.1-0.2-0.3-0.4-0.5-0.4c-0.2,0-0.3,0.1-0.4,0.2
		C149.9,369.1,149.9,369.3,149.9,369.5L149.9,369.5z"/>
	<path class="st11" d="M152.3,370.1l0.5-1.5h0.2l-0.8,2.1v0.1c-0.1,0.2-0.2,0.3-0.5,0.3h-0.1V371h0.1c0.1,0,0.2,0,0.2-0.1
		c0.1-0.1,0.1-0.2,0.2-0.2l0.1-0.2l-0.7-1.8h0.2L152.3,370.1z"/>
	<path class="st11" d="M156,369.3c0,0.2,0,0.4-0.1,0.6c-0.1,0.2-0.2,0.3-0.3,0.4c-0.2,0.1-0.3,0.1-0.5,0.1c-0.3,0-0.5-0.1-0.7-0.3
		c-0.2-0.2-0.3-0.5-0.3-0.8v-0.2c0-0.2,0-0.4,0.1-0.6c0.1-0.2,0.2-0.3,0.3-0.4c0.4-0.3,1-0.2,1.3,0.3c0,0,0,0.1,0.1,0.1
		c0.1,0.2,0.1,0.4,0.1,0.6V369.3z M155.8,369.1c0-0.2-0.1-0.5-0.2-0.7c-0.1-0.2-0.3-0.3-0.6-0.2c-0.2,0-0.4,0.1-0.5,0.2
		c-0.2,0.2-0.2,0.5-0.2,0.7v0.2c0,0.2,0.1,0.5,0.2,0.7c0.1,0.2,0.3,0.3,0.6,0.2c0.2,0,0.4-0.1,0.6-0.2c0.1-0.2,0.2-0.5,0.2-0.7
		V369.1z"/>
	<path class="st11" d="M156.5,368.1c0,0,0-0.1,0-0.1c0,0,0.1,0,0.1,0c0,0,0.1,0,0.1,0c0,0,0,0.1,0,0.1c0,0,0,0.1,0,0.1
		c0,0-0.1,0-0.1,0C156.6,368.2,156.5,368.2,156.5,368.1C156.5,368.1,156.5,368.1,156.5,368.1z M156.7,370.4h-0.2v-1.8h0.2V370.4z"/>
	<path class="st11" d="M157.5,370.4h-0.2v-2.6h0.2V370.4z"/>
</g>
<g>
	<path class="st11" d="M141.5,376.3c0-0.1,0-0.2-0.1-0.3c-0.1-0.1-0.3-0.2-0.4-0.2c-0.2,0-0.4-0.1-0.5-0.3c-0.1-0.1-0.2-0.3-0.2-0.4
		c0-0.2,0.1-0.3,0.2-0.4c0.1-0.1,0.3-0.2,0.5-0.2v-0.3h0.2v0.3c0.2,0,0.3,0.1,0.5,0.2c0.1,0.2,0.2,0.3,0.2,0.5h-0.2
		c0-0.2,0-0.3-0.1-0.4c-0.1-0.1-0.2-0.2-0.4-0.2c-0.1,0-0.3,0-0.4,0.1c-0.1,0.1-0.1,0.2-0.1,0.3c0,0.1,0,0.2,0.1,0.3
		c0.1,0.1,0.3,0.2,0.4,0.2c0.2,0,0.3,0.1,0.4,0.2c0.1,0.1,0.2,0.1,0.2,0.2c0.1,0.1,0.1,0.2,0.1,0.3c0,0.2-0.1,0.3-0.2,0.4
		c-0.1,0.1-0.3,0.2-0.5,0.2v0.3h-0.2v-0.3c-0.2,0-0.4-0.1-0.5-0.2c-0.1-0.1-0.2-0.3-0.2-0.5h0.2c0,0.2,0,0.3,0.1,0.4
		c0.1,0.1,0.3,0.2,0.4,0.1c0.1,0,0.3,0,0.4-0.1C141.4,376.5,141.5,376.4,141.5,376.3z"/>
	<path class="st11" d="M143,376.9h-0.2v-2.2l-0.7,0.2v-0.2l0.8-0.3l0,0L143,376.9z"/>
	<path class="st11" d="M145.5,376.9H144v-0.1l0.8-1c0.1-0.1,0.2-0.3,0.3-0.4c0.1-0.1,0.1-0.2,0.1-0.3c0-0.1,0-0.3-0.1-0.4
		c-0.1-0.1-0.2-0.1-0.4-0.1c-0.1,0-0.3,0-0.4,0.1c-0.1,0.1-0.2,0.3-0.2,0.4h-0.2c0-0.1,0-0.3,0.1-0.4c0.1-0.1,0.2-0.2,0.3-0.3
		c0.1-0.1,0.3-0.1,0.4-0.1c0.2,0,0.4,0,0.5,0.2c0.1,0.1,0.2,0.3,0.2,0.5c0,0.1,0,0.3-0.1,0.4c-0.1,0.2-0.2,0.3-0.4,0.5l-0.7,0.8h1.3
		L145.5,376.9z"/>
	<path class="st11" d="M147.4,375.9c0,0.3,0,0.5-0.2,0.8c-0.1,0.2-0.3,0.3-0.6,0.3c-0.2,0-0.4-0.1-0.6-0.3c-0.1-0.2-0.2-0.5-0.2-0.8
		v-0.4c0-0.3,0-0.5,0.2-0.8c0.1-0.2,0.3-0.3,0.6-0.3c0.2,0,0.4,0.1,0.6,0.2c0.1,0.2,0.2,0.5,0.2,0.8V375.9z M147.2,375.4
		c0-0.2,0-0.4-0.1-0.6c-0.1-0.1-0.2-0.2-0.4-0.2c-0.2,0-0.3,0.1-0.4,0.2c-0.1,0.2-0.2,0.4-0.1,0.6v0.5c0,0.2,0,0.4,0.1,0.6
		c0.1,0.1,0.2,0.2,0.4,0.2c0.2,0,0.3-0.1,0.4-0.2c0.1-0.2,0.2-0.4,0.1-0.6V375.4z"/>
	<path class="st11" d="M149.3,375.9c0,0.3-0.1,0.5-0.2,0.8c-0.2,0.3-0.7,0.4-1,0.1c0,0-0.1-0.1-0.1-0.1c-0.1-0.2-0.2-0.5-0.2-0.8
		v-0.4c0-0.3,0.1-0.5,0.2-0.8c0.1-0.2,0.3-0.3,0.6-0.3c0.2,0,0.4,0.1,0.6,0.2c0.1,0.2,0.2,0.5,0.2,0.8V375.9z M149.1,375.4
		c0-0.2,0-0.4-0.1-0.6c-0.1-0.1-0.3-0.2-0.4-0.2c-0.2,0-0.3,0.1-0.4,0.2c-0.1,0.2-0.2,0.4-0.1,0.6v0.5c0,0.2,0,0.4,0.1,0.6
		c0.1,0.1,0.3,0.2,0.4,0.2c0.2,0,0.3-0.1,0.4-0.2c0.1-0.2,0.2-0.4,0.1-0.6L149.1,375.4z"/>
</g>
<g>
	<path class="st11" d="M66,369.4h-0.7v1h-0.2V368h0.8c0.2,0,0.4,0,0.6,0.2c0.1,0.1,0.2,0.3,0.2,0.5c0,0.2,0,0.3-0.1,0.4
		c-0.1,0.1-0.2,0.2-0.4,0.2l0.6,1l0,0h-0.2L66,369.4z M65.3,369.2h0.6c0.2,0,0.3,0,0.4-0.1c0.1-0.1,0.2-0.2,0.2-0.4
		c0-0.2-0.1-0.3-0.2-0.4c-0.1-0.1-0.3-0.1-0.5-0.1h-0.6V369.2z"/>
	<path class="st11" d="M67.1,369.5c0-0.2,0-0.3,0.1-0.5c0.1-0.1,0.2-0.2,0.3-0.3c0.1-0.1,0.3-0.1,0.4-0.1c0.2,0,0.4,0.1,0.6,0.2
		c0.2,0.2,0.2,0.4,0.2,0.7l0,0c0,0.2,0,0.3-0.1,0.5c-0.1,0.1-0.2,0.2-0.3,0.3c-0.3,0.2-0.7,0.1-1-0.1
		C67.2,370,67.1,369.7,67.1,369.5L67.1,369.5z M67.3,369.5c0,0.2,0.1,0.4,0.2,0.5c0.2,0.2,0.6,0.3,0.8,0.1c0,0,0.1,0,0.1-0.1
		c0.1-0.2,0.2-0.4,0.2-0.6l0,0c0-0.1,0-0.3-0.1-0.4c-0.1-0.1-0.1-0.2-0.2-0.3c-0.1-0.1-0.2-0.1-0.3-0.1c-0.2,0-0.3,0.1-0.4,0.2
		C67.4,369.1,67.3,369.3,67.3,369.5L67.3,369.5z"/>
	<path class="st11" d="M70.2,370c0-0.1,0-0.2-0.1-0.2c-0.1-0.1-0.2-0.1-0.4-0.1c-0.1,0-0.3-0.1-0.4-0.1c-0.1,0-0.1-0.1-0.2-0.2
		c0-0.1-0.1-0.1-0.1-0.2c0-0.1,0.1-0.3,0.2-0.4c0.3-0.2,0.7-0.2,0.9,0c0.1,0.1,0.2,0.2,0.2,0.4h-0.2c0-0.1-0.1-0.2-0.1-0.3
		c-0.1-0.1-0.2-0.1-0.3-0.1c-0.1,0-0.2,0-0.3,0.1c-0.1,0.1-0.1,0.1-0.1,0.2c0,0.1,0,0.2,0.1,0.2c0.1,0.1,0.2,0.1,0.4,0.1
		c0.1,0,0.3,0.1,0.4,0.1c0.1,0,0.1,0.1,0.2,0.2c0,0.1,0.1,0.2,0.1,0.2c0,0.1-0.1,0.3-0.2,0.4c-0.1,0.1-0.3,0.1-0.5,0.1
		c-0.2,0-0.4,0-0.5-0.1c-0.1-0.1-0.2-0.2-0.2-0.4h0.2c0,0.1,0.1,0.2,0.2,0.3c0.1,0.1,0.2,0.1,0.4,0.1c0.1,0,0.2,0,0.3-0.1
		C70.2,370.1,70.2,370.1,70.2,370z"/>
	<path class="st11" d="M71.6,370.5c-0.1,0-0.3,0-0.4-0.1c-0.1-0.1-0.2-0.2-0.3-0.3c-0.1-0.1-0.1-0.3-0.1-0.5v-0.1
		c0-0.2,0-0.3,0.1-0.5c0.1-0.1,0.2-0.2,0.3-0.3c0.1-0.1,0.3-0.1,0.4-0.1c0.2,0,0.4,0.1,0.5,0.2c0.1,0.2,0.2,0.4,0.2,0.6v0.1H71l0,0
		c0,0.2,0.1,0.4,0.2,0.5c0.1,0.1,0.3,0.2,0.4,0.2c0.1,0,0.2,0,0.3-0.1c0.1,0,0.2-0.1,0.2-0.2l0.1,0.1
		C72.1,370.3,71.8,370.5,71.6,370.5z M71.6,368.7c-0.1,0-0.3,0.1-0.4,0.2c-0.1,0.1-0.2,0.3-0.2,0.5h1.1l0,0c0-0.2-0.1-0.3-0.2-0.4
		C71.9,368.8,71.7,368.7,71.6,368.7L71.6,368.7z"/>
	<path class="st11" d="M73.5,370.4V368h0.7c0.2,0,0.4,0,0.6,0.2c0.1,0.1,0.2,0.3,0.2,0.5c0,0.1,0,0.2-0.1,0.3
		c-0.1,0-0.2,0.1-0.3,0.2c0,0.1,0.1,0.2,0.2,0.3c0,0,0.1,0,0.1,0c0.1,0.1,0.1,0.2,0.1,0.4c0,0.2-0.1,0.4-0.2,0.5
		c-0.2,0.1-0.4,0.2-0.6,0.2H73.5z M73.8,369.1h0.6c0.1,0,0.3,0,0.4-0.1c0.1-0.1,0.2-0.2,0.1-0.3c0-0.1,0-0.3-0.1-0.4
		c-0.1-0.1-0.3-0.1-0.4-0.1h-0.5V369.1z M73.8,369.2v1h0.7c0.2,0,0.3,0,0.4-0.1c0.1-0.1,0.2-0.2,0.2-0.4c0-0.1,0-0.3-0.2-0.4
		c-0.1-0.1-0.3-0.1-0.4-0.1H73.8z"/>
	<path class="st11" d="M75.5,369.5c0-0.2,0-0.3,0.1-0.5c0.1-0.1,0.2-0.2,0.3-0.3c0.1-0.1,0.3-0.1,0.4-0.1c0.2,0,0.4,0.1,0.6,0.2
		c0.2,0.2,0.2,0.4,0.2,0.7l0,0c0,0.2,0,0.3-0.1,0.5c-0.1,0.3-0.4,0.4-0.7,0.4c-0.2,0-0.4-0.1-0.6-0.2
		C75.6,370,75.5,369.7,75.5,369.5L75.5,369.5z M75.7,369.5c0,0.2,0.1,0.4,0.2,0.5c0.2,0.2,0.6,0.3,0.8,0.1c0,0,0.1,0,0.1-0.1
		c0.1-0.2,0.2-0.4,0.2-0.6l0,0c0-0.1,0-0.3-0.1-0.4c-0.1-0.1-0.1-0.2-0.2-0.3c-0.1-0.1-0.2-0.1-0.3-0.1c-0.2,0-0.3,0.1-0.4,0.2
		C75.7,369.1,75.7,369.3,75.7,369.5L75.7,369.5z"/>
	<path class="st11" d="M77.5,369.5c0-0.2,0.1-0.5,0.2-0.7c0.1-0.2,0.3-0.3,0.5-0.2c0.2,0,0.4,0.1,0.6,0.3v-1h0.2v2.6h-0.2v-0.2
		c-0.1,0.2-0.3,0.3-0.6,0.3c-0.2,0-0.4-0.1-0.5-0.2C77.5,370,77.4,369.8,77.5,369.5L77.5,369.5z M77.7,369.5c0,0.2,0,0.4,0.1,0.5
		c0.1,0.1,0.2,0.2,0.4,0.2c0.2,0,0.4-0.1,0.5-0.3v-0.9c-0.1-0.2-0.3-0.4-0.5-0.4c-0.2,0-0.3,0.1-0.4,0.2
		C77.7,369.1,77.6,369.3,77.7,369.5L77.7,369.5z"/>
	<path class="st11" d="M80,370.1l0.5-1.5h0.2l-0.8,2.1v0.1c-0.1,0.2-0.2,0.3-0.5,0.3h-0.2V371h0.1c0.1,0,0.2,0,0.2-0.1
		c0.1-0.1,0.1-0.2,0.2-0.2l0.1-0.2l-0.7-1.8h0.2L80,370.1z"/>
	<path class="st11" d="M83.8,369.3c0,0.2,0,0.4-0.1,0.6c-0.1,0.2-0.2,0.3-0.3,0.4c-0.2,0.1-0.3,0.1-0.5,0.1c-0.3,0-0.5-0.1-0.7-0.3
		c-0.2-0.2-0.3-0.5-0.3-0.8v-0.2c0-0.2,0-0.4,0.1-0.6c0.1-0.3,0.5-0.6,0.8-0.5c0.2,0,0.4,0,0.5,0.1c0.1,0.1,0.3,0.2,0.3,0.4
		c0.1,0.2,0.1,0.4,0.1,0.6V369.3z M83.6,369.1c0-0.2-0.1-0.5-0.2-0.7c-0.1-0.2-0.3-0.3-0.6-0.2c-0.2,0-0.4,0.1-0.5,0.2
		c-0.1,0.2-0.2,0.5-0.2,0.7v0.2c0,0.2,0.1,0.5,0.2,0.7c0.1,0.2,0.3,0.3,0.6,0.2c0.2,0,0.4-0.1,0.5-0.2c0.1-0.2,0.2-0.5,0.2-0.7
		V369.1z"/>
	<path class="st11" d="M84.2,368.1c0,0,0-0.1,0-0.1c0,0,0.1,0,0.1,0c0.1,0,0.1,0.1,0.1,0.1l0,0c0,0,0,0.1,0,0.1c0,0-0.1,0-0.1,0
		c0,0-0.1,0-0.1,0C84.2,368.2,84.2,368.1,84.2,368.1z M84.5,370.4h-0.2v-1.8h0.2V370.4z"/>
	<path class="st11" d="M85.2,370.4H85v-2.6h0.2V370.4z"/>
</g>
<g>
	<path class="st11" d="M71.9,376.3c0-0.1,0-0.2-0.1-0.3c-0.1-0.1-0.3-0.2-0.4-0.2c-0.2,0-0.4-0.1-0.5-0.3c-0.1-0.1-0.2-0.3-0.2-0.4
		c0-0.2,0.1-0.3,0.2-0.4c0.1-0.1,0.3-0.2,0.4-0.2v-0.3h0.2v0.3c0.2,0,0.3,0.1,0.5,0.2c0.1,0.2,0.2,0.3,0.2,0.5h-0.2
		c0-0.2,0-0.3-0.1-0.4c-0.1-0.1-0.2-0.2-0.4-0.2c-0.1,0-0.3,0-0.4,0.1c-0.1,0.1-0.1,0.2-0.1,0.3c0,0.1,0,0.2,0.1,0.3
		c0.1,0.1,0.3,0.2,0.4,0.2c0.1,0,0.3,0.1,0.4,0.2c0.1,0.1,0.1,0.1,0.2,0.2c0,0.1,0.1,0.2,0.1,0.3c0,0.2-0.1,0.3-0.2,0.4
		c-0.1,0.1-0.3,0.2-0.5,0.2v0.3h-0.2v-0.3c-0.2,0-0.4-0.1-0.5-0.2c-0.1-0.1-0.2-0.3-0.2-0.5h0.2c0,0.2,0,0.3,0.2,0.4
		c0.1,0.1,0.3,0.2,0.4,0.1c0.1,0,0.3,0,0.4-0.1C71.8,376.5,71.9,376.4,71.9,376.3z"/>
	<path class="st11" d="M73.5,376.9h-0.2v-2.2l-0.7,0.2v-0.2l0.8-0.3l0,0L73.5,376.9z"/>
	<path class="st11" d="M76,376.9h-1.6v-0.1l0.8-1c0.1-0.1,0.2-0.3,0.3-0.4c0-0.1,0.1-0.2,0.1-0.3c0-0.1,0-0.3-0.1-0.4
		c-0.1-0.1-0.2-0.1-0.4-0.1c-0.1,0-0.3,0-0.4,0.1c-0.1,0.1-0.2,0.3-0.2,0.4h-0.1c0-0.1,0-0.3,0.1-0.4c0.1-0.1,0.2-0.2,0.3-0.3
		c0.1-0.1,0.3-0.1,0.4-0.1c0.2,0,0.4,0,0.5,0.2c0.1,0.1,0.2,0.3,0.2,0.5c0,0.1,0,0.3-0.1,0.4c-0.1,0.2-0.2,0.3-0.4,0.5l-0.7,0.8H76
		L76,376.9z"/>
	<path class="st11" d="M77.8,375.9c0,0.3,0,0.5-0.2,0.8c-0.1,0.2-0.3,0.3-0.6,0.3c-0.2,0-0.4-0.1-0.6-0.3c-0.1-0.2-0.2-0.5-0.2-0.8
		v-0.4c0-0.3,0-0.5,0.2-0.8c0.3-0.3,0.7-0.3,1-0.1c0,0,0.1,0.1,0.1,0.1c0.1,0.2,0.2,0.5,0.2,0.8V375.9z M77.6,375.4
		c0-0.2,0-0.4-0.1-0.6c-0.2-0.2-0.5-0.3-0.7-0.1c0,0-0.1,0.1-0.1,0.1c-0.1,0.2-0.2,0.4-0.1,0.6v0.5c0,0.2,0,0.4,0.1,0.6
		c0.1,0.1,0.2,0.2,0.4,0.2c0.2,0,0.3-0.1,0.4-0.2c0.1-0.2,0.2-0.4,0.1-0.6L77.6,375.4z"/>
	<path class="st11" d="M79.7,375.9c0,0.3,0,0.5-0.2,0.8c-0.1,0.2-0.3,0.3-0.6,0.3c-0.2,0-0.4-0.1-0.6-0.3c-0.1-0.2-0.2-0.5-0.2-0.8
		v-0.4c0-0.3,0-0.5,0.2-0.8c0.1-0.2,0.3-0.3,0.6-0.3c0.2,0,0.4,0.1,0.6,0.2c0.1,0.2,0.2,0.5,0.2,0.8V375.9z M79.5,375.4
		c0-0.2,0-0.4-0.1-0.6c-0.1-0.1-0.2-0.2-0.4-0.2c-0.2,0-0.3,0.1-0.4,0.2c-0.1,0.2-0.2,0.4-0.2,0.6v0.5c0,0.2,0,0.4,0.2,0.6
		c0.1,0.1,0.2,0.2,0.4,0.2c0.2,0,0.3-0.1,0.4-0.2c0.1-0.2,0.2-0.4,0.1-0.6V375.4z"/>
</g>
<g>
	<defs>
		<rect id="SVGID_3_" x="44.5" y="249.5" width="61.2" height="107.9"/>
	</defs>
	<clipPath id="SVGID_4_">
		<use xlink:href="#SVGID_3_"  style="overflow:visible;"/>
	</clipPath>
	<g class="st12">
		
			<image style="overflow:visible;enable-background:new    ;" width="1630" height="2020" xlink:href="B00E717E88AE4694.jpeg"  transform="matrix(5.000000e-02 0 0 5.000000e-02 31.72 249.56)">
		</image>
	</g>
</g>
<g>
	<defs>
		<rect id="SVGID_5_" x="114.1" y="249.5" width="61.2" height="107.9"/>
	</defs>
	<clipPath id="SVGID_6_">
		<use xlink:href="#SVGID_5_"  style="overflow:visible;"/>
	</clipPath>
	<g class="st13">
		
			<image style="overflow:visible;enable-background:new    ;" width="1651" height="2068" xlink:href="B00E717E88AE4694.jpeg"  transform="matrix(5.000000e-02 0 0 5.000000e-02 101.6 249.35)">
		</image>
	</g>
</g>
<g>
	<defs>
		<rect id="SVGID_7_" x="114.1" y="249.5" width="61.2" height="107.9"/>
	</defs>
	<clipPath id="SVGID_8_">
		<use xlink:href="#SVGID_7_"  style="overflow:visible;"/>
	</clipPath>
	<g class="st14">
		<rect x="101.5" y="249.4" class="st2" width="86.4" height="108"/>
	</g>
</g>
<rect x="51" y="232.5" class="st10" width="117.9" height="3.6"/>
<g>
	<path class="st1" d="M55.2,231.6h-1.5v2.5H53v-6.2H55c0.6,0,1.2,0.1,1.6,0.5c0.4,0.4,0.6,0.9,0.6,1.4c0,0.4-0.1,0.7-0.3,1
		c-0.2,0.3-0.5,0.5-0.9,0.6l1.5,2.6l0,0h-0.9L55.2,231.6z M53.8,230.9h1.3c0.4,0,0.7-0.1,1-0.3c0.2-0.2,0.4-0.5,0.4-0.9
		c0-0.3-0.1-0.7-0.3-0.9c-0.3-0.2-0.6-0.3-1-0.3h-1.3V230.9z"/>
	<path class="st1" d="M64.1,231.2h-2.7v2.2h3.1v0.7h-4v-6.2h3.9v0.7h-3v2h2.7L64.1,231.2z"/>
	<path class="st1" d="M68.5,233.4h2.9v0.7h-3.8v-6.2h0.8V233.4z"/>
	<path class="st1" d="M78,232.5h-2.6l-0.6,1.6H74l2.4-6.2h0.7l2.4,6.2h-0.8L78,232.5z M75.7,231.8h2.1l-1.1-2.9L75.7,231.8z"/>
	<path class="st1" d="M86.6,228.5h-2v5.6h-0.8v-5.6h-2v-0.7h4.8V228.5z"/>
	<path class="st1" d="M93.1,231.2h-2.7v2.2h3.1v0.7h-4v-6.2h3.9v0.7h-3.1v2h2.7L93.1,231.2z"/>
	<path class="st1" d="M96.7,234.1v-6.2h1.8c0.5,0,1,0.1,1.4,0.4c0.4,0.2,0.8,0.6,1,1c0.2,0.5,0.3,1,0.3,1.5v0.4
		c0,0.5-0.1,1.1-0.3,1.6c-0.2,0.4-0.6,0.8-1,1c-0.5,0.2-1,0.4-1.5,0.4L96.7,234.1z M97.5,228.5v4.9h0.9c0.6,0,1.1-0.2,1.5-0.6
		c0.4-0.5,0.5-1,0.5-1.6v-0.4c0-0.6-0.1-1.2-0.5-1.6c-0.4-0.4-0.9-0.6-1.4-0.6L97.5,228.5z"/>
	<path class="st1" d="M109.8,231.7v2.4H109v-6.2h2.3c0.6,0,1.2,0.2,1.6,0.5c0.7,0.8,0.7,2,0,2.8c-0.5,0.4-1,0.5-1.6,0.5H109.8z
		 M109.8,231h1.5c0.4,0,0.7-0.1,1-0.3c0.2-0.2,0.4-0.6,0.4-0.9c0-0.3-0.1-0.7-0.4-0.9c-0.3-0.2-0.6-0.4-1-0.4h-1.5L109.8,231z"/>
	<path class="st1" d="M119,231.6h-1.5v2.5h-0.8v-6.2h2.1c0.6,0,1.2,0.1,1.6,0.5c0.4,0.4,0.6,0.9,0.6,1.4c0,0.4-0.1,0.7-0.3,1
		c-0.2,0.3-0.5,0.5-0.9,0.6l1.5,2.6l0,0h-0.9L119,231.6z M117.5,230.9h1.3c0.4,0,0.7-0.1,1-0.3c0.2-0.2,0.4-0.5,0.4-0.9
		c0-0.3-0.1-0.7-0.3-0.9c-0.3-0.2-0.6-0.3-1-0.3h-1.3L117.5,230.9z"/>
	<path class="st1" d="M129,231.2c0,0.5-0.1,1.1-0.3,1.6c-0.4,0.9-1.2,1.5-2.2,1.4c-0.5,0-0.9-0.1-1.3-0.4c-0.4-0.2-0.7-0.6-0.9-1
		c-0.2-0.5-0.3-1-0.3-1.6v-0.4c0-0.5,0.1-1.1,0.3-1.6c0.2-0.4,0.5-0.8,0.9-1.1c0.4-0.3,0.8-0.4,1.3-0.4c0.5,0,0.9,0.1,1.3,0.4
		c0.4,0.3,0.7,0.6,0.9,1.1c0.2,0.5,0.3,1.1,0.3,1.6V231.2z M128.2,230.8c0-0.6-0.1-1.2-0.4-1.7c-0.6-0.7-1.6-0.8-2.2-0.2
		c-0.1,0.1-0.2,0.1-0.2,0.2c-0.3,0.5-0.5,1.1-0.5,1.6v0.4c0,0.6,0.1,1.2,0.4,1.7c0.5,0.7,1.5,0.8,2.2,0.3c0.1-0.1,0.2-0.2,0.3-0.3
		c0.3-0.5,0.5-1.1,0.4-1.7L128.2,230.8z"/>
	<path class="st1" d="M132.4,234.1v-6.2h1.8c0.5,0,1,0.1,1.4,0.4c0.4,0.2,0.8,0.6,1,1c0.2,0.5,0.3,1,0.3,1.5v0.4
		c0,0.5-0.1,1.1-0.3,1.6c-0.2,0.4-0.6,0.8-1,1c-0.5,0.2-1,0.4-1.5,0.4L132.4,234.1z M133.2,228.5v4.9h0.9c0.6,0,1.1-0.2,1.5-0.6
		c0.4-0.5,0.6-1.1,0.5-1.7v-0.4c0-0.6-0.1-1.2-0.5-1.6c-0.4-0.4-0.9-0.6-1.4-0.6L133.2,228.5z"/>
	<path class="st1" d="M144.7,227.9v4.2c0,0.5-0.2,1.1-0.6,1.4c-0.4,0.4-0.9,0.6-1.5,0.6h-0.2c-0.6,0-1.2-0.2-1.6-0.6
		c-0.4-0.4-0.7-0.9-0.6-1.5v-4.2h0.8v4.2c-0.1,0.7,0.5,1.4,1.2,1.4c0.1,0,0.2,0,0.3,0c0.7,0.1,1.4-0.4,1.4-1.1c0-0.1,0-0.2,0-0.3
		v-4.2L144.7,227.9z"/>
	<path class="st1" d="M152.8,232.1c0,0.6-0.3,1.1-0.7,1.5c-0.5,0.4-1.1,0.6-1.7,0.5c-0.7,0-1.3-0.3-1.8-0.8
		c-0.5-0.6-0.7-1.4-0.7-2.1v-0.6c0-0.5,0.1-1,0.3-1.5c0.2-0.4,0.5-0.8,0.9-1c0.4-0.2,0.9-0.4,1.3-0.4c0.6,0,1.2,0.2,1.6,0.6
		c0.4,0.4,0.7,1,0.7,1.5h-0.8c0-0.4-0.2-0.8-0.5-1.1c-0.3-0.2-0.6-0.4-1-0.3c-0.5,0-0.9,0.2-1.2,0.6c-0.3,0.5-0.5,1.1-0.4,1.7v0.6
		c0,0.6,0.1,1.1,0.4,1.6c0.3,0.4,0.7,0.6,1.2,0.6c0.4,0,0.7-0.1,1.1-0.3c0.3-0.3,0.5-0.7,0.5-1.1L152.8,232.1z"/>
	<path class="st1" d="M160.2,228.5h-2v5.6h-0.8v-5.6h-2v-0.7h4.8L160.2,228.5z"/>
	<path class="st1" d="M165,231.3c-0.6-0.1-1.1-0.4-1.5-0.8c-0.3-0.3-0.5-0.7-0.5-1.1c0-0.5,0.2-0.9,0.6-1.2c0.4-0.3,1-0.5,1.5-0.5
		c0.4,0,0.8,0.1,1.1,0.2c0.3,0.1,0.6,0.4,0.8,0.7c0.2,0.3,0.3,0.6,0.3,1h-0.8c0-0.3-0.1-0.7-0.4-0.9c-0.3-0.2-0.6-0.4-1-0.3
		c-0.3,0-0.7,0.1-0.9,0.3c-0.2,0.2-0.4,0.5-0.3,0.7c0,0.3,0.1,0.5,0.3,0.6c0.3,0.2,0.7,0.4,1.1,0.5c0.4,0.1,0.8,0.3,1.2,0.5
		c0.3,0.1,0.5,0.4,0.6,0.6c0.1,0.3,0.2,0.5,0.2,0.8c0,0.5-0.2,0.9-0.6,1.2c-0.5,0.3-1,0.5-1.6,0.5c-0.4,0-0.8-0.1-1.2-0.2
		c-0.3-0.1-0.6-0.4-0.9-0.7c-0.2-0.3-0.3-0.6-0.3-1h0.8c0,0.4,0.1,0.7,0.4,0.9c0.3,0.2,0.7,0.3,1.1,0.3c0.4,0,0.7-0.1,1-0.3
		c0.2-0.2,0.4-0.4,0.4-0.7c0-0.3-0.1-0.5-0.3-0.7C165.8,231.6,165.4,231.4,165,231.3z"/>
</g>
<g>
	<path class="st11" d="M137.6,195.6v1h-0.2v-2.4h0.9c0.2,0,0.4,0.1,0.6,0.2c0.3,0.3,0.3,0.8,0,1.1c-0.2,0.1-0.4,0.2-0.6,0.2
		L137.6,195.6z M137.6,195.4h0.6c0.2,0,0.3,0,0.5-0.1c0.1-0.1,0.2-0.2,0.2-0.4c0-0.2,0-0.3-0.2-0.4c-0.1-0.1-0.3-0.2-0.4-0.1h-0.6
		L137.6,195.4z"/>
	<path class="st11" d="M139.5,194.2C139.5,194.2,139.5,194.2,139.5,194.2c0-0.1,0.1-0.1,0.1-0.1c0,0,0.1,0,0.1,0c0,0,0,0.1,0,0.1
		c0,0,0,0.1,0,0.1c0,0-0.1,0-0.1,0c0,0-0.1,0-0.1,0C139.5,194.3,139.5,194.3,139.5,194.2z M139.8,196.6h-0.2v-1.9h0.2V196.6z"/>
	<path class="st11" d="M140.5,194.8v0.3c0.1-0.1,0.2-0.2,0.3-0.3c0.1-0.1,0.2-0.1,0.4-0.1c0.2,0,0.3,0.1,0.4,0.2
		c0.1,0.1,0.2,0.3,0.1,0.5v1.2h-0.2v-1.2c0-0.1,0-0.3-0.1-0.4c-0.1-0.1-0.2-0.1-0.3-0.1c-0.1,0-0.2,0-0.3,0.1
		c-0.1,0.1-0.2,0.2-0.2,0.3v1.3h-0.2v-1.9L140.5,194.8z"/>
	<path class="st11" d="M142.7,195.7l-0.2,0.2v0.7h-0.2V194h0.2v1.7l0.2-0.2l0.7-0.7h0.3l-0.8,0.8l0.9,1.1h-0.3L142.7,195.7z"/>
	<path class="st11" d="M146.6,195.9c0,0.2-0.1,0.4-0.3,0.6c-0.2,0.1-0.4,0.2-0.6,0.2c-0.2,0-0.3,0-0.5-0.1c-0.1-0.1-0.3-0.2-0.3-0.4
		c-0.1-0.2-0.1-0.4-0.1-0.6v-0.4c0-0.2,0-0.4,0.1-0.6c0.1-0.2,0.2-0.3,0.3-0.4c0.4-0.2,0.8-0.2,1.1,0.1c0.2,0.2,0.3,0.4,0.3,0.6
		h-0.2c0-0.3-0.3-0.6-0.6-0.6c0,0,0,0-0.1,0c-0.2,0-0.4,0.1-0.5,0.3c-0.1,0.2-0.2,0.5-0.2,0.7v0.3c0,0.2,0.1,0.5,0.2,0.7
		c0.1,0.2,0.3,0.3,0.5,0.2c0.2,0,0.4,0,0.5-0.1c0.1-0.1,0.2-0.3,0.2-0.5L146.6,195.9z"/>
	<path class="st11" d="M147.3,196.6h-0.2V194h0.2V196.6z"/>
	<path class="st11" d="M149,196.6c0-0.1,0-0.2,0-0.3c-0.1,0.1-0.2,0.2-0.3,0.2c-0.1,0-0.2,0.1-0.4,0.1c-0.2,0-0.3,0-0.4-0.1
		c-0.1-0.1-0.2-0.2-0.2-0.4c0-0.2,0.1-0.3,0.2-0.4c0.2-0.1,0.4-0.2,0.6-0.2h0.4v-0.2c0-0.1,0-0.2-0.1-0.3c-0.1-0.1-0.2-0.1-0.4-0.1
		c-0.1,0-0.3,0-0.4,0.1c-0.1,0.1-0.1,0.2-0.1,0.3h-0.2c0-0.2,0.1-0.3,0.2-0.4c0.1-0.1,0.3-0.2,0.5-0.2c0.2,0,0.4,0,0.5,0.2
		c0.1,0.1,0.2,0.3,0.2,0.4v0.9c0,0.1,0,0.3,0,0.4l0,0L149,196.6z M148.4,196.5c0.1,0,0.3,0,0.4-0.1c0.1-0.1,0.2-0.1,0.2-0.3v-0.4
		h-0.4c-0.2,0-0.3,0-0.5,0.1c-0.1,0.1-0.2,0.2-0.2,0.3c0,0.1,0,0.2,0.1,0.3C148.2,196.5,148.3,196.5,148.4,196.5L148.4,196.5z"/>
	<path class="st11" d="M150.3,196.3l0.5-1.6h0.2l-0.8,2.2v0.1c-0.1,0.2-0.3,0.3-0.5,0.3c0,0-0.1,0-0.1,0v-0.2h0.1
		c0.1,0,0.2,0,0.2-0.1c0.1-0.1,0.1-0.2,0.2-0.3l0.1-0.2l-0.7-1.8h0.2L150.3,196.3z"/>
	<path class="st11" d="M152.3,196.6v-2.4h0.7c0.2,0,0.4,0,0.6,0.2c0.2,0.2,0.3,0.6,0.1,0.8c-0.1,0.1-0.2,0.2-0.3,0.2
		c0.1,0,0.3,0.1,0.4,0.2c0.1,0.1,0.1,0.2,0.1,0.4c0,0.2-0.1,0.4-0.2,0.5c-0.2,0.1-0.4,0.2-0.6,0.2L152.3,196.6z M152.5,195.3h0.6
		c0.1,0,0.3,0,0.4-0.1c0.1-0.1,0.2-0.2,0.1-0.3c0-0.1,0-0.3-0.1-0.4c-0.1-0.1-0.3-0.1-0.5-0.1h-0.5V195.3z M152.5,195.4v1h0.6
		c0.2,0,0.3,0,0.4-0.1c0.1-0.1,0.2-0.2,0.2-0.4c0-0.1-0.1-0.3-0.2-0.4c-0.1-0.1-0.3-0.1-0.4-0.1L152.5,195.4z"/>
	<path class="st11" d="M155.5,196.6c0-0.1,0-0.2,0-0.3c-0.1,0.1-0.2,0.2-0.3,0.2c-0.1,0-0.2,0.1-0.4,0.1c-0.2,0-0.3,0-0.4-0.1
		c-0.1-0.1-0.2-0.2-0.2-0.4c0-0.2,0.1-0.3,0.2-0.4c0.2-0.1,0.4-0.2,0.6-0.2h0.4v-0.2c0-0.1,0-0.2-0.1-0.3c-0.1-0.1-0.2-0.1-0.4-0.1
		c-0.1,0-0.3,0-0.4,0.1c-0.1,0.1-0.1,0.2-0.1,0.3h-0.2c0-0.2,0.1-0.3,0.2-0.4c0.1-0.1,0.3-0.2,0.5-0.2c0.2,0,0.4,0,0.5,0.2
		c0.1,0.1,0.2,0.3,0.2,0.4v0.9c0,0.1,0,0.3,0.1,0.4l0,0L155.5,196.6z M154.9,196.5c0.1,0,0.3,0,0.4-0.1c0.1-0.1,0.2-0.2,0.2-0.3
		v-0.4h-0.4c-0.2,0-0.3,0-0.5,0.1c-0.1,0.1-0.2,0.2-0.2,0.3c0,0.1,0,0.2,0.1,0.3C154.7,196.4,154.8,196.5,154.9,196.5L154.9,196.5z"
		/>
	<path class="st11" d="M157.1,194.9H157c-0.1,0-0.2,0-0.3,0.1c-0.1,0.1-0.2,0.2-0.2,0.3v1.3h-0.2v-1.9h0.2v0.3
		c0.1-0.2,0.3-0.3,0.5-0.3c0,0,0.1,0,0.1,0L157.1,194.9z"/>
	<path class="st11" d="M159.7,196c0-0.1,0-0.2-0.1-0.3c-0.2-0.1-0.3-0.2-0.5-0.2c-0.2,0-0.4-0.1-0.6-0.2c-0.2-0.1-0.2-0.3-0.2-0.5
		c0-0.2,0.1-0.4,0.2-0.5c0.2-0.1,0.4-0.2,0.6-0.2c0.2,0,0.3,0,0.4,0.1c0.1,0.1,0.2,0.2,0.3,0.3c0.1,0.1,0.1,0.2,0.1,0.4h-0.2
		c0-0.2-0.1-0.3-0.2-0.4c-0.1-0.1-0.3-0.2-0.5-0.2c-0.2,0-0.3,0-0.5,0.1c-0.1,0.1-0.2,0.2-0.2,0.3c0,0.1,0.1,0.2,0.2,0.3
		c0.1,0.1,0.3,0.2,0.5,0.2c0.2,0,0.3,0.1,0.5,0.2c0.1,0.1,0.2,0.1,0.3,0.2c0.1,0.1,0.1,0.2,0.1,0.3c0,0.2-0.1,0.4-0.2,0.5
		c-0.2,0.1-0.4,0.2-0.6,0.2c-0.2,0-0.3,0-0.5-0.1c-0.1,0-0.3-0.1-0.3-0.3c-0.1-0.1-0.1-0.3-0.1-0.4h0.2c0,0.2,0.1,0.3,0.2,0.4
		c0.3,0.2,0.7,0.2,1,0C159.7,196.3,159.7,196.1,159.7,196z"/>
	<path class="st11" d="M160.2,195.7c0-0.2,0-0.3,0.1-0.5c0.1-0.1,0.2-0.3,0.3-0.3c0.1-0.1,0.3-0.1,0.4-0.1c0.2,0,0.4,0.1,0.6,0.3
		c0.2,0.2,0.2,0.4,0.2,0.7l0,0c0,0.2,0,0.3-0.1,0.5c-0.1,0.1-0.2,0.3-0.3,0.3c-0.1,0.1-0.3,0.1-0.4,0.1c-0.2,0-0.5-0.1-0.6-0.3
		C160.3,196.2,160.2,195.9,160.2,195.7L160.2,195.7z M160.4,195.7c0,0.2,0.1,0.4,0.2,0.6c0.1,0.1,0.3,0.2,0.4,0.2
		c0.2,0,0.3-0.1,0.4-0.2c0.1-0.2,0.2-0.4,0.2-0.6l0,0c0-0.1,0-0.3-0.1-0.4c0-0.1-0.1-0.2-0.2-0.3c-0.1-0.1-0.2-0.1-0.3-0.1
		c-0.2,0-0.3,0.1-0.4,0.2C160.5,195.3,160.4,195.5,160.4,195.7L160.4,195.7z"/>
	<path class="st11" d="M163.5,196.6c0-0.1,0-0.2,0-0.3c-0.1,0.1-0.2,0.2-0.3,0.2c-0.1,0-0.2,0.1-0.4,0.1c-0.2,0-0.3,0-0.4-0.1
		c-0.1-0.1-0.2-0.2-0.2-0.4c0-0.2,0.1-0.3,0.2-0.4c0.2-0.1,0.4-0.2,0.6-0.2h0.3v-0.2c0-0.1,0-0.2-0.1-0.3c-0.1-0.1-0.2-0.1-0.4-0.1
		c-0.1,0-0.3,0-0.4,0.1c-0.1,0.1-0.1,0.2-0.1,0.3h-0.2c0-0.2,0.1-0.3,0.2-0.4c0.1-0.1,0.3-0.2,0.5-0.2c0.2,0,0.4,0,0.5,0.2
		c0.1,0.1,0.2,0.3,0.2,0.4v0.9c0,0.1,0,0.3,0.1,0.4l0,0L163.5,196.6z M162.8,196.5c0.1,0,0.3,0,0.4-0.1c0.1-0.1,0.2-0.1,0.2-0.3
		v-0.4h-0.4c-0.2,0-0.3,0-0.5,0.1c-0.1,0.1-0.2,0.2-0.2,0.3c0,0.1,0,0.2,0.1,0.3C162.6,196.5,162.7,196.5,162.8,196.5L162.8,196.5z"
		/>
	<path class="st11" d="M165.7,195.7c0,0.2-0.1,0.5-0.2,0.7c-0.1,0.2-0.3,0.3-0.5,0.2c-0.2,0-0.4-0.1-0.6-0.3v0.9h-0.2v-2.6h0.2v0.3
		c0.1-0.2,0.3-0.3,0.6-0.3c0.2,0,0.4,0.1,0.5,0.3C165.6,195.2,165.7,195.4,165.7,195.7L165.7,195.7z M165.5,195.7
		c0-0.2,0-0.4-0.1-0.6c-0.1-0.1-0.2-0.2-0.4-0.2c-0.1,0-0.2,0-0.3,0.1c-0.1,0.1-0.2,0.2-0.2,0.3v0.9c0,0.1,0.1,0.2,0.2,0.2
		c0.1,0.1,0.2,0.1,0.3,0.1c0.2,0,0.3-0.1,0.4-0.2C165.4,196.1,165.5,195.9,165.5,195.7L165.5,195.7z"/>
</g>
<g>
	<path class="st11" d="M54.3,196.6v-2.4H55c0.2,0,0.4,0,0.6,0.2c0.2,0.2,0.3,0.6,0.1,0.8c-0.1,0.1-0.2,0.2-0.3,0.2
		c0.1,0,0.3,0.1,0.3,0.2c0.1,0.1,0.1,0.2,0.1,0.4c0,0.2-0.1,0.4-0.2,0.5c-0.2,0.1-0.4,0.2-0.6,0.2L54.3,196.6z M54.5,195.3h0.6
		c0.1,0,0.3,0,0.4-0.1c0.2-0.2,0.2-0.5,0-0.7c-0.1-0.1-0.3-0.1-0.4-0.1h-0.5V195.3z M54.5,195.4v1h0.6c0.2,0,0.3,0,0.4-0.1
		c0.1-0.1,0.2-0.2,0.2-0.4c0-0.1,0-0.3-0.2-0.4c-0.1-0.1-0.3-0.1-0.4-0.1L54.5,195.4z"/>
	<path class="st11" d="M56.6,196.6h-0.2V194h0.2L56.6,196.6z"/>
	<path class="st11" d="M58.4,196.4c-0.1,0.2-0.4,0.3-0.6,0.3c-0.2,0-0.3,0-0.4-0.2c-0.1-0.1-0.2-0.3-0.2-0.5v-1.2h0.2v1.2
		c0,0.4,0.2,0.5,0.4,0.5c0.3,0,0.5-0.1,0.6-0.4v-1.3h0.2v1.9h-0.2V196.4z"/>
	<path class="st11" d="M59.8,196.7c-0.2,0-0.3,0-0.4-0.1c-0.1-0.1-0.2-0.2-0.3-0.3c-0.1-0.1-0.1-0.3-0.1-0.5v-0.1
		c0-0.2,0-0.3,0.1-0.5c0.1-0.1,0.2-0.2,0.3-0.3c0.1-0.1,0.3-0.1,0.4-0.1c0.2,0,0.4,0.1,0.5,0.2c0.1,0.2,0.2,0.4,0.2,0.6v0.1h-1.3
		l0,0c0,0.2,0.1,0.4,0.2,0.5c0.1,0.1,0.3,0.2,0.5,0.2c0.1,0,0.2,0,0.3-0.1c0.1,0,0.2-0.1,0.2-0.2l0.1,0.1
		C60.3,196.5,60.1,196.7,59.8,196.7z M59.8,194.9c-0.1,0-0.3,0.1-0.4,0.2c-0.1,0.1-0.2,0.3-0.2,0.4h1.1l0,0c0-0.2-0.1-0.3-0.2-0.4
		C60.1,195,59.9,194.9,59.8,194.9L59.8,194.9z"/>
	<path class="st11" d="M63.6,195.9c0,0.2-0.1,0.4-0.3,0.6c-0.2,0.1-0.4,0.2-0.6,0.2c-0.2,0-0.3,0-0.5-0.1c-0.1-0.1-0.3-0.2-0.3-0.4
		c-0.1-0.2-0.1-0.4-0.1-0.6v-0.4c0-0.2,0-0.4,0.1-0.6c0.1-0.2,0.2-0.3,0.3-0.4c0.2-0.1,0.3-0.1,0.5-0.1c0.2,0,0.5,0.1,0.6,0.2
		c0.2,0.2,0.3,0.4,0.3,0.6h-0.2c0-0.3-0.3-0.6-0.6-0.6c0,0,0,0-0.1,0c-0.2,0-0.4,0.1-0.5,0.3c-0.1,0.2-0.2,0.5-0.2,0.7v0.3
		c0,0.2,0.1,0.5,0.2,0.7c0.1,0.2,0.3,0.3,0.5,0.2c0.2,0,0.4,0,0.5-0.1c0.1-0.1,0.2-0.3,0.2-0.5L63.6,195.9z"/>
	<path class="st11" d="M64.2,196.6h-0.2V194h0.2V196.6z"/>
	<path class="st11" d="M66,196.6c0-0.1,0-0.2,0-0.3c-0.1,0.1-0.2,0.2-0.3,0.2c-0.1,0-0.2,0.1-0.3,0.1c-0.2,0-0.3,0-0.4-0.1
		c-0.1-0.1-0.2-0.2-0.2-0.4c0-0.2,0.1-0.3,0.2-0.4c0.2-0.1,0.4-0.2,0.6-0.2H66v-0.2c0-0.1,0-0.2-0.1-0.3c-0.1-0.1-0.2-0.1-0.3-0.1
		c-0.1,0-0.3,0-0.4,0.1c-0.1,0.1-0.1,0.2-0.1,0.3h-0.2c0-0.2,0.1-0.3,0.2-0.4c0.1-0.1,0.3-0.2,0.5-0.2c0.2,0,0.3,0.1,0.5,0.2
		c0.1,0.1,0.2,0.3,0.2,0.4v0.9c0,0.1,0,0.3,0.1,0.4l0,0L66,196.6z M65.3,196.5c0.1,0,0.3,0,0.4-0.1c0.1-0.1,0.2-0.1,0.2-0.3v-0.4
		h-0.4c-0.2,0-0.3,0-0.5,0.1c-0.1,0.1-0.2,0.2-0.2,0.3c0,0.1,0,0.2,0.1,0.3C65.1,196.4,65.2,196.5,65.3,196.5L65.3,196.5z"/>
	<path class="st11" d="M67.2,196.3l0.5-1.6H68l-0.8,2.2v0.1c-0.1,0.2-0.3,0.3-0.5,0.3c0,0-0.1,0-0.2,0v-0.2h0.1c0.1,0,0.2,0,0.2-0.1
		c0.1-0.1,0.1-0.2,0.2-0.3l0.1-0.2l-0.7-1.8h0.2L67.2,196.3z"/>
	<path class="st11" d="M69.2,196.6v-2.4H70c0.2,0,0.4,0,0.6,0.2c0.2,0.2,0.3,0.6,0.1,0.8c-0.1,0.1-0.2,0.2-0.3,0.2
		c0.1,0,0.3,0.1,0.3,0.2c0.1,0.1,0.1,0.2,0.1,0.4c0,0.2-0.1,0.4-0.2,0.5c-0.2,0.1-0.4,0.2-0.6,0.2L69.2,196.6z M69.4,195.3H70
		c0.1,0,0.3,0,0.4-0.1c0.1-0.1,0.2-0.2,0.1-0.3c0-0.1,0-0.3-0.1-0.4c-0.1-0.1-0.3-0.1-0.5-0.1h-0.6L69.4,195.3z M69.4,195.4v1h0.6
		c0.2,0,0.3,0,0.4-0.1c0.1-0.1,0.2-0.2,0.2-0.4c0-0.1-0.1-0.3-0.2-0.4c-0.1-0.1-0.3-0.1-0.4-0.1L69.4,195.4z"/>
	<path class="st11" d="M72.5,196.6c0-0.1,0-0.2,0-0.3c-0.1,0.1-0.2,0.2-0.3,0.2c-0.1,0-0.2,0.1-0.3,0.1c-0.2,0-0.3,0-0.4-0.1
		c-0.2-0.2-0.2-0.5,0-0.7c0,0,0,0,0.1-0.1c0.2-0.1,0.4-0.2,0.6-0.2h0.3v-0.2c0-0.1,0-0.2-0.1-0.3c-0.1-0.1-0.2-0.1-0.4-0.1
		c-0.1,0-0.3,0-0.3,0.1c-0.1,0.1-0.1,0.2-0.1,0.3h-0.2c0-0.2,0.1-0.3,0.2-0.4c0.1-0.1,0.3-0.2,0.5-0.2c0.2,0,0.4,0,0.5,0.2
		c0.1,0.1,0.2,0.3,0.2,0.4v0.9c0,0.1,0,0.3,0,0.4l0,0L72.5,196.6z M71.8,196.5c0.1,0,0.3,0,0.4-0.1c0.1-0.1,0.2-0.2,0.2-0.3v-0.4
		h-0.4c-0.2,0-0.3,0-0.5,0.1c-0.1,0.1-0.2,0.2-0.2,0.3c0,0.1,0,0.2,0.1,0.3C71.6,196.4,71.7,196.5,71.8,196.5L71.8,196.5z"/>
	<path class="st11" d="M74,194.9h-0.1c-0.1,0-0.2,0-0.3,0.1c-0.1,0.1-0.2,0.2-0.2,0.3v1.3h-0.2v-1.9h0.2v0.3
		c0.1-0.2,0.3-0.3,0.5-0.3c0,0,0.1,0,0.1,0L74,194.9z"/>
	<path class="st11" d="M76.7,196c0-0.1,0-0.2-0.1-0.3c-0.2-0.1-0.3-0.2-0.5-0.2c-0.2-0.1-0.4-0.1-0.6-0.3c-0.2-0.1-0.2-0.3-0.2-0.5
		c0-0.2,0.1-0.4,0.2-0.5c0.2-0.1,0.4-0.2,0.6-0.2c0.2,0,0.3,0,0.4,0.1c0.1,0.1,0.2,0.2,0.3,0.3c0.1,0.1,0.1,0.2,0.1,0.4h-0.2
		c0-0.2-0.1-0.3-0.2-0.4c-0.1-0.1-0.3-0.2-0.5-0.2c-0.2,0-0.3,0-0.5,0.1c-0.1,0.1-0.2,0.2-0.2,0.3c0,0.1,0.1,0.2,0.2,0.3
		c0.1,0.1,0.3,0.2,0.5,0.2c0.2,0,0.3,0.1,0.5,0.2c0.1,0.1,0.2,0.1,0.3,0.2c0.1,0.1,0.1,0.2,0.1,0.3c0,0.2-0.1,0.4-0.2,0.5
		c-0.2,0.1-0.4,0.2-0.6,0.2c-0.2,0-0.3,0-0.5-0.1c-0.1,0-0.3-0.1-0.3-0.3c-0.1-0.1-0.1-0.3-0.1-0.4h0.2c0,0.2,0.1,0.3,0.2,0.4
		c0.3,0.2,0.7,0.2,1,0C76.6,196.2,76.7,196.1,76.7,196z"/>
	<path class="st11" d="M77.2,195.7c0-0.2,0-0.3,0.1-0.5c0.1-0.1,0.2-0.3,0.3-0.3c0.1-0.1,0.3-0.1,0.4-0.1c0.2,0,0.4,0.1,0.6,0.3
		c0.2,0.2,0.2,0.4,0.2,0.7l0,0c0,0.2,0,0.3-0.1,0.5c-0.1,0.1-0.2,0.2-0.3,0.3c-0.1,0.1-0.3,0.1-0.4,0.1c-0.2,0-0.5-0.1-0.6-0.3
		C77.3,196.2,77.2,195.9,77.2,195.7L77.2,195.7z M77.4,195.7c0,0.2,0.1,0.4,0.2,0.6c0.1,0.1,0.3,0.2,0.4,0.2c0.2,0,0.3-0.1,0.4-0.2
		c0.1-0.2,0.2-0.4,0.2-0.6l0,0c0-0.1,0-0.3-0.1-0.4c0-0.1-0.1-0.2-0.2-0.3c-0.2-0.2-0.6-0.1-0.8,0.1
		C77.4,195.3,77.4,195.5,77.4,195.7z"/>
	<path class="st11" d="M80.4,196.6c0-0.1,0-0.2,0-0.3c-0.1,0.1-0.2,0.2-0.3,0.2c-0.1,0-0.2,0.1-0.4,0.1c-0.2,0-0.3,0-0.4-0.1
		c-0.1-0.1-0.2-0.2-0.2-0.4c0-0.2,0.1-0.3,0.2-0.4c0.2-0.1,0.4-0.2,0.6-0.2h0.4v-0.2c0-0.1,0-0.2-0.1-0.3c-0.1-0.1-0.2-0.1-0.4-0.1
		c-0.1,0-0.3,0-0.3,0.1c-0.1,0.1-0.1,0.2-0.1,0.3h-0.2c0-0.2,0.1-0.3,0.2-0.4c0.1-0.1,0.3-0.2,0.5-0.2c0.2,0,0.4,0,0.5,0.2
		c0.1,0.1,0.2,0.3,0.2,0.4v0.9c0,0.1,0,0.3,0.1,0.4l0,0L80.4,196.6z M79.8,196.5c0.1,0,0.3,0,0.4-0.1c0.1-0.1,0.2-0.1,0.2-0.3v-0.4
		H80c-0.2,0-0.3,0-0.5,0.1c-0.1,0.1-0.2,0.2-0.2,0.3c0,0.1,0,0.2,0.1,0.3C79.5,196.5,79.7,196.5,79.8,196.5L79.8,196.5z"/>
	<path class="st11" d="M82.6,195.7c0,0.2-0.1,0.5-0.2,0.7c-0.1,0.2-0.3,0.3-0.5,0.2c-0.2,0-0.4-0.1-0.6-0.3v0.9h-0.2v-2.6h0.2v0.3
		c0.1-0.2,0.3-0.3,0.6-0.3c0.2,0,0.4,0.1,0.5,0.3C82.5,195.2,82.6,195.4,82.6,195.7L82.6,195.7z M82.4,195.7c0-0.2,0-0.4-0.2-0.6
		c-0.1-0.1-0.2-0.2-0.4-0.2c-0.1,0-0.2,0-0.3,0.1c-0.1,0.1-0.2,0.2-0.2,0.3v0.9c0,0.1,0.1,0.2,0.2,0.2c0.1,0.1,0.2,0.1,0.3,0.1
		c0.2,0,0.3-0.1,0.4-0.2C82.4,196.1,82.4,195.9,82.4,195.7L82.4,195.7z"/>
</g>
<g>
	<path class="st11" d="M149.1,204.2c0-0.1,0-0.2-0.1-0.3c-0.1-0.1-0.3-0.2-0.4-0.2c-0.2,0-0.4-0.1-0.5-0.3c-0.1-0.1-0.2-0.3-0.2-0.4
		c0-0.2,0.1-0.3,0.2-0.5c0.1-0.1,0.3-0.2,0.5-0.2v-0.4h0.2v0.4c0.2,0,0.3,0.1,0.5,0.2c0.1,0.2,0.2,0.3,0.2,0.5h-0.2
		c0-0.2,0-0.3-0.1-0.4c-0.1-0.1-0.2-0.2-0.4-0.1c-0.1,0-0.3,0-0.4,0.1c-0.1,0.1-0.1,0.2-0.1,0.3c0,0.1,0,0.2,0.1,0.3
		c0.1,0.1,0.3,0.2,0.4,0.2c0.2,0,0.3,0.1,0.4,0.2c0.1,0.1,0.2,0.1,0.2,0.2c0,0.1,0.1,0.2,0.1,0.3c0,0.2-0.1,0.3-0.2,0.4
		c-0.1,0.1-0.3,0.2-0.5,0.2v0.3h-0.2v-0.3c-0.2,0-0.4-0.1-0.5-0.2c-0.1-0.1-0.2-0.3-0.2-0.5h0.2c0,0.2,0,0.3,0.2,0.4
		c0.1,0.1,0.3,0.2,0.4,0.1c0.1,0,0.3,0,0.4-0.1C149.1,204.5,149.2,204.3,149.1,204.2z"/>
	<path class="st11" d="M149.9,203.5l0.1-1.2h1.2v0.2h-1.1l-0.1,0.8c0.1-0.1,0.3-0.1,0.5-0.1c0.2,0,0.4,0.1,0.5,0.2
		c0.1,0.2,0.2,0.4,0.2,0.6c0,0.2-0.1,0.4-0.2,0.6c-0.1,0.1-0.3,0.2-0.6,0.2c-0.2,0-0.4-0.1-0.5-0.2c-0.1-0.1-0.2-0.3-0.2-0.5h0.2
		c0,0.1,0.1,0.3,0.2,0.4c0.1,0.1,0.2,0.1,0.4,0.1c0.2,0,0.3-0.1,0.4-0.2c0.1-0.1,0.2-0.3,0.1-0.5c0-0.2,0-0.3-0.1-0.4
		c-0.1-0.1-0.3-0.2-0.4-0.2c-0.1,0-0.2,0-0.2,0c-0.1,0-0.2,0.1-0.2,0.1L149.9,203.5z"/>
	<path class="st11" d="M153.2,203.7c0,0.3,0,0.6-0.2,0.8c-0.3,0.3-0.7,0.4-1,0.1c0,0-0.1-0.1-0.1-0.1c-0.1-0.2-0.2-0.5-0.2-0.8v-0.4
		c0-0.3,0.1-0.6,0.2-0.8c0.1-0.2,0.3-0.3,0.6-0.3c0.2,0,0.4,0.1,0.6,0.3c0.1,0.2,0.2,0.5,0.2,0.8V203.7z M153,203.3
		c0-0.2,0-0.4-0.1-0.6c-0.2-0.2-0.5-0.3-0.7-0.1c0,0-0.1,0.1-0.1,0.1c-0.1,0.2-0.2,0.4-0.1,0.6v0.5c0,0.2,0,0.5,0.1,0.6
		c0.1,0.1,0.2,0.2,0.4,0.2c0.2,0,0.3-0.1,0.4-0.2c0.1-0.2,0.2-0.4,0.1-0.6V203.3z"/>
	<path class="st11" d="M155.2,203.7c0,0.3,0,0.6-0.2,0.8c-0.1,0.2-0.3,0.3-0.6,0.3c-0.2,0-0.4-0.1-0.6-0.3c-0.1-0.2-0.2-0.5-0.2-0.8
		v-0.4c0-0.3,0.1-0.6,0.2-0.8c0.1-0.2,0.3-0.3,0.6-0.3c0.2,0,0.4,0.1,0.6,0.3c0.1,0.2,0.2,0.5,0.2,0.8L155.2,203.7z M155,203.3
		c0-0.2,0-0.4-0.1-0.6c-0.2-0.2-0.5-0.3-0.7-0.1c0,0-0.1,0.1-0.1,0.1c-0.1,0.2-0.2,0.4-0.1,0.6v0.5c0,0.2,0,0.5,0.1,0.6
		c0.1,0.1,0.2,0.2,0.4,0.2c0.2,0,0.3-0.1,0.4-0.2c0.1-0.2,0.2-0.4,0.1-0.6V203.3z"/>
</g>
<g>
	<path class="st11" d="M66.1,204.2c0-0.1,0-0.2-0.1-0.3c-0.1-0.1-0.3-0.2-0.4-0.2c-0.2,0-0.4-0.1-0.5-0.3c-0.1-0.1-0.2-0.3-0.2-0.4
		c0-0.2,0.1-0.3,0.2-0.5c0.1-0.1,0.3-0.2,0.5-0.2v-0.4h0.2v0.4c0.2,0,0.3,0.1,0.5,0.2c0.1,0.2,0.2,0.3,0.2,0.5H66
		c0-0.2,0-0.3-0.1-0.4c-0.1-0.1-0.2-0.2-0.4-0.1c-0.1,0-0.3,0-0.4,0.1c-0.1,0.1-0.1,0.2-0.1,0.3c0,0.1,0,0.2,0.1,0.3
		c0.1,0.1,0.3,0.2,0.4,0.2c0.2,0,0.3,0.1,0.4,0.2c0.1,0.1,0.2,0.1,0.2,0.2c0.1,0.1,0.1,0.2,0.1,0.3c0,0.2-0.1,0.3-0.2,0.4
		c-0.1,0.1-0.3,0.2-0.5,0.2v0.3h-0.2v-0.3c-0.2,0-0.4-0.1-0.5-0.2c-0.1-0.1-0.2-0.3-0.2-0.5h0.2c0,0.2,0,0.3,0.2,0.4
		c0.1,0.1,0.3,0.2,0.4,0.1c0.1,0,0.3,0,0.4-0.1C66,204.5,66,204.3,66.1,204.2z"/>
	<path class="st11" d="M66.8,203.5l0.1-1.2h1.2v0.2h-1.1l-0.1,0.8c0.1-0.1,0.3-0.1,0.5-0.1c0.2,0,0.4,0.1,0.5,0.2
		c0.1,0.2,0.2,0.4,0.2,0.6c0,0.2-0.1,0.4-0.2,0.6c-0.1,0.1-0.3,0.2-0.6,0.2c-0.2,0-0.4-0.1-0.5-0.2c-0.1-0.1-0.2-0.3-0.2-0.5h0.2
		c0,0.1,0.1,0.3,0.2,0.4c0.1,0.1,0.2,0.1,0.4,0.1c0.2,0,0.3-0.1,0.4-0.2c0.1-0.1,0.2-0.3,0.1-0.5c0-0.2,0-0.3-0.2-0.4
		c-0.1-0.1-0.3-0.2-0.4-0.2c-0.1,0-0.2,0-0.2,0c-0.1,0-0.2,0.1-0.2,0.1L66.8,203.5z"/>
	<path class="st11" d="M70.1,203.7c0,0.3,0,0.6-0.2,0.8c-0.3,0.3-0.7,0.4-1,0.1c0,0-0.1-0.1-0.1-0.1c-0.1-0.2-0.2-0.5-0.2-0.8v-0.4
		c0-0.3,0.1-0.6,0.2-0.8c0.3-0.3,0.7-0.4,1-0.1c0,0,0.1,0.1,0.1,0.1c0.1,0.2,0.2,0.5,0.2,0.8L70.1,203.7z M69.9,203.3
		c0-0.2,0-0.4-0.1-0.6c-0.1-0.1-0.3-0.2-0.4-0.2c-0.2,0-0.3,0.1-0.4,0.2c-0.1,0.2-0.2,0.4-0.2,0.6v0.5c0,0.2,0,0.5,0.2,0.6
		c0.1,0.1,0.2,0.2,0.4,0.2c0.2,0,0.3-0.1,0.4-0.2c0.1-0.2,0.2-0.4,0.2-0.6V203.3z"/>
	<path class="st11" d="M72.1,203.7c0,0.3,0,0.6-0.2,0.8c-0.3,0.3-0.7,0.4-1,0.1c0,0-0.1-0.1-0.1-0.1c-0.1-0.2-0.2-0.5-0.2-0.8v-0.4
		c0-0.3,0.1-0.6,0.2-0.8c0.3-0.3,0.7-0.4,1-0.1c0,0,0.1,0.1,0.1,0.1c0.1,0.2,0.2,0.5,0.2,0.8L72.1,203.7z M71.9,203.3
		c0-0.2,0-0.4-0.1-0.6c-0.1-0.1-0.3-0.2-0.4-0.2c-0.2,0-0.3,0.1-0.4,0.2c-0.1,0.2-0.2,0.4-0.2,0.6v0.5c0,0.2,0,0.5,0.2,0.6
		c0.1,0.1,0.2,0.2,0.4,0.2c0.2,0,0.3-0.1,0.4-0.2c0.1-0.2,0.2-0.4,0.2-0.6V203.3z"/>
</g>
<image style="overflow:visible;enable-background:new    ;" width="1664" height="2057" xlink:href="B00E717E88AE4694.jpeg"  transform="matrix(4.000000e-02 0 0 4.000000e-02 35.64 100.64)">
</image>
<image style="overflow:visible;enable-background:new    ;" width="1664" height="2057" xlink:href="B00E717E88AE469C.jpeg"  transform="matrix(4.000000e-02 0 0 4.000000e-02 112.86 100.64)">
</image>
<path id="_Path_8" class="st11" d="M154.3,406.3c0-3.3-2.6-5.9-5.9-5.9c-3.3,0-5.9,2.6-5.9,5.9c0,3.3,2.6,5.9,5.9,5.9h0
	C151.7,412.2,154.3,409.5,154.3,406.3z"/>
<path id="_Path_9" class="st11" d="M178.4,406.3c0-3.3-2.6-5.9-5.9-5.9c-3.3,0-5.9,2.6-5.9,5.9c0,3.3,2.6,5.9,5.9,5.9h0
	c3.2,0,5.9-2.6,5.9-5.8C178.4,406.4,178.4,406.3,178.4,406.3z"/>
<line class="st15" x1="28.7" y1="388.1" x2="191.2" y2="388.1"/>
<path class="st6" d="M150.1,406.7l0.2-1.3H149v-0.9c0-0.4,0.1-0.7,0.7-0.7h0.7v-1.2c-0.3-0.1-0.7-0.1-1-0.1
	c-0.9-0.1-1.7,0.6-1.7,1.5c0,0.1,0,0.2,0,0.3v1h-1.3v1.3h1.2v3.4c0.5,0,0.9-0.1,1.4-0.2v-3.1L150.1,406.7z"/>
<path class="st6" d="M173.9,409.8h-2.8c-1.2,0-2.2-1-2.2-2.2v-2.5c0-1.2,1-2.2,2.2-2.2h2.8c1.2,0,2.2,1,2.2,2.2v2.5
	C176.1,408.8,175.2,409.8,173.9,409.8C174,409.8,173.9,409.8,173.9,409.8z M171.1,403.3c-0.9,0-1.7,0.7-1.7,1.7c0,0,0,0,0,0v2.5
	c0,0.9,0.7,1.7,1.7,1.7c0,0,0,0,0,0h2.8c0.9,0,1.7-0.7,1.7-1.7c0,0,0,0,0,0V405c0-0.9-0.7-1.7-1.7-1.7c0,0,0,0,0,0H171.1z"/>
<path class="st6" d="M172.5,408.3c-1.1,0-2-0.9-2-2s0.9-2,2-2s2,0.9,2,2S173.6,408.3,172.5,408.3z M172.5,404.8
	c-0.8,0-1.5,0.7-1.5,1.5s0.7,1.5,1.5,1.5s1.5-0.7,1.5-1.5C174,405.5,173.3,404.8,172.5,404.8z"/>
<path class="st6" d="M174.9,404.4c0,0.2-0.2,0.4-0.4,0.4c-0.2,0-0.4-0.2-0.4-0.4s0.2-0.4,0.4-0.4h0
	C174.7,403.9,174.9,404.1,174.9,404.4z"/>
<path id="_Path_10" class="st11" d="M129.2,406.3c0-3.3-2.6-5.9-5.9-5.9c-3.3,0-5.9,2.6-5.9,5.9c0,3.3,2.6,5.9,5.9,5.9h0
	C126.6,412.2,129.2,409.5,129.2,406.3z"/>
<path id="_Path_11" class="st6" d="M123.5,403c-1.1,0-2.1,0.5-2.7,1.5c-0.3,0.6-0.3,1.2-0.1,1.8c0.1,0.2,0.3,0.4,0.5,0.6
	c0.1,0.1,0.2,0.2,0.4,0.1s0.1-0.2,0.1-0.3s0.1-0.2,0-0.3c-0.1-0.1-0.2-0.2-0.2-0.4c-0.1-0.2-0.1-0.4-0.1-0.6c0-0.6,0.4-1.2,0.9-1.5
	c0.9-0.6,2.1-0.4,2.7,0.5c0.2,0.5,0.2,1.1,0,1.6c-0.1,0.5-0.4,0.9-0.8,1.2c-0.4,0.2-1,0-1-0.5c0-0.2,0.1-0.3,0.1-0.4
	s0.1-0.3,0.2-0.5c0.1-0.3,0.2-0.6,0.1-0.9c-0.1-0.5-0.8-0.5-1.1-0.2c-0.2,0.2-0.3,0.4-0.3,0.7c0,0.2,0,0.4,0.1,0.6v0.2
	c0,0.1-0.1,0.2-0.1,0.3c-0.1,0.4-0.2,0.7-0.3,1.1c-0.1,0.3-0.2,0.7-0.2,1v1.4c0.1,0.1,0.3-0.2,0.3-0.3c0.2-0.2,0.3-0.4,0.4-0.7
	c0.1-0.4,0.2-0.7,0.3-1.1c0-0.1,0.1-0.2,0.1-0.3c0.2,0.3,0.5,0.5,0.9,0.5c0.3,0,0.6,0,0.9-0.2c0.6-0.2,1-0.7,1.2-1.3
	c0.2-0.6,0.3-1.3,0.1-2c-0.2-0.6-0.7-1-1.2-1.3c-0.5-0.2-1-0.3-1.5-0.3L123.5,403L123.5,403z"/>
<g>
	<path class="st4" d="M33.6,406.4h-1.4l-0.3,0.9h-0.3l1.2-3.1H33l1.2,3.1h-0.3L33.6,406.4z M32.2,406.1h1.3l-0.6-1.7L32.2,406.1z"/>
	<path class="st4" d="M34.8,407.2h-0.3v-3.3h0.3V407.2z"/>
	<path class="st4" d="M35.8,407.2h-0.3v-3.3h0.3V407.2z"/>
	<path class="st4" d="M38.7,405.1h-0.2c-0.1,0-0.3,0-0.4,0.1c-0.1,0.1-0.2,0.2-0.2,0.4v1.5h-0.2v-2.3h0.2v0.4
		c0.1-0.3,0.4-0.4,0.7-0.4h0.2V405.1z"/>
	<path class="st4" d="M39.1,404.2c0,0,0-0.1,0-0.1c0,0,0.1,0,0.1,0c0,0,0.1,0,0.1,0c0,0,0,0.1,0,0.1c0,0,0,0.1,0,0.1
		c0,0-0.1,0-0.1,0c0,0-0.1,0-0.1,0C39.1,404.3,39.1,404.2,39.1,404.2z M39.4,407.2h-0.3v-2.3h0.3L39.4,407.2z"/>
	<path class="st4" d="M40,406c0-0.3,0.1-0.6,0.2-0.9c0.2-0.2,0.4-0.3,0.7-0.3c0.3,0,0.6,0.1,0.7,0.4v-0.3h0.2v2.3
		c0,0.3-0.1,0.5-0.3,0.7c-0.2,0.2-0.4,0.3-0.7,0.3c-0.2,0-0.3,0-0.5-0.1c-0.1-0.1-0.3-0.2-0.3-0.3l0.1-0.1c0.2,0.2,0.4,0.3,0.7,0.3
		c0.2,0,0.4-0.1,0.5-0.2c0.1-0.1,0.2-0.3,0.2-0.5v-0.3c-0.2,0.2-0.4,0.4-0.7,0.3c-0.3,0-0.5-0.1-0.7-0.3C40,406.7,40,406.4,40,406
		L40,406z M40.2,406c0,0.2,0,0.5,0.2,0.7c0.1,0.2,0.3,0.3,0.5,0.3c0.3,0,0.6-0.2,0.7-0.4v-1.1c0-0.1-0.1-0.3-0.3-0.3
		c-0.1-0.1-0.3-0.1-0.4-0.1c-0.2,0-0.4,0.1-0.5,0.3C40.3,405.5,40.2,405.8,40.2,406L40.2,406z"/>
	<path class="st4" d="M42.8,405.3c0.1-0.1,0.2-0.2,0.3-0.3c0.1-0.1,0.3-0.1,0.4-0.1c0.2,0,0.4,0.1,0.6,0.2c0.1,0.2,0.2,0.4,0.2,0.6
		v1.5H44v-1.5c0-0.2,0-0.3-0.1-0.5c-0.1-0.1-0.3-0.2-0.4-0.1c-0.2,0-0.3,0.1-0.4,0.1c-0.1,0.1-0.2,0.2-0.3,0.4v1.6h-0.2v-3.3h0.2
		L42.8,405.3z"/>
	<path class="st4" d="M45.4,404.3v0.6h0.5v0.2h-0.5v1.6c0,0.1,0,0.2,0.1,0.3c0.1,0.1,0.1,0.1,0.2,0.1h0.2v0.2c-0.1,0-0.2,0-0.3,0
		c-0.1,0-0.3,0-0.4-0.1c-0.1-0.1-0.1-0.3-0.1-0.5v-1.6h-0.4v-0.2h0.4v-0.6L45.4,404.3z"/>
	<path class="st4" d="M47.8,406.6c0-0.1-0.1-0.2-0.2-0.3c-0.1-0.1-0.3-0.2-0.5-0.2c-0.2,0-0.3-0.1-0.5-0.1c-0.1,0-0.2-0.1-0.2-0.2
		c-0.1-0.1-0.1-0.2-0.1-0.3c0-0.2,0.1-0.3,0.2-0.5c0.2-0.1,0.4-0.2,0.6-0.2c0.2,0,0.4,0.1,0.6,0.2c0.2,0.1,0.2,0.3,0.2,0.5h-0.3
		c0-0.1-0.1-0.3-0.2-0.3c-0.1-0.1-0.3-0.1-0.4-0.1c-0.1,0-0.3,0-0.4,0.1c-0.2,0.1-0.2,0.3-0.1,0.5c0,0,0.1,0.1,0.1,0.1
		c0.1,0.1,0.3,0.2,0.5,0.2c0.2,0,0.3,0.1,0.5,0.2c0.1,0.1,0.2,0.1,0.2,0.2c0.1,0.1,0.1,0.2,0.1,0.3c0,0.2-0.1,0.4-0.2,0.5
		c-0.4,0.2-0.9,0.2-1.3,0c-0.2-0.1-0.3-0.3-0.2-0.5h0.3c0,0.1,0.1,0.3,0.2,0.4c0.1,0.1,0.3,0.1,0.5,0.1c0.2,0,0.3,0,0.4-0.1
		C47.7,406.9,47.8,406.8,47.8,406.6z"/>
	<path class="st4" d="M50.8,405.1h-0.2c-0.1,0-0.3,0-0.4,0.1c-0.1,0.1-0.2,0.2-0.2,0.4v1.5h-0.3v-2.3h0.2v0.4
		c0.1-0.3,0.4-0.4,0.7-0.4h0.2L50.8,405.1z"/>
	<path class="st4" d="M52,407.3c-0.2,0-0.4,0-0.5-0.1c-0.2-0.1-0.3-0.2-0.4-0.4c-0.1-0.2-0.1-0.4-0.1-0.6V406c0-0.2,0-0.4,0.1-0.6
		c0.1-0.2,0.2-0.3,0.4-0.4c0.1-0.1,0.3-0.2,0.5-0.1c0.3,0,0.5,0.1,0.7,0.3c0.2,0.2,0.3,0.5,0.2,0.8v0.1h-1.7v0
		c0,0.2,0.1,0.5,0.2,0.7c0.1,0.2,0.3,0.3,0.6,0.3c0.1,0,0.2,0,0.4-0.1c0.1-0.1,0.2-0.1,0.3-0.2l0.2,0.1
		C52.7,407.1,52.3,407.3,52,407.3z M52,405.1c-0.2,0-0.4,0.1-0.5,0.2c-0.1,0.2-0.2,0.4-0.2,0.6h1.4l0,0c0-0.2-0.1-0.4-0.2-0.5
		C52.3,405.2,52.2,405.1,52,405.1L52,405.1z"/>
	<path class="st4" d="M54.8,406.6c0-0.1-0.1-0.2-0.2-0.3c-0.1-0.1-0.3-0.2-0.5-0.2c-0.2,0-0.3-0.1-0.5-0.1c-0.1,0-0.2-0.1-0.2-0.2
		c-0.1-0.1-0.1-0.2-0.1-0.3c0-0.2,0.1-0.3,0.2-0.5c0.2-0.1,0.4-0.2,0.6-0.2c0.2,0,0.4,0.1,0.6,0.2c0.2,0.1,0.2,0.3,0.2,0.5h-0.2
		c0-0.1-0.1-0.3-0.2-0.3c-0.1-0.1-0.3-0.1-0.4-0.1c-0.1,0-0.3,0-0.4,0.1c-0.1,0.1-0.2,0.2-0.2,0.3c0,0.1,0,0.2,0.1,0.3
		c0.1,0.1,0.3,0.2,0.5,0.2c0.2,0,0.3,0.1,0.5,0.2c0.1,0,0.2,0.1,0.3,0.2c0.1,0.1,0.1,0.2,0.1,0.3c0,0.2-0.1,0.4-0.2,0.5
		c-0.2,0.1-0.4,0.2-0.6,0.2c-0.2,0-0.5-0.1-0.7-0.2c-0.2-0.1-0.3-0.3-0.2-0.5h0.2c0,0.1,0.1,0.3,0.2,0.4c0.1,0.1,0.3,0.1,0.5,0.1
		c0.2,0,0.3,0,0.4-0.1C54.7,406.9,54.8,406.8,54.8,406.6z"/>
	<path class="st4" d="M56.5,407.3c-0.2,0-0.4,0-0.5-0.1c-0.2-0.1-0.3-0.2-0.4-0.4c-0.1-0.2-0.1-0.4-0.1-0.6V406c0-0.2,0-0.4,0.1-0.6
		c0.1-0.2,0.2-0.3,0.4-0.4c0.1-0.1,0.3-0.2,0.5-0.1c0.3,0,0.5,0.1,0.7,0.3c0.2,0.2,0.3,0.5,0.2,0.8v0.1h-1.7v0
		c0,0.2,0.1,0.5,0.2,0.7c0.1,0.2,0.3,0.3,0.6,0.3c0.1,0,0.2,0,0.4-0.1c0.1-0.1,0.2-0.1,0.3-0.2l0.2,0.1
		C57.2,407.1,56.9,407.3,56.5,407.3z M56.5,405.1c-0.2,0-0.4,0.1-0.5,0.2c-0.1,0.2-0.2,0.4-0.2,0.6h1.4l0,0c0-0.2-0.1-0.4-0.2-0.5
		C56.9,405.2,56.7,405.1,56.5,405.1L56.5,405.1z"/>
	<path class="st4" d="M59,405.1h-0.2c-0.1,0-0.3,0-0.4,0.1c-0.1,0.1-0.2,0.2-0.2,0.4v1.5h-0.2v-2.3h0.2v0.4c0.1-0.3,0.4-0.4,0.7-0.4
		H59L59,405.1z"/>
	<path class="st4" d="M60.2,406.9l0.7-2h0.3l-0.9,2.3h-0.2l-0.9-2.3h0.2L60.2,406.9z"/>
	<path class="st4" d="M62.4,407.3c-0.4,0-0.7-0.2-0.9-0.5c-0.1-0.2-0.1-0.4-0.1-0.6V406c0-0.2,0-0.4,0.1-0.6
		c0.1-0.2,0.2-0.3,0.4-0.4c0.2-0.1,0.3-0.1,0.5-0.1c0.3,0,0.5,0.1,0.7,0.3c0.2,0.2,0.3,0.5,0.2,0.8v0.1h-1.6v0
		c0,0.2,0.1,0.5,0.2,0.7c0.1,0.2,0.3,0.3,0.6,0.3c0.1,0,0.3,0,0.4-0.1c0.1-0.1,0.2-0.1,0.3-0.2l0.2,0.1
		C63.1,407.1,62.7,407.3,62.4,407.3z M62.4,405.1c-0.2,0-0.4,0.1-0.5,0.2c-0.1,0.2-0.2,0.4-0.2,0.6h1.4l0,0c0-0.2-0.1-0.4-0.2-0.5
		C62.8,405.2,62.6,405.1,62.4,405.1L62.4,405.1z"/>
	<path class="st4" d="M63.7,406c0-0.3,0.1-0.6,0.2-0.9c0.2-0.2,0.4-0.3,0.7-0.3c0.3,0,0.6,0.1,0.7,0.4v-1.3h0.2v3.3h-0.2v-0.3
		c-0.2,0.2-0.4,0.4-0.7,0.4c-0.3,0-0.5-0.1-0.7-0.3C63.8,406.6,63.7,406.3,63.7,406L63.7,406z M64,406c0,0.2,0,0.5,0.2,0.7
		c0.1,0.2,0.3,0.3,0.5,0.3c0.3,0,0.6-0.2,0.7-0.4v-1.1c-0.1-0.3-0.4-0.5-0.7-0.5c-0.2,0-0.4,0.1-0.5,0.3C64,405.5,63.9,405.8,64,406
		L64,406z"/>
</g>
<rect x="185.8" y="19.1" width="1.4" height="3.3"/>
<rect x="187.7" y="19.1" width="1.4" height="3.3"/>
<rect x="189.5" y="19.1" width="1.4" height="3.3"/>
<rect x="191.4" y="19.1" width="1.4" height="3.3"/>
<rect x="193.2" y="19.7" width="0.7" height="2"/>
<path d="M177.1,21.9c-0.4,0-0.7,0.3-0.7,0.7c0,0.4,0.3,0.7,0.7,0.7c0.4,0,0.7-0.3,0.7-0.7c0,0,0,0,0,0
	C177.7,22.2,177.5,21.9,177.1,21.9z"/>
<path d="M178.9,20.5c-1.1-0.8-2.5-0.8-3.6,0c-0.2,0.2-0.3,0.5-0.1,0.7c0,0,0,0,0,0c0.1,0.2,0.4,0.2,0.6,0.1c0.8-0.5,1.8-0.5,2.6,0
	c0.2,0.1,0.5,0.1,0.6-0.1C179.1,21,179.1,20.7,178.9,20.5z"/>
<path d="M180.2,19.3c-1.8-1.5-4.4-1.5-6.2,0c-0.2,0.2-0.2,0.5,0,0.7c0,0,0,0,0,0c0.1,0.2,0.4,0.2,0.5,0.1c0,0,0.1-0.1,0.1-0.1
	c1.5-1.2,3.5-1.2,5,0c0.2,0.2,0.4,0.2,0.6,0C180.4,19.8,180.4,19.4,180.2,19.3z"/>
<g>
	<path d="M33.3,20.6c0,0.5-0.1,0.9-0.3,1.3c-0.2,0.3-0.6,0.5-1,0.5c-0.4,0-0.8-0.1-1-0.5c-0.2-0.4-0.4-0.8-0.3-1.3v-0.8
		c0-0.5,0.1-0.9,0.3-1.3c0.2-0.3,0.6-0.5,1-0.5c0.4,0,0.8,0.1,1,0.4c0.2,0.4,0.4,0.8,0.3,1.3V20.6z M33,19.8c0-0.4-0.1-0.8-0.2-1.1
		c-0.3-0.4-0.8-0.5-1.2-0.2c-0.1,0.1-0.2,0.1-0.2,0.2c-0.2,0.3-0.3,0.7-0.2,1.1v0.8c0,0.4,0.1,0.8,0.2,1.1c0.2,0.2,0.4,0.4,0.7,0.4
		c0.3,0,0.5-0.1,0.7-0.4c0.2-0.3,0.3-0.7,0.2-1.1V19.8z"/>
	<path d="M36.5,19.2c0,0.2-0.1,0.4-0.2,0.6c-0.1,0.2-0.3,0.3-0.5,0.4c0.2,0.1,0.4,0.2,0.6,0.4c0.1,0.2,0.2,0.4,0.2,0.6
		c0,0.3-0.1,0.6-0.4,0.8c-0.6,0.4-1.4,0.4-1.9,0c-0.2-0.2-0.4-0.5-0.4-0.8c0-0.2,0.1-0.5,0.2-0.6c0.1-0.2,0.3-0.3,0.6-0.4
		c-0.2-0.1-0.4-0.2-0.5-0.4c-0.1-0.2-0.2-0.4-0.2-0.6c0-0.3,0.1-0.6,0.3-0.8c0.2-0.2,0.6-0.3,0.9-0.3c0.3,0,0.6,0.1,0.9,0.3
		C36.4,18.6,36.6,18.9,36.5,19.2z M36.3,21.2c0-0.2-0.1-0.5-0.3-0.6c-0.2-0.2-0.4-0.3-0.7-0.2c-0.3,0-0.5,0.1-0.7,0.2
		c-0.2,0.2-0.3,0.4-0.3,0.6c0,0.2,0.1,0.5,0.3,0.6c0.2,0.2,0.5,0.3,0.7,0.2c0.3,0,0.5-0.1,0.7-0.2C36.2,21.7,36.3,21.4,36.3,21.2z
		 M36.2,19.2c0-0.2-0.1-0.4-0.2-0.6c-0.4-0.3-0.9-0.3-1.3,0c-0.2,0.2-0.3,0.4-0.3,0.6c0,0.2,0.1,0.4,0.2,0.6c0.4,0.3,0.9,0.3,1.3,0
		C36.1,19.6,36.2,19.4,36.2,19.2z"/>
	<path d="M37.4,22.1c0-0.1,0-0.1,0.1-0.2c0,0,0.1-0.1,0.2-0.1c0.1,0,0.1,0,0.2,0.1c0,0,0.1,0.1,0.1,0.2c0,0.1,0,0.1-0.1,0.2
		c0,0-0.1,0.1-0.2,0.1c-0.1,0-0.2,0-0.2-0.1C37.4,22.2,37.4,22.2,37.4,22.1z"/>
	<path d="M41.3,20.6c0,0.5-0.1,0.9-0.3,1.3c-0.2,0.3-0.6,0.5-1,0.5c-0.4,0-0.8-0.1-1-0.5c-0.2-0.4-0.4-0.8-0.3-1.3v-0.8
		c0-0.5,0.1-0.9,0.3-1.3c0.4-0.5,1.2-0.6,1.7-0.2c0.1,0,0.1,0.1,0.2,0.2c0.2,0.4,0.4,0.8,0.3,1.3L41.3,20.6z M40.9,19.8
		c0-0.4-0.1-0.8-0.2-1.1c-0.1-0.2-0.4-0.4-0.7-0.4c-0.3,0-0.6,0.1-0.7,0.4c-0.2,0.3-0.3,0.7-0.2,1.1v0.8c0,0.4,0.1,0.8,0.2,1.1
		c0.1,0.2,0.4,0.4,0.7,0.4c0.3,0,0.5-0.1,0.7-0.4c0.2-0.3,0.3-0.7,0.2-1.1V19.8z"/>
	<path d="M44.5,20.6c0,0.5-0.1,0.9-0.3,1.3c-0.2,0.3-0.6,0.5-1,0.5c-0.4,0-0.8-0.1-1-0.5c-0.2-0.4-0.4-0.8-0.3-1.3v-0.8
		c0-0.5,0.1-0.9,0.3-1.3c0.4-0.5,1.2-0.6,1.7-0.2c0.1,0,0.1,0.1,0.2,0.2c0.2,0.4,0.4,0.8,0.3,1.3L44.5,20.6z M44.2,19.8
		c0-0.4-0.1-0.8-0.2-1.1c-0.1-0.2-0.4-0.4-0.7-0.4c-0.3,0-0.6,0.1-0.7,0.4c-0.2,0.3-0.3,0.7-0.2,1.1v0.8c0,0.4,0.1,0.8,0.2,1.1
		c0.1,0.2,0.4,0.4,0.7,0.4c0.3,0,0.5-0.1,0.7-0.4c0.2-0.3,0.3-0.7,0.2-1.1V19.8z"/>
</g>
</svg>
