<?xml version="1.0" encoding="utf-8"?>
<!-- Generator: Adobe Illustrator 22.1.0, SVG Export Plug-In . SVG Version: 6.00 Build 0)  -->
<svg version="1.1" id="Layer_1" xmlns="http://www.w3.org/2000/svg" xmlns:xlink="http://www.w3.org/1999/xlink" x="0px" y="0px"
	 viewBox="0 0 279.5 485.4" style="enable-background:new 0 0 279.5 485.4;" xml:space="preserve">
<style type="text/css">
	.st0{fill:#3A466D;}
	.st1{clip-path:url(#SVGID_2_);}
	.st2{clip-path:url(#SVGID_4_);}
	.st3{clip-path:url(#SVGID_6_);}
	.st4{clip-path:url(#SVGID_8_);}
	.st5{clip-path:url(#SVGID_10_);}
	.st6{clip-path:url(#SVGID_12_);}
	.st7{clip-path:url(#SVGID_14_);fill:#010101;}
	.st8{clip-path:url(#SVGID_14_);fill:none;stroke:#221F20;stroke-width:0.6325;stroke-miterlimit:10;}
	.st9{clip-path:url(#SVGID_14_);fill:none;stroke:#010101;stroke-width:0.6325;stroke-miterlimit:10;}
	.st10{clip-path:url(#SVGID_14_);fill:#090A0A;}
	.st11{clip-path:url(#SVGID_14_);fill:#FFFFFF;}
	
		.st12{clip-path:url(#SVGID_14_);fill:none;stroke:#221F20;stroke-width:0.6325;stroke-linecap:round;stroke-linejoin:round;stroke-miterlimit:10;}
	.st13{clip-path:url(#SVGID_14_);fill:none;stroke:#221F20;stroke-width:0.1581;stroke-miterlimit:10;}
	.st14{clip-path:url(#SVGID_14_);fill:#C4C1C4;}
	.st15{clip-path:url(#SVGID_14_);fill:#FED476;}
	.st16{clip-path:url(#SVGID_14_);fill:#221F20;}
	.st17{clip-path:url(#SVGID_14_);fill:#627DBE;}
	.st18{clip-path:url(#SVGID_14_);fill:none;stroke:#627DBE;stroke-width:0.6325;stroke-miterlimit:10;}
	.st19{clip-path:url(#SVGID_16_);fill:none;stroke:#62595B;stroke-width:0.8962;stroke-linecap:round;stroke-miterlimit:22.926;}
	
		.st20{clip-path:url(#SVGID_16_);fill:none;stroke:#383436;stroke-width:0.3162;stroke-linecap:round;stroke-linejoin:round;stroke-miterlimit:2.414;}
	.st21{clip-path:url(#SVGID_18_);fill:none;stroke:#221F20;stroke-width:0.1581;stroke-miterlimit:10;}
	
		.st22{clip-path:url(#SVGID_18_);fill:none;stroke:#020303;stroke-width:0.3162;stroke-linecap:round;stroke-linejoin:round;stroke-miterlimit:10;}
	.st23{clip-path:url(#SVGID_18_);fill:none;stroke:#5A5A5C;stroke-width:0.3586;}
	
		.st24{clip-path:url(#SVGID_18_);fill:none;stroke:#383436;stroke-width:0.215;stroke-linecap:round;stroke-linejoin:round;stroke-miterlimit:2.414;}
	
		.st25{clip-path:url(#SVGID_20_);fill:none;stroke:#383436;stroke-width:0.3162;stroke-linecap:round;stroke-linejoin:round;stroke-miterlimit:2.414;}
	.st26{clip-path:url(#SVGID_22_);fill:none;stroke:#221F20;stroke-width:0.1581;stroke-miterlimit:10;}
	
		.st27{clip-path:url(#SVGID_22_);fill:none;stroke:#221F20;stroke-width:0.3162;stroke-linecap:round;stroke-linejoin:round;stroke-miterlimit:10;}
	.st28{clip-path:url(#SVGID_22_);fill-rule:evenodd;clip-rule:evenodd;fill:#221F20;}
	
		.st29{clip-path:url(#SVGID_22_);fill:none;stroke:#221F20;stroke-width:0.3586;stroke-linecap:round;stroke-linejoin:round;stroke-miterlimit:22.926;}
	.st30{clip-path:url(#SVGID_22_);fill-rule:evenodd;clip-rule:evenodd;fill:#FFFFFF;}
	.st31{clip-path:url(#SVGID_22_);fill:none;stroke:#221F20;stroke-width:0.3586;stroke-miterlimit:22.926;}
	.st32{clip-path:url(#SVGID_22_);fill:#221F20;}
	.st33{clip-path:url(#SVGID_22_);fill:#627DBE;}
	.st34{clip-path:url(#SVGID_4_);fill:#454545;}
	.st35{clip-path:url(#SVGID_24_);fill:none;stroke:#454545;stroke-width:0.1581;stroke-miterlimit:10;}
	.st36{clip-path:url(#SVGID_26_);}
	.st37{fill:#4D4B4C;}
	.st38{fill:#266785;}
	.st39{fill:#454545;}
	.st40{clip-path:url(#SVGID_30_);}
	.st41{clip-path:url(#SVGID_34_);}
	.st42{clip-path:url(#SVGID_38_);}
	.st43{opacity:0.4;clip-path:url(#SVGID_42_);}
	.st44{clip-path:url(#SVGID_44_);fill:#D2D2D0;}
	.st45{clip-path:url(#SVGID_42_);fill:#3A383D;}
	.st46{clip-path:url(#SVGID_42_);fill:#33BEBA;}
	.st47{clip-path:url(#SVGID_46_);}
	.st48{opacity:0.4;clip-path:url(#SVGID_50_);}
	.st49{clip-path:url(#SVGID_52_);fill:#D2D2D0;}
	.st50{clip-path:url(#SVGID_50_);fill:#3A383D;}
	.st51{clip-path:url(#SVGID_50_);fill:#33BEBA;}
	.st52{clip-path:url(#SVGID_54_);}
	.st53{fill:none;stroke:#444545;stroke-width:0.25;stroke-miterlimit:10;}
	.st54{fill:#444545;}
	.st55{fill:none;stroke:#707173;stroke-width:0.5;stroke-miterlimit:10;}
	.st56{fill:none;stroke:#FFFFFF;stroke-width:15;stroke-miterlimit:10;}
	.st57{fill:#E6D2C4;}
	.st58{fill:none;stroke:#3A466E;stroke-width:5.9908;stroke-miterlimit:10;}
	.st59{opacity:0.6;fill:url(#SVGID_57_);}
	.st60{opacity:0.6;fill:url(#SVGID_58_);}
	.st61{opacity:0.6;fill:url(#SVGID_59_);}
	.st62{clip-path:url(#SVGID_61_);}
	.st63{filter:url(#Adobe_OpacityMaskFilter);}
	.st64{fill:url(#SVGID_65_);}
	.st65{opacity:0.33;mask:url(#SVGID_64_);fill:url(#SVGID_66_);}
	.st66{fill:url(#SVGID_67_);}
	.st67{fill:url(#SVGID_68_);}
	.st68{fill:url(#SVGID_69_);}
	.st69{fill:url(#SVGID_70_);}
	.st70{fill:url(#SVGID_71_);}
	.st71{fill:url(#SVGID_72_);}
	.st72{fill:#231F20;}
	.st73{fill:url(#SVGID_73_);}
	.st74{fill:#CCC8C8;}
	.st75{filter:url(#Adobe_OpacityMaskFilter_1_);}
	.st76{fill:url(#SVGID_75_);}
	.st77{opacity:0.33;mask:url(#SVGID_74_);fill:url(#SVGID_76_);}
	.st78{fill:#FFFFFF;}
	.st79{fill:none;stroke:#666666;stroke-width:9.660199e-02;stroke-miterlimit:10;}
	.st80{fill:#666666;}
	.st81{fill:none;stroke:#676767;stroke-width:0.1078;stroke-miterlimit:10;}
	.st82{fill:#676767;}
	.st83{clip-path:url(#SVGID_78_);}
	.st84{clip-path:url(#SVGID_84_);}
	.st85{clip-path:url(#SVGID_88_);}
	.st86{clip-path:url(#SVGID_92_);}
	.st87{clip-path:url(#SVGID_96_);}
	.st88{clip-path:url(#SVGID_100_);}
	.st89{clip-path:url(#SVGID_104_);}
	.st90{clip-path:url(#SVGID_108_);}
	.st91{clip-path:url(#SVGID_112_);}
	.st92{clip-path:url(#SVGID_116_);}
	.st93{clip-path:url(#SVGID_120_);}
	.st94{fill:#BDD3CA;}
	.st95{fill:none;stroke:#666666;stroke-width:7.075290e-02;stroke-miterlimit:10;}
	.st96{clip-path:url(#SVGID_124_);}
	.st97{fill:none;stroke:#676767;stroke-width:5.616060e-02;stroke-miterlimit:10;}
	.st98{opacity:0.6;fill:url(#SVGID_127_);}
	.st99{filter:url(#Adobe_OpacityMaskFilter_2_);}
	.st100{fill:url(#SVGID_129_);}
	.st101{opacity:0.33;mask:url(#SVGID_128_);fill:url(#SVGID_130_);}
	.st102{fill:url(#SVGID_131_);}
	.st103{fill:url(#SVGID_132_);}
	.st104{fill:url(#SVGID_133_);}
	.st105{fill:url(#SVGID_134_);}
	.st106{fill:url(#SVGID_135_);}
	.st107{fill:url(#SVGID_136_);}
	.st108{fill:url(#SVGID_137_);}
	.st109{fill:#FFFFFF;stroke:#010101;stroke-width:0.1475;stroke-miterlimit:10;}
	.st110{opacity:0.2;fill:#D4C2BB;}
	.st111{fill:#D4C2BB;}
	.st112{fill:#787878;}
	.st113{fill:#9F6A5F;}
	.st114{fill:#9F6A5F;stroke:#9E6960;stroke-width:0.174;stroke-miterlimit:10;}
	.st115{fill:none;stroke:#9E6960;stroke-width:0.8699;stroke-miterlimit:10;}
	.st116{fill:#787878;stroke:#CFA291;stroke-width:6.579191e-02;stroke-miterlimit:10;}
	.st117{fill:#F2E4DA;}
	.st118{fill:none;stroke:#FFFFFF;stroke-width:0.25;stroke-miterlimit:10;}
	.st119{opacity:0.57;}
	.st120{filter:url(#Adobe_OpacityMaskFilter_3_);}
	.st121{mask:url(#SVGID_140_);}
	.st122{fill:#595A5C;}
	.st123{fill:#010101;}
	.st124{fill:none;}
	.st125{opacity:0.27;fill:#FFFFFF;}
	.st126{clip-path:url(#XMLID_24_);fill:#FFFFFF;stroke:#010101;stroke-width:6.493074e-02;stroke-miterlimit:10;}
	.st127{fill:none;stroke:#666666;stroke-width:3.437774e-02;stroke-miterlimit:10;}
	.st128{fill:#3F3F3F;}
	.st129{fill:none;stroke:#3F3F3F;stroke-width:3.437774e-02;stroke-miterlimit:10;}
	.st130{fill:#FCDFE4;}
	.st131{fill:#E4BFA3;}
	.st132{fill:none;stroke:#666666;stroke-width:0.1161;stroke-miterlimit:10;}
	.st133{filter:url(#Adobe_OpacityMaskFilter_4_);}
	.st134{mask:url(#SVGID_141_);}
	.st135{clip-path:url(#XMLID_25_);fill:#FFFFFF;stroke:#010101;stroke-width:0.2192;stroke-miterlimit:10;}
	.st136{fill:none;stroke:#3F3F3F;stroke-width:0.1161;stroke-miterlimit:10;}
	.st137{filter:url(#Adobe_OpacityMaskFilter_5_);}
	.st138{mask:url(#SVGID_142_);}
	.st139{clip-path:url(#XMLID_26_);fill:#FFFFFF;stroke:#010101;stroke-width:0.1769;stroke-miterlimit:10;}
	.st140{fill:none;stroke:#666666;stroke-width:0.125;stroke-miterlimit:10;}
	.st141{clip-path:url(#SVGID_146_);fill:none;}
	.st142{filter:url(#Adobe_OpacityMaskFilter_6_);}
	.st143{mask:url(#SVGID_147_);}
	.st144{clip-path:url(#XMLID_27_);fill:#FFFFFF;stroke:#010101;stroke-width:0.1769;stroke-miterlimit:10;}
	.st145{clip-path:url(#SVGID_149_);fill:none;}
	.st146{font-family:'Roboto-Light';}
	.st147{font-size:3.2502px;}
	.st148{font-family:'Roboto-Medium';}
	.st149{font-size:8.1439px;}
	.st150{filter:url(#Adobe_OpacityMaskFilter_7_);}
	.st151{mask:url(#SVGID_150_);}
	.st152{clip-path:url(#XMLID_28_);fill:#FFFFFF;stroke:#010101;stroke-width:0.1769;stroke-miterlimit:10;}
	.st153{font-size:3.5002px;}
	.st154{font-family:'Roboto-Regular';}
	.st155{font-size:8.7703px;}
	.st156{font-size:3.4406px;}
	.st157{clip-path:url(#SVGID_154_);fill:none;}
	.st158{font-size:4.411px;}
	.st159{font-size:5.8828px;}
	.st160{clip-path:url(#SVGID_156_);}
	.st161{clip-path:url(#SVGID_158_);}
	.st162{clip-path:url(#SVGID_160_);}
	.st163{opacity:0.8;clip-path:url(#SVGID_164_);}
	.st164{clip-path:url(#SVGID_166_);}
	.st165{clip-path:url(#SVGID_168_);fill:url(#SVGID_169_);}
	.st166{opacity:0.7;clip-path:url(#SVGID_164_);}
	.st167{clip-path:url(#SVGID_171_);}
	.st168{clip-path:url(#SVGID_173_);fill:url(#SVGID_174_);}
	.st169{opacity:0.47;clip-path:url(#SVGID_164_);}
	.st170{clip-path:url(#SVGID_176_);}
	.st171{opacity:0.4;clip-path:url(#SVGID_178_);}
	.st172{clip-path:url(#SVGID_180_);fill:none;stroke:#FFFFFF;stroke-width:0.6908;stroke-miterlimit:10;}
	.st173{clip-path:url(#SVGID_182_);}
	.st174{clip-path:url(#SVGID_184_);fill:url(#SVGID_185_);}
	.st175{clip-path:url(#SVGID_160_);fill:#E62C90;}
	.st176{clip-path:url(#SVGID_160_);fill:#1B9FDA;}
	.st177{clip-path:url(#SVGID_160_);fill:#FFFFFF;}
	.st178{clip-path:url(#SVGID_187_);fill:#FFFFFF;}
	.st179{clip-path:url(#SVGID_187_);fill:#E62C90;}
	.st180{clip-path:url(#SVGID_187_);fill:#1B9FDA;}
	.st181{clip-path:url(#SVGID_187_);fill:#F6F7F7;}
	.st182{opacity:0.9;clip-path:url(#SVGID_187_);}
	.st183{clip-path:url(#SVGID_189_);}
	.st184{clip-path:url(#SVGID_191_);fill:url(#SVGID_192_);}
	.st185{clip-path:url(#SVGID_194_);fill:#FFFFFF;}
	.st186{clip-path:url(#SVGID_194_);fill-rule:evenodd;clip-rule:evenodd;fill:#FFFFFF;}
	.st187{clip-path:url(#SVGID_160_);fill:none;stroke:#FFFFFF;stroke-width:0.1324;stroke-miterlimit:10;}
	.st188{clip-path:url(#SVGID_160_);fill:none;stroke:#000000;stroke-width:2.647123e-02;stroke-miterlimit:10;}
	.st189{clip-path:url(#SVGID_196_);}
	.st190{opacity:0.8;}
	.st191{clip-path:url(#SVGID_200_);fill:url(#SVGID_201_);}
	.st192{fill:#F8D40A;}
	.st193{fill:#E72D90;}
	.st194{fill:#8A3491;}
	.st195{fill-rule:evenodd;clip-rule:evenodd;fill:#FFFFFF;}
	.st196{opacity:0.2;clip-path:url(#SVGID_203_);}
	.st197{opacity:0.2;}
	.st198{opacity:0.4;clip-path:url(#SVGID_205_);}
	.st199{fill:none;stroke:#FFFFFF;stroke-width:0.8638;stroke-miterlimit:10;}
	.st200{fill:#F6F7F7;}
	.st201{clip-path:url(#SVGID_209_);}
	.st202{opacity:0.9;}
	.st203{clip-path:url(#SVGID_213_);fill:url(#SVGID_214_);}
	.st204{fill:#2B2F6D;}
	.st205{fill:#EF7226;}
	.st206{fill:#209FDA;}
	.st207{clip-path:url(#SVGID_216_);}
	.st208{clip-path:url(#SVGID_218_);fill:#FFFFFF;}
	.st209{clip-path:url(#SVGID_218_);}
	.st210{clip-path:url(#SVGID_218_);fill:#C4C4C4;}
	.st211{clip-path:url(#SVGID_218_);fill-rule:evenodd;clip-rule:evenodd;}
	.st212{clip-path:url(#SVGID_220_);}
	.st213{clip-path:url(#SVGID_218_);fill:#5A6665;}
	.st214{clip-path:url(#SVGID_218_);fill:#5A6664;}
	.st215{fill:#EAEAEA;}
	.st216{fill:#E61E25;}
	.st217{fill:#DFCB22;}
	.st218{fill:#6EB644;}
	.st219{fill:#CCCACB;}
	.st220{fill:#F7F8F8;}
	.st221{clip-path:url(#SVGID_222_);}
	.st222{clip-path:url(#SVGID_224_);fill:#FFFFFF;}
	.st223{clip-path:url(#SVGID_224_);}
	.st224{clip-path:url(#SVGID_224_);fill:#C4C4C4;}
	.st225{clip-path:url(#SVGID_224_);fill-rule:evenodd;clip-rule:evenodd;}
	.st226{clip-path:url(#SVGID_226_);}
	.st227{clip-path:url(#SVGID_224_);fill:#5A6665;}
	.st228{clip-path:url(#SVGID_224_);fill:#5A6664;}
	.st229{clip-path:url(#SVGID_230_);}
	.st230{clip-path:url(#SVGID_232_);fill:#C3C3C1;}
	.st231{clip-path:url(#SVGID_234_);}
	.st232{clip-path:url(#SVGID_236_);fill:#C3C3C1;}
	.st233{clip-path:url(#SVGID_238_);}
	.st234{clip-path:url(#SVGID_240_);fill:none;stroke:#ADB1B1;stroke-miterlimit:10;}
	.st235{fill-rule:evenodd;clip-rule:evenodd;fill:none;stroke:#ADB1B1;stroke-miterlimit:10;}
	.st236{clip-path:url(#SVGID_244_);}
	.st237{clip-path:url(#SVGID_246_);fill:#F1F3F4;}
	.st238{clip-path:url(#SVGID_248_);}
	.st239{clip-path:url(#SVGID_250_);fill:#C3C3C1;}
	.st240{clip-path:url(#SVGID_252_);}
	.st241{clip-path:url(#SVGID_254_);fill:#C3C3C1;}
	.st242{clip-path:url(#SVGID_256_);}
	.st243{clip-path:url(#SVGID_258_);fill:none;stroke:#ADB1B1;stroke-miterlimit:10;}
	.st244{clip-path:url(#SVGID_260_);}
	.st245{clip-path:url(#SVGID_262_);fill:#FFFFFF;}
	.st246{clip-path:url(#SVGID_262_);fill:#C4C4C4;}
	.st247{clip-path:url(#SVGID_262_);}
	.st248{clip-path:url(#SVGID_264_);fill:#C4C4C4;}
	.st249{clip-path:url(#SVGID_262_);fill:#5A6665;}
	.st250{clip-path:url(#SVGID_266_);}
	.st251{clip-path:url(#SVGID_262_);fill-rule:evenodd;clip-rule:evenodd;}
	.st252{clip-path:url(#SVGID_262_);fill:#5A6664;}
	.st253{clip-path:url(#SVGID_270_);}
	.st254{clip-path:url(#SVGID_272_);fill:#FFFFFF;}
	.st255{clip-path:url(#SVGID_272_);fill:#C4C4C4;}
	.st256{clip-path:url(#SVGID_272_);}
	.st257{clip-path:url(#SVGID_274_);fill:#C4C4C4;}
	.st258{clip-path:url(#SVGID_272_);fill:#5A6665;}
	.st259{clip-path:url(#SVGID_276_);}
	.st260{clip-path:url(#SVGID_272_);fill-rule:evenodd;clip-rule:evenodd;}
	.st261{clip-path:url(#SVGID_272_);fill:#5A6664;}
	.st262{clip-path:url(#SVGID_278_);}
	.st263{clip-path:url(#SVGID_280_);fill:#C3C3C1;}
	.st264{clip-path:url(#SVGID_282_);}
	.st265{clip-path:url(#SVGID_284_);fill:#C3C3C1;}
	.st266{clip-path:url(#SVGID_286_);}
	.st267{clip-path:url(#SVGID_288_);fill:#C3C3C1;}
	.st268{clip-path:url(#SVGID_290_);}
	.st269{clip-path:url(#SVGID_292_);fill:none;stroke:#ADB1B1;stroke-miterlimit:10;}
	.st270{clip-path:url(#SVGID_296_);}
	.st271{clip-path:url(#SVGID_298_);fill:#FFFFFF;}
	.st272{clip-path:url(#SVGID_298_);fill:#C4C4C4;}
	.st273{clip-path:url(#SVGID_298_);}
	.st274{clip-path:url(#SVGID_300_);fill:#C4C4C4;}
	.st275{clip-path:url(#SVGID_298_);fill:#5A6665;}
	.st276{clip-path:url(#SVGID_302_);}
	.st277{clip-path:url(#SVGID_298_);fill-rule:evenodd;clip-rule:evenodd;}
	.st278{clip-path:url(#SVGID_298_);fill:#5A6664;}
	.st279{clip-path:url(#SVGID_304_);}
	.st280{clip-path:url(#SVGID_306_);fill:#F1F3F4;}
	.st281{clip-path:url(#SVGID_308_);}
	.st282{clip-path:url(#SVGID_310_);fill:#C3C3C1;}
	.st283{clip-path:url(#SVGID_312_);}
	.st284{clip-path:url(#SVGID_314_);fill:#C3C3C1;}
	.st285{clip-path:url(#SVGID_316_);}
	.st286{clip-path:url(#SVGID_318_);fill:#C3C3C1;}
	.st287{clip-path:url(#SVGID_320_);}
	.st288{clip-path:url(#SVGID_322_);fill:#C3C3C1;}
	.st289{clip-path:url(#SVGID_324_);}
	.st290{clip-path:url(#SVGID_326_);fill:#C3C3C1;}
	.st291{clip-path:url(#SVGID_328_);}
	.st292{clip-path:url(#SVGID_330_);fill:#C3C3C1;}
	.st293{clip-path:url(#SVGID_332_);}
	.st294{clip-path:url(#SVGID_334_);fill:#C3C3C1;}
	.st295{clip-path:url(#SVGID_336_);}
	.st296{clip-path:url(#SVGID_338_);fill:#C3C3C1;}
	.st297{clip-path:url(#SVGID_340_);}
	.st298{clip-path:url(#SVGID_342_);fill:#C3C3C1;}
	.st299{clip-path:url(#SVGID_344_);}
	.st300{clip-path:url(#SVGID_346_);fill:#C3C3C1;}
	.st301{clip-path:url(#SVGID_348_);}
	.st302{clip-path:url(#SVGID_350_);fill:none;stroke:#ADB1B1;stroke-miterlimit:10;}
	.st303{clip-path:url(#SVGID_352_);}
	.st304{clip-path:url(#SVGID_354_);fill:#FFFFFF;}
	.st305{clip-path:url(#SVGID_354_);fill:#C4C4C4;}
	.st306{clip-path:url(#SVGID_354_);}
	.st307{clip-path:url(#SVGID_356_);fill:#C4C4C4;}
	.st308{clip-path:url(#SVGID_354_);fill:#5A6665;}
	.st309{clip-path:url(#SVGID_358_);}
	.st310{clip-path:url(#SVGID_354_);fill-rule:evenodd;clip-rule:evenodd;}
	.st311{clip-path:url(#SVGID_354_);fill:#5A6664;}
	.st312{clip-path:url(#SVGID_360_);}
	.st313{clip-path:url(#SVGID_362_);}
	.st314{clip-path:url(#SVGID_364_);fill:#FFFFFF;}
	.st315{clip-path:url(#SVGID_364_);fill:#C4C4C4;}
	.st316{clip-path:url(#SVGID_364_);}
	.st317{clip-path:url(#SVGID_366_);fill:#C4C4C4;}
	.st318{clip-path:url(#SVGID_364_);fill:#5A6665;}
	.st319{clip-path:url(#SVGID_368_);}
	.st320{clip-path:url(#SVGID_364_);fill-rule:evenodd;clip-rule:evenodd;}
	.st321{clip-path:url(#SVGID_364_);fill:#5A6664;}
	.st322{fill:none;stroke:#FFFFFF;stroke-width:0.5;stroke-miterlimit:10;}
	.st323{clip-path:url(#SVGID_370_);fill:#FFFFFF;}
	.st324{clip-path:url(#SVGID_370_);fill:#F2F5FB;}
	.st325{clip-path:url(#SVGID_370_);}
	.st326{clip-path:url(#SVGID_372_);}
	.st327{clip-path:url(#SVGID_370_);fill:#3A4C7A;}
	.st328{clip-path:url(#SVGID_370_);fill:#E5E5E5;}
	.st329{clip-path:url(#SVGID_370_);fill:#414141;}
	.st330{clip-path:url(#SVGID_370_);fill:#F79339;}
	.st331{clip-path:url(#SVGID_370_);fill-rule:evenodd;clip-rule:evenodd;fill:#FFFFFF;}
	.st332{clip-path:url(#SVGID_370_);fill:#7B91C9;}
	.st333{clip-path:url(#SVGID_370_);fill:#676767;}
	.st334{clip-path:url(#SVGID_376_);fill:#FCBB80;}
	.st335{clip-path:url(#SVGID_378_);fill:#FCBB80;}
	.st336{clip-path:url(#SVGID_380_);fill:#FCBB80;}
	.st337{opacity:0.15;clip-path:url(#SVGID_370_);fill:#010101;}
	.st338{filter:url(#Adobe_OpacityMaskFilter_8_);}
	.st339{clip-path:url(#SVGID_370_);fill:#C4C4C4;}
	.st340{clip-path:url(#SVGID_370_);mask:url(#SVGID_381_);}
	.st341{clip-path:url(#SVGID_385_);}
	.st342{clip-path:url(#SVGID_389_);}
	.st343{filter:url(#Adobe_OpacityMaskFilter_9_);}
	.st344{clip-path:url(#SVGID_370_);mask:url(#SVGID_392_);}
	.st345{clip-path:url(#SVGID_394_);}
	.st346{clip-path:url(#SVGID_396_);}
	.st347{filter:url(#Adobe_OpacityMaskFilter_10_);}
	.st348{clip-path:url(#SVGID_370_);mask:url(#SVGID_399_);}
	.st349{clip-path:url(#SVGID_401_);}
	.st350{clip-path:url(#SVGID_403_);}
	.st351{filter:url(#Adobe_OpacityMaskFilter_11_);}
	.st352{clip-path:url(#SVGID_370_);mask:url(#SVGID_406_);}
	.st353{clip-path:url(#SVGID_408_);}
	.st354{clip-path:url(#SVGID_410_);}
	.st355{clip-path:url(#SVGID_414_);fill:#FFFFFF;}
	.st356{clip-path:url(#SVGID_414_);fill:#F2F5FB;}
	.st357{clip-path:url(#SVGID_414_);}
	.st358{clip-path:url(#SVGID_416_);}
	.st359{clip-path:url(#SVGID_414_);fill:#3A4C7A;}
	.st360{clip-path:url(#SVGID_414_);fill:#E5E5E5;}
	.st361{clip-path:url(#SVGID_414_);fill:#414141;}
	.st362{clip-path:url(#SVGID_414_);fill:#F79339;}
	.st363{clip-path:url(#SVGID_414_);fill-rule:evenodd;clip-rule:evenodd;fill:#FFFFFF;}
	.st364{clip-path:url(#SVGID_414_);fill:#7B91C9;}
	.st365{clip-path:url(#SVGID_414_);fill:#676767;}
	.st366{clip-path:url(#SVGID_420_);fill:#FCBB80;}
	.st367{clip-path:url(#SVGID_422_);fill:#FCBB80;}
	.st368{clip-path:url(#SVGID_424_);fill:#FCBB80;}
	.st369{opacity:0.15;clip-path:url(#SVGID_414_);fill:#010101;}
	.st370{filter:url(#Adobe_OpacityMaskFilter_12_);}
	.st371{clip-path:url(#SVGID_414_);fill:#C4C4C4;}
	.st372{clip-path:url(#SVGID_414_);mask:url(#SVGID_425_);}
	.st373{clip-path:url(#SVGID_429_);}
	.st374{clip-path:url(#SVGID_433_);}
	.st375{filter:url(#Adobe_OpacityMaskFilter_13_);}
	.st376{clip-path:url(#SVGID_414_);mask:url(#SVGID_436_);}
	.st377{clip-path:url(#SVGID_438_);}
	.st378{clip-path:url(#SVGID_440_);}
	.st379{filter:url(#Adobe_OpacityMaskFilter_14_);}
	.st380{clip-path:url(#SVGID_414_);mask:url(#SVGID_443_);}
	.st381{clip-path:url(#SVGID_445_);}
	.st382{clip-path:url(#SVGID_447_);}
	.st383{filter:url(#Adobe_OpacityMaskFilter_15_);}
	.st384{clip-path:url(#SVGID_414_);mask:url(#SVGID_450_);}
	.st385{clip-path:url(#SVGID_452_);}
	.st386{clip-path:url(#SVGID_454_);}
	.st387{clip-path:url(#SVGID_458_);}
	.st388{clip-path:url(#SVGID_460_);fill:#FFFFFF;}
	.st389{clip-path:url(#SVGID_460_);fill:#F2F5FB;}
	.st390{clip-path:url(#SVGID_460_);}
	.st391{clip-path:url(#SVGID_462_);}
	.st392{clip-path:url(#SVGID_460_);fill:#3A4C7A;}
	.st393{clip-path:url(#SVGID_460_);fill:#414141;}
	.st394{clip-path:url(#SVGID_460_);fill:#49609A;}
	.st395{clip-path:url(#SVGID_460_);fill:#FCBB80;}
	.st396{clip-path:url(#SVGID_460_);fill:#E5E5E5;}
	.st397{clip-path:url(#SVGID_460_);fill:#F79339;}
	.st398{clip-path:url(#SVGID_460_);fill:#676767;}
	.st399{clip-path:url(#SVGID_466_);fill:#FCBB80;}
	.st400{clip-path:url(#SVGID_460_);fill-rule:evenodd;clip-rule:evenodd;fill:#FFFFFF;}
	.st401{clip-path:url(#SVGID_460_);fill:#7B91C9;}
	.st402{clip-path:url(#SVGID_468_);fill:#FCBB80;}
	.st403{clip-path:url(#SVGID_470_);fill:#FCBB80;}
	.st404{filter:url(#Adobe_OpacityMaskFilter_16_);}
	.st405{clip-path:url(#SVGID_460_);fill:#C4C4C4;}
	.st406{clip-path:url(#SVGID_460_);mask:url(#SVGID_471_);}
	.st407{clip-path:url(#SVGID_475_);}
	.st408{clip-path:url(#SVGID_479_);}
	.st409{filter:url(#Adobe_OpacityMaskFilter_17_);}
	.st410{clip-path:url(#SVGID_460_);mask:url(#SVGID_482_);}
	.st411{clip-path:url(#SVGID_484_);}
	.st412{clip-path:url(#SVGID_486_);}
	.st413{clip-path:url(#SVGID_492_);}
	.st414{clip-path:url(#SVGID_494_);fill:none;stroke:#ADB1B1;stroke-miterlimit:10;}
	.st415{clip-path:url(#SVGID_498_);}
	.st416{clip-path:url(#SVGID_500_);fill:none;stroke:#ADB1B1;stroke-miterlimit:10;}
	.st417{clip-path:url(#SVGID_504_);}
	.st418{clip-path:url(#SVGID_506_);fill:none;stroke:#ADB1B1;stroke-miterlimit:10;}
	.st419{clip-path:url(#SVGID_508_);}
	.st420{clip-path:url(#SVGID_510_);fill:#FFFFFF;}
	.st421{clip-path:url(#SVGID_510_);fill:#F2F5FB;}
	.st422{clip-path:url(#SVGID_510_);}
	.st423{clip-path:url(#SVGID_512_);}
	.st424{clip-path:url(#SVGID_510_);fill:#3A4C7A;}
	.st425{clip-path:url(#SVGID_510_);fill:#414141;}
	.st426{clip-path:url(#SVGID_510_);fill:#49609A;}
	.st427{clip-path:url(#SVGID_510_);fill:#FCBB80;}
	.st428{clip-path:url(#SVGID_510_);fill:#E5E5E5;}
	.st429{clip-path:url(#SVGID_510_);fill:#F79339;}
	.st430{clip-path:url(#SVGID_510_);fill:#676767;}
	.st431{clip-path:url(#SVGID_516_);fill:#FCBB80;}
	.st432{clip-path:url(#SVGID_510_);fill-rule:evenodd;clip-rule:evenodd;fill:#FFFFFF;}
	.st433{clip-path:url(#SVGID_510_);fill:#7B91C9;}
	.st434{clip-path:url(#SVGID_518_);fill:#FCBB80;}
	.st435{clip-path:url(#SVGID_520_);fill:#FCBB80;}
	.st436{filter:url(#Adobe_OpacityMaskFilter_18_);}
	.st437{clip-path:url(#SVGID_510_);fill:#C4C4C4;}
	.st438{clip-path:url(#SVGID_510_);mask:url(#SVGID_521_);}
	.st439{clip-path:url(#SVGID_525_);}
	.st440{clip-path:url(#SVGID_529_);}
	.st441{filter:url(#Adobe_OpacityMaskFilter_19_);}
	.st442{clip-path:url(#SVGID_510_);mask:url(#SVGID_532_);}
	.st443{clip-path:url(#SVGID_534_);}
	.st444{clip-path:url(#SVGID_536_);}
	.st445{clip-path:url(#SVGID_540_);}
	.st446{clip-path:url(#SVGID_542_);fill:#FFFFFF;}
	.st447{clip-path:url(#SVGID_542_);fill:#F2F5FB;}
	.st448{clip-path:url(#SVGID_542_);}
	.st449{clip-path:url(#SVGID_544_);}
	.st450{clip-path:url(#SVGID_542_);fill:#3A4C7A;}
	.st451{clip-path:url(#SVGID_542_);fill:#414141;}
	.st452{clip-path:url(#SVGID_542_);fill:#49609A;}
	.st453{clip-path:url(#SVGID_542_);fill:#FCBB80;}
	.st454{clip-path:url(#SVGID_542_);fill:#E5E5E5;}
	.st455{clip-path:url(#SVGID_542_);fill:#F79339;}
	.st456{clip-path:url(#SVGID_542_);fill:#676767;}
	.st457{clip-path:url(#SVGID_548_);fill:#FCBB80;}
	.st458{clip-path:url(#SVGID_542_);fill-rule:evenodd;clip-rule:evenodd;fill:#FFFFFF;}
	.st459{clip-path:url(#SVGID_542_);fill:#7B91C9;}
	.st460{clip-path:url(#SVGID_550_);fill:#FCBB80;}
	.st461{filter:url(#Adobe_OpacityMaskFilter_20_);}
	.st462{clip-path:url(#SVGID_542_);fill:#C4C4C4;}
	.st463{clip-path:url(#SVGID_542_);mask:url(#SVGID_551_);}
	.st464{clip-path:url(#SVGID_555_);}
	.st465{clip-path:url(#SVGID_559_);}
	.st466{filter:url(#Adobe_OpacityMaskFilter_21_);}
	.st467{clip-path:url(#SVGID_542_);mask:url(#SVGID_562_);}
	.st468{clip-path:url(#SVGID_564_);}
	.st469{clip-path:url(#SVGID_566_);}
	.st470{clip-path:url(#SVGID_570_);}
	.st471{clip-path:url(#SVGID_572_);fill:#FFFFFF;}
	.st472{clip-path:url(#SVGID_572_);fill:#F2F5FB;}
	.st473{clip-path:url(#SVGID_572_);}
	.st474{clip-path:url(#SVGID_574_);}
	.st475{clip-path:url(#SVGID_572_);fill:#3A4C7A;}
	.st476{clip-path:url(#SVGID_572_);fill:#414141;}
	.st477{clip-path:url(#SVGID_572_);fill:#49609A;}
	.st478{clip-path:url(#SVGID_572_);fill:#FCBB80;}
	.st479{clip-path:url(#SVGID_572_);fill:#E5E5E5;}
	.st480{clip-path:url(#SVGID_572_);fill:#F79339;}
	.st481{clip-path:url(#SVGID_572_);fill:#676767;}
	.st482{clip-path:url(#SVGID_578_);fill:#FCBB80;}
	.st483{clip-path:url(#SVGID_572_);fill-rule:evenodd;clip-rule:evenodd;fill:#FFFFFF;}
	.st484{clip-path:url(#SVGID_572_);fill:#7B91C9;}
	.st485{clip-path:url(#SVGID_580_);fill:#FCBB80;}
	.st486{clip-path:url(#SVGID_582_);fill:#FCBB80;}
	.st487{filter:url(#Adobe_OpacityMaskFilter_22_);}
	.st488{clip-path:url(#SVGID_572_);fill:#C4C4C4;}
	.st489{clip-path:url(#SVGID_572_);mask:url(#SVGID_583_);}
	.st490{clip-path:url(#SVGID_587_);}
	.st491{clip-path:url(#SVGID_591_);}
	.st492{filter:url(#Adobe_OpacityMaskFilter_23_);}
	.st493{clip-path:url(#SVGID_572_);mask:url(#SVGID_594_);}
	.st494{clip-path:url(#SVGID_596_);}
	.st495{clip-path:url(#SVGID_598_);}
	.st496{clip-path:url(#SVGID_604_);fill:#FFFFFF;}
	.st497{clip-path:url(#SVGID_606_);}
	.st498{clip-path:url(#SVGID_608_);fill:#C3C3C1;}
	.st499{clip-path:url(#SVGID_610_);}
	.st500{clip-path:url(#SVGID_612_);fill:#C3C3C1;}
	.st501{clip-path:url(#SVGID_614_);}
	.st502{clip-path:url(#SVGID_618_);}
	.st503{fill:#EEEDEF;}
	.st504{clip-path:url(#SVGID_622_);}
	.st505{opacity:0.25;fill:#D3ECE2;}
	.st506{fill:#308B67;}
	.st507{clip-path:url(#SVGID_624_);}
	.st508{clip-path:url(#SVGID_628_);}
	.st509{fill-rule:evenodd;clip-rule:evenodd;fill:#308B67;}
	.st510{filter:url(#Adobe_OpacityMaskFilter_24_);}
	.st511{fill:#C4C4C4;}
	.st512{mask:url(#SVGID_631_);}
	.st513{clip-path:url(#SVGID_633_);}
	.st514{clip-path:url(#SVGID_635_);}
	.st515{filter:url(#Adobe_OpacityMaskFilter_25_);}
	.st516{mask:url(#SVGID_638_);}
	.st517{clip-path:url(#SVGID_640_);}
	.st518{clip-path:url(#SVGID_642_);}
	.st519{filter:url(#Adobe_OpacityMaskFilter_26_);}
	.st520{mask:url(#SVGID_645_);}
	.st521{clip-path:url(#SVGID_647_);}
	.st522{clip-path:url(#SVGID_649_);}
	.st523{filter:url(#Adobe_OpacityMaskFilter_27_);}
	.st524{mask:url(#SVGID_652_);}
	.st525{clip-path:url(#SVGID_654_);}
	.st526{clip-path:url(#SVGID_656_);}
	.st527{filter:url(#Adobe_OpacityMaskFilter_28_);}
	.st528{mask:url(#SVGID_659_);}
	.st529{clip-path:url(#SVGID_661_);}
	.st530{clip-path:url(#SVGID_663_);}
	.st531{filter:url(#Adobe_OpacityMaskFilter_29_);}
	.st532{mask:url(#SVGID_666_);}
	.st533{clip-path:url(#SVGID_668_);}
	.st534{clip-path:url(#SVGID_670_);}
	.st535{filter:url(#Adobe_OpacityMaskFilter_30_);}
	.st536{mask:url(#SVGID_673_);}
	.st537{clip-path:url(#SVGID_675_);}
	.st538{clip-path:url(#SVGID_677_);}
	.st539{opacity:0.8;fill:#010101;}
	.st540{fill:#F4FAF8;}
	.st541{fill:#95969A;}
	.st542{fill:#ED2224;}
	.st543{fill:#1D1D1B;}
	.st544{fill:#A95626;}
	.st545{fill:#1279BF;}
	.st546{fill:#1B1B1A;}
	.st547{fill:#1F9DD9;}
	.st548{fill:#CC2028;}
	.st549{fill:#E5E5E5;}
	.st550{opacity:0.3;clip-path:url(#SVGID_681_);fill:#010101;}
	.st551{clip-path:url(#SVGID_683_);}
	.st552{fill:#2077BD;}
	.st553{fill:#164467;}
	.st554{filter:url(#Adobe_OpacityMaskFilter_31_);}
	.st555{mask:url(#SVGID_686_);}
	.st556{clip-path:url(#SVGID_688_);}
	.st557{clip-path:url(#SVGID_690_);}
	.st558{filter:url(#Adobe_OpacityMaskFilter_32_);}
	.st559{mask:url(#SVGID_693_);}
	.st560{clip-path:url(#SVGID_695_);}
	.st561{clip-path:url(#SVGID_697_);}
	.st562{filter:url(#Adobe_OpacityMaskFilter_33_);}
	.st563{mask:url(#SVGID_700_);}
	.st564{clip-path:url(#SVGID_702_);}
	.st565{clip-path:url(#SVGID_704_);}
	.st566{fill:#006972;}
	.st567{fill:#F8991D;}
	.st568{fill:#3E4495;}
	.st569{fill:#193864;}
	.st570{fill:#2F70B7;}
	.st571{fill:#0B72BA;}
	.st572{fill:#1071B9;}
	.st573{fill:#27A5DE;}
	.st574{fill:#F7B917;}
	.st575{clip-path:url(#SVGID_708_);}
	.st576{clip-path:url(#SVGID_710_);}
	.st577{clip-path:url(#SVGID_714_);}
	.st578{filter:url(#Adobe_OpacityMaskFilter_34_);}
	.st579{mask:url(#SVGID_717_);}
	.st580{clip-path:url(#SVGID_719_);}
	.st581{clip-path:url(#SVGID_721_);}
	.st582{filter:url(#Adobe_OpacityMaskFilter_35_);}
	.st583{mask:url(#SVGID_724_);}
	.st584{clip-path:url(#SVGID_726_);}
	.st585{clip-path:url(#SVGID_728_);}
	.st586{filter:url(#Adobe_OpacityMaskFilter_36_);}
	.st587{mask:url(#SVGID_731_);}
	.st588{clip-path:url(#SVGID_733_);}
	.st589{clip-path:url(#SVGID_735_);}
	.st590{filter:url(#Adobe_OpacityMaskFilter_37_);}
	.st591{mask:url(#SVGID_738_);}
	.st592{clip-path:url(#SVGID_740_);}
	.st593{clip-path:url(#SVGID_742_);}
	.st594{filter:url(#Adobe_OpacityMaskFilter_38_);}
	.st595{mask:url(#SVGID_745_);}
	.st596{clip-path:url(#SVGID_747_);}
	.st597{clip-path:url(#SVGID_749_);}
	.st598{filter:url(#Adobe_OpacityMaskFilter_39_);}
	.st599{mask:url(#SVGID_752_);}
	.st600{clip-path:url(#SVGID_754_);}
	.st601{clip-path:url(#SVGID_756_);}
	.st602{filter:url(#Adobe_OpacityMaskFilter_40_);}
	.st603{mask:url(#SVGID_759_);}
	.st604{clip-path:url(#SVGID_761_);}
	.st605{clip-path:url(#SVGID_763_);}
	.st606{opacity:0.3;clip-path:url(#SVGID_767_);fill:#010101;}
	.st607{clip-path:url(#SVGID_769_);}
	.st608{filter:url(#Adobe_OpacityMaskFilter_41_);}
	.st609{mask:url(#SVGID_772_);}
	.st610{clip-path:url(#SVGID_774_);}
	.st611{clip-path:url(#SVGID_776_);}
	.st612{filter:url(#Adobe_OpacityMaskFilter_42_);}
	.st613{mask:url(#SVGID_779_);}
	.st614{clip-path:url(#SVGID_781_);}
	.st615{clip-path:url(#SVGID_783_);}
	.st616{filter:url(#Adobe_OpacityMaskFilter_43_);}
	.st617{mask:url(#SVGID_786_);}
	.st618{clip-path:url(#SVGID_788_);}
	.st619{clip-path:url(#SVGID_790_);}
</style>
<line class="st132" x1="54.3" y1="69.8" x2="191.2" y2="69.8"/>
<g>
	<text transform="matrix(1 0 0 1 54.3051 79.3493)" class="st80 st146 st147">Inicio</text>
	<g>
		<text transform="matrix(1 0 0 1 111.1859 79.3493)" class="st80 st146 st147">Catálogo</text>
	</g>
	<g>
		<text transform="matrix(1 0 0 1 178.0511 79.3493)" class="st80 st146 st147">Contacto</text>
	</g>
</g>
<g>
	<rect x="65.4" y="114" class="st124" width="114.6" height="25.6"/>
	<text transform="matrix(1 0 0 1 65.3754 120.0573)" class="st80 st148 st149">Truly Natural, Sensorial Beauty</text>
</g>
<g class="st119">
	<defs>
		<filter id="Adobe_OpacityMaskFilter" filterUnits="userSpaceOnUse" x="36.4" y="26.9" width="218" height="434">
			<feFlood  style="flood-color:white;flood-opacity:1" result="back"/>
			<feBlend  in="SourceGraphic" in2="back" mode="normal"/>
		</filter>
	</defs>
	<mask maskUnits="userSpaceOnUse" x="36.4" y="26.9" width="218" height="434" id="SVGID_2_">
		<g class="st63">
			
				<image style="overflow:visible;" width="223" height="439" xlink:href="669811663F7E1A14.jpg"  transform="matrix(1 0 0 1 34.059 24.7024)">
			</image>
		</g>
	</mask>
	<g style="mask:url(#SVGID_2_);">
		<path class="st72" d="M252.1,125.6V58.4c0-17.4-14.1-31.5-31.5-31.5H70.3c-17.4,0-31.5,14.1-31.5,31.5v25.8h-0.3c-1.1,0-2,0.9-2,2
			v12.4c0,1.1,0.9,2,2,2h0.3v15.2c-1.3,0-2.3,1-2.3,2.3v26.1c0,1.3,1,2.3,2.3,2.3v8.7c-1.3,0-2.3,1-2.3,2.3v26.1
			c0,1.3,1,2.3,2.3,2.3v243.4c0,17.4,14.1,31.5,31.5,31.5h150.4c17.4,0,31.5-14.1,31.5-31.5V176.1c1.3,0,2.3-1,2.3-2.3v-45.9
			C254.5,126.6,253.4,125.6,252.1,125.6z"/>
	</g>
</g>
<g id="XMLID_6_">
	<path id="XMLID_20_" class="st122" d="M244.3,54.4c0-17.4-14.1-31.5-31.5-31.5H62.4C45,22.9,30.9,37,30.9,54.4v371
		c0,17.4,14.1,31.5,31.5,31.5h150.4c17.4,0,31.5-14.1,31.5-31.5V54.4z M239.5,425.1c0,14.9-12.1,27-27,27H62.1
		c-14.9,0-27-12.1-27-27v-371c0-14.9,12.1-27,27-27h150.4c14.9,0,27,12.1,27,27V425.1z"/>
	<path id="XMLID_19_" class="st123" d="M30.9,80.2h-0.3c-1.1,0-2,0.9-2,2v12.4c0,1.1,0.9,2,2,2h0.3"/>
	<path id="XMLID_18_" class="st123" d="M244.3,172.1L244.3,172.1c1.3,0,2.3-1,2.3-2.3v-45.9c0-1.3-1-2.3-2.3-2.3l0,0"/>
	<g id="XMLID_15_">
		<path id="XMLID_17_" class="st123" d="M30.9,111.8L30.9,111.8c-1.3,0-2.3,1-2.3,2.3v26.1c0,1.3,1,2.3,2.3,2.3l0,0"/>
		<path id="XMLID_16_" class="st123" d="M30.9,151.2L30.9,151.2c-1.3,0-2.3,1-2.3,2.3v26.1c0,1.3,1,2.3,2.3,2.3l0,0"/>
	</g>
	<path id="XMLID_14_" class="st124" d="M213.4,34.4h-17.2c-3.7,0-5,0-5.3,4.7c-0.2,4.8-3.6,7.5-8.1,8.9c-1.5,0.5-3.2,0.3-4.8,0.3
		h-3.3h-73h-3.3c-1.6,0-3.3,0.3-4.8-0.2c-4.5-1.4-7.8-4.3-8.1-9.1c-0.2-4.7-1.6-4.6-5.3-4.6H62.9c-10.6,0-18.7,8.7-18.7,19.3v370.7
		c0,10.6,8.1,18.6,18.7,18.6h150.5c10.6,0,19.4-8.1,19.4-18.6V53.6C232.8,43.1,224,34.4,213.4,34.4z"/>
	<path id="XMLID_9_" class="st72" d="M239.5,54.1c0-14.9-12.1-27-27-27H62.1c-14.9,0-27,12.1-27,27v371c0,14.9,12.1,27,27,27h150.4
		c14.9,0,27-12.1,27-27V54.1z M162.5,37.7c0,1.5-1.2,2.6-2.6,2.6c-1.5,0-2.6-1.2-2.6-2.6c0-1.5,1.2-2.6,2.6-2.6
		C161.4,35.1,162.5,36.3,162.5,37.7z M126.6,36.2h23.6c1,0,1.8,0.6,1.8,1.5c0,0.9-0.8,1.5-1.8,1.5h-23.6c-1,0-1.8-0.6-1.8-1.5
		C124.8,36.8,125.6,36.2,126.6,36.2z M232.8,424.3c0,10.6-8.8,18.6-19.4,18.6H62.9c-10.6,0-18.7-8.1-18.7-18.6V53.6
		c0-10.6,8.1-19.3,18.7-19.3h17.4c3.7,0,5,0,5.3,4.7c0.2,4.8,3.6,7.5,8.1,8.9c1.5,0.5,3.2,0.3,4.8,0.3h3.3h73h3.3
		c1.6,0,3.3,0.3,4.8-0.2c4.5-1.4,7.8-4.3,8.1-9.1c0.2-4.7,1.6-4.6,5.3-4.6h17.2c10.6,0,19.4,8.7,19.4,19.3V424.3z"/>
	<circle id="XMLID_8_" class="st78" cx="159.9" cy="37.7" r="2.6"/>
	<path id="XMLID_7_" class="st78" d="M126.6,39.2h23.6c1,0,1.8-0.6,1.8-1.5c0-0.9-0.8-1.5-1.8-1.5h-23.6c-1,0-1.8,0.6-1.8,1.5
		C124.8,38.6,125.6,39.2,126.6,39.2z"/>
</g>
<g>
	<g>
		<defs>
			<path id="XMLID_5_" d="M232.8,424.3c0,10.6-8.8,18.6-19.4,18.6H62.9c-10.6,0-18.7-8.1-18.7-18.6V53.6c0-10.6,8.1-19.3,18.7-19.3
				h17.4c3.7,0,5,0,5.3,4.7c0.2,4.8,3.6,7.5,8.1,8.9c1.5,0.5,3.2,0.3,4.8,0.3h3.3h73h3.3c1.6,0,3.3,0.3,4.8-0.2
				c4.5-1.4,7.8-4.3,8.1-9.1c0.2-4.7,1.6-4.6,5.3-4.6h17.2c10.6,0,19.4,8.7,19.4,19.3V424.3z"/>
		</defs>
		<clipPath id="XMLID_24_">
			<use xlink:href="#XMLID_5_"  style="overflow:visible;"/>
		</clipPath>
		
			<rect x="28.7" y="22.9" style="clip-path:url(#XMLID_24_);fill:#FFFFFF;stroke:#010101;stroke-width:0.1769;stroke-miterlimit:10;" width="211.8" height="420.1"/>
	</g>
	<g>
		<path d="M157.8,59.8c0-2.3,1.7-3.9,4-3.9c2.2,0,3.9,1.7,3.9,3.9c0,2.3-1.7,4-4,4C159.5,63.8,157.8,62.1,157.8,59.8z M161.7,62.5
			c1.4,0,2.5-1.2,2.6-2.7c0-1.5-1.1-2.7-2.5-2.7c-1.5,0-2.6,1.1-2.6,2.7C159.2,61.3,160.3,62.5,161.7,62.5z"/>
		<path d="M125,63.7c0-2.6,0-5.1,0-7.6c1.1,0,2.2-0.1,3.3,0c0.8,0.1,1.5,0.5,1.7,1.3c0.2,0.8,0,1.6-0.8,2.1c0.3,0.2,0.6,0.4,0.8,0.7
			c0.8,1.1,0.3,2.8-1,3.2c-0.5,0.2-1.1,0.2-1.7,0.2C126.6,63.7,125.8,63.7,125,63.7z M126.4,60.2c0,0.8,0,1.5,0,2.3
			c0.2,0,0.4,0,0.6,0c0.3,0,0.7,0,1,0c0.6-0.1,1-0.5,1-1.1c0-0.6-0.4-1.1-1-1.1C127.5,60.2,127,60.2,126.4,60.2z M126.4,59.1
			c0.5,0,1,0,1.4,0c0.5,0,0.9-0.4,0.9-1c0-0.5-0.3-0.9-0.9-0.9c-0.5,0-0.9,0-1.4,0C126.4,57.9,126.4,58.5,126.4,59.1z"/>
		<path d="M88.6,63.6c-0.5,0-0.9,0-1.3,0c0-2.5,0-5,0-7.6c0.4,0,0.8,0,1.3,0c0,1.1,0,2.1,0,3.2c1.2,0,2.3,0,3.5,0c0-1.1,0-2.1,0-3.2
			c0.5,0,0.9,0,1.3,0c0,2.5,0,5,0,7.6c-0.4,0-0.8,0-1.3,0c0-1,0-2.1,0-3.1c-1.2,0-2.3,0-3.5,0C88.6,61.5,88.6,62.6,88.6,63.6z"/>
		<path d="M105.4,56.1c0,0.4,0,0.7,0,1.1c-1,0-2.1,0-3.1,0c0,0.7,0,1.3,0,2c0.8,0,1.6,0,2.5,0c0,0.4,0,0.7,0,1.2c-0.8,0-1.6,0-2.5,0
			c0,0.7,0,1.4,0,2.1c1.1,0,2.2,0,3.3,0c0,0.4,0,0.8,0,1.2c-1.6,0-3.1,0-4.7,0c0-2.5,0-5,0-7.6C102.4,56.1,103.9,56.1,105.4,56.1z"
			/>
		<path d="M189.8,63.6c-1.6,0-3.1,0-4.7,0c0-2.5,0-5,0-7.6c1.5,0,3,0,4.5,0c0,0.4,0,0.7,0,1.1c-1,0-2,0-3.1,0c0,0.7,0,1.3,0,2
			c0.8,0,1.6,0,2.5,0c0,0.4,0,0.7,0,1.2c-0.8,0-1.6,0-2.5,0c0,0.7,0,1.4,0,2.1c1.1,0,2.2,0,3.3,0C189.8,62.9,189.8,63.2,189.8,63.6z
			"/>
		<path d="M137.3,56.1c0.4,0,0.8,0,1.3,0c0,2.5,0,5,0,7.6c-0.4,0-0.8,0-1.3,0C137.3,61.1,137.3,58.6,137.3,56.1z"/>
		<path d="M152,56.1h-1.5c-0.7,2-1.3,3.9-2,5.9c-0.7-2-1.3-3.9-2-5.9h-1.5c0.9,2.5,1.8,4.9,2.7,7.3l0.2,0.3c0,0.1,0.1,0.1,0.2,0.1
			h0.9c0.1,0,0.2-0.1,0.2-0.1l0.1-0.3c0.6-1.5,1.1-3,1.7-4.5C151.3,57.9,151.7,57,152,56.1z"/>
		<path d="M176.6,60.4c0.2-0.1,0.3-0.2,0.4-0.2c0.7-0.6,1-1.3,0.8-2.2c-0.1-0.9-0.6-1.6-1.5-1.8c-1.2-0.2-2.4-0.2-3.6-0.2
			c0,2.6,0,5.2,0,7.7c0.4,0,0.8,0,1.3,0c0-1,0-1.9,0-2.8h1.1c0.2,0.1,0.4,0.3,0.6,0.6c0.3,0.7,0.6,1.3,1,1.9
			c0.1,0.1,0.3,0.3,0.4,0.3c0.4,0,0.8,0,1.3,0C177.7,62.5,177.2,61.5,176.6,60.4z M176.2,59.1c-0.3,0.4-0.7,0.5-1.1,0.5v0H174v0
			c0-0.1,0-0.2,0-0.3c0-0.6,0-1.1,0-1.7c0-0.2,0-0.3,0-0.5h0.9c0.1,0,0.2,0,0.3,0h0v0c0.4,0,0.8,0.1,1.1,0.5
			C176.6,58.1,176.6,58.7,176.2,59.1z"/>
		<path d="M116.4,60.4c0.2-0.1,0.3-0.2,0.4-0.2c0.7-0.6,1-1.3,0.8-2.2c-0.1-0.9-0.6-1.6-1.5-1.8c-1.2-0.2-2.4-0.2-3.6-0.2
			c0,2.6,0,5.2,0,7.7c0.4,0,0.8,0,1.3,0c0-1,0-1.9,0-2.8h1.1c0.2,0.1,0.4,0.3,0.6,0.6c0.3,0.7,0.6,1.3,1,1.9
			c0.1,0.1,0.3,0.3,0.4,0.3c0.4,0,0.8,0,1.3,0C117.6,62.5,117,61.5,116.4,60.4z M116.1,59.1c-0.3,0.4-0.7,0.5-1.1,0.5v0h-1.1v0
			c0-0.1,0-0.2,0-0.3c0-0.6,0-1.1,0-1.7c0-0.2,0-0.3,0-0.5h0.9c0.1,0,0.2,0,0.3,0h0v0c0.4,0,0.8,0.1,1.1,0.5
			C116.4,58.1,116.4,58.7,116.1,59.1z"/>
	</g>
	<line class="st140" x1="64.9" y1="69.8" x2="212.3" y2="69.8"/>
	<g>
		<text transform="matrix(1 0 0 1 64.8988 80.121)" class="st80 st146 st153">Inicio</text>
		<g>
			<text transform="matrix(1 0 0 1 126.1556 80.121)" class="st80 st146 st153">Catálogo</text>
		</g>
		<g>
			<text transform="matrix(1 0 0 1 198.1644 80.121)" class="st80 st146 st153">Contacto</text>
		</g>
	</g>
	<rect x="93.1" y="99.9" class="st130" width="90.9" height="3.6"/>
	<g>
		<rect x="93.4" y="95.3" class="st124" width="90.3" height="27.5"/>
		<text transform="matrix(1 0 0 1 93.3832 101.8495)" class="st80 st154 st155">O U R   P R O D U C T S </text>
	</g>
	<g>
		<g>
			<text transform="matrix(1 0 0 1 160.286 393.2314)" class="st128 st146 st156">Jasmine Body Oil</text>
		</g>
		<g>
			<text transform="matrix(1 0 0 1 168.5634 399.6747)" class="st128 st146 st156">$1200</text>
		</g>
		<g>
			<text transform="matrix(1 0 0 1 93.3641 393.2314)" class="st128 st146 st156">Rose Body Oil</text>
		</g>
		<g>
			<text transform="matrix(1 0 0 1 98.9764 399.6747)" class="st128 st146 st156">$1200</text>
		</g>
		<g>
			<defs>
				<rect id="SVGID_151_" x="73.1" y="272.3" width="61.2" height="107.9"/>
			</defs>
			<clipPath id="SVGID_4_">
				<use xlink:href="#SVGID_151_"  style="overflow:visible;"/>
			</clipPath>
			<g transform="matrix(1 0 0 1 0 0)" class="st2">
				
					<image style="overflow:visible;" width="1601" height="2000" xlink:href="669811663F7E1A15.jpg"  transform="matrix(5.398440e-02 0 0 5.398440e-02 60.5274 272.1999)">
				</image>
			</g>
		</g>
		<g>
			<defs>
				<rect id="SVGID_153_" x="142.7" y="272.3" width="61.2" height="107.9"/>
			</defs>
			<clipPath id="SVGID_6_">
				<use xlink:href="#SVGID_153_"  style="overflow:visible;"/>
			</clipPath>
			<g class="st3">
				
					<image style="overflow:visible;" width="1638" height="2048" xlink:href="669811663F7E1A13.jpg"  transform="matrix(5.271913e-02 0 0 5.271913e-02 130.1534 272.1999)">
				</image>
			</g>
			<rect x="130.1" y="272.2" style="clip-path:url(#SVGID_6_);fill:none;" width="86.4" height="108"/>
		</g>
	</g>
	<rect x="79.6" y="255.3" class="st130" width="117.9" height="3.6"/>
	<g>
		<text transform="matrix(1 0 0 1 80.8402 256.9003)" class="st80 st154 st155">R E L A T E D   P R O D U C T S</text>
	</g>
	<g>
		<text transform="matrix(1 0 0 1 165.7152 219.4384)" class="st128 st146 st153">Pink Clay Bar Soap</text>
	</g>
	<g>
		<text transform="matrix(1 0 0 1 82.5717 219.4384)" class="st128 st146 st153">Blue Clay Bar Soap</text>
	</g>
	<g>
		<text transform="matrix(1 0 0 1 176.2084 227.578)" class="st128 st146 st153">$500</text>
	</g>
	<g>
		<text transform="matrix(1 0 0 1 93.1058 227.578)" class="st128 st146 st153">$500</text>
	</g>
	
		<image style="overflow:visible;" width="1638" height="2048" xlink:href="669811663F7E1A1C.jpg"  transform="matrix(4.327267e-02 0 0 4.327267e-02 64.4899 123.2528)">
	</image>
	
		<image style="overflow:visible;" width="1638" height="2048" xlink:href="669811663F7E1A1F.jpg"  transform="matrix(4.327267e-02 0 0 4.327267e-02 141.7018 123.2528)">
	</image>
</g>
<g>
	<path id="XMLID_4_" class="st128" d="M182.9,429.1c0-3.3-2.6-5.9-5.9-5.9c-3.3,0-5.9,2.6-5.9,5.9c0,3.3,2.6,5.9,5.9,5.9
		C180.2,435,182.9,432.4,182.9,429.1z"/>
	<path id="XMLID_3_" class="st128" d="M207,429.1c0-3.3-2.6-5.9-5.9-5.9c-3.3,0-5.9,2.6-5.9,5.9c0,3.3,2.6,5.9,5.9,5.9
		C204.4,435,207,432.4,207,429.1z"/>
	<line class="st136" x1="57.3" y1="410.9" x2="219.8" y2="410.9"/>
	<path class="st78" d="M178.7,429.5l0.2-1.3h-1.3v-0.9c0-0.4,0.1-0.7,0.7-0.7l0.7,0v-1.2c-0.1,0-0.5-0.1-1-0.1c-1,0-1.7,0.6-1.7,1.8
		v1H175v1.3h1.2v3.4c0.5,0,0.9-0.1,1.4-0.2v-3.1H178.7z"/>
	<g>
		<g>
			<g>
				<path class="st78" d="M202.5,432.6h-2.8c-1.2,0-2.2-1-2.2-2.2v-2.5c0-1.2,1-2.2,2.2-2.2h2.8c1.2,0,2.2,1,2.2,2.2v2.5
					C204.8,431.6,203.7,432.6,202.5,432.6z M199.7,426.1c-1,0-1.7,0.8-1.7,1.7v2.5c0,1,0.8,1.7,1.7,1.7h2.8c1,0,1.7-0.8,1.7-1.7
					v-2.5c0-1-0.8-1.7-1.7-1.7H199.7z"/>
			</g>
			<g>
				<path class="st78" d="M201.1,431.1c-1.1,0-2-0.9-2-2c0-1.1,0.9-2,2-2c1.1,0,2,0.9,2,2C203.1,430.2,202.2,431.1,201.1,431.1z
					 M201.1,427.6c-0.8,0-1.5,0.7-1.5,1.5c0,0.8,0.7,1.5,1.5,1.5c0.8,0,1.5-0.7,1.5-1.5C202.6,428.3,201.9,427.6,201.1,427.6z"/>
			</g>
			<g>
				<path class="st78" d="M203.5,427.2c0,0.2-0.2,0.4-0.4,0.4c-0.2,0-0.4-0.2-0.4-0.4c0-0.2,0.2-0.4,0.4-0.4
					C203.3,426.7,203.5,426.9,203.5,427.2z"/>
			</g>
		</g>
	</g>
	<path id="XMLID_2_" class="st128" d="M157.8,429.1c0-3.3-2.6-5.9-5.9-5.9c-3.3,0-5.9,2.6-5.9,5.9c0,3.3,2.6,5.9,5.9,5.9
		C155.1,435,157.8,432.4,157.8,429.1z"/>
	<path id="XMLID_1_" class="st78" d="M152.1,425.8c-1.1,0-2.2,0.5-2.7,1.5c-0.3,0.5-0.3,1.2-0.1,1.8c0.1,0.2,0.3,0.5,0.5,0.6
		c0.1,0.1,0.2,0.2,0.4,0.1c0.1,0,0.1-0.2,0.1-0.3c0-0.1,0.1-0.2,0-0.3c-0.1-0.1-0.2-0.2-0.2-0.4c-0.1-0.2-0.1-0.4-0.1-0.6
		c0-0.6,0.4-1.2,0.9-1.5c0.8-0.5,2.2-0.4,2.7,0.5c0.2,0.5,0.2,1.1,0,1.6c-0.1,0.5-0.4,1-0.8,1.2c-0.4,0.2-1,0-1-0.5
		c0-0.2,0.1-0.3,0.1-0.4c0.1-0.2,0.1-0.3,0.2-0.5c0.1-0.3,0.2-0.6,0.1-0.9c-0.1-0.5-0.8-0.5-1.1-0.2c-0.2,0.2-0.3,0.4-0.3,0.7
		c0,0.2,0,0.4,0.1,0.6c0,0.1,0,0.1,0,0.2c0,0.1-0.1,0.2-0.1,0.3c-0.1,0.4-0.2,0.7-0.3,1.1c-0.1,0.3-0.2,0.6-0.2,1c0,0.3,0,0.6,0,0.9
		c0,0.1,0,0.2,0,0.3c0,0,0,0.1,0,0.2c0.1,0.1,0.3-0.2,0.3-0.3c0.2-0.2,0.3-0.5,0.4-0.7c0.2-0.4,0.2-0.8,0.3-1.1
		c0-0.1,0.1-0.2,0.1-0.3c0.2,0.3,0.6,0.5,0.9,0.5c0.3,0,0.6,0,0.9-0.2c0.6-0.2,1-0.8,1.2-1.3c0.2-0.6,0.3-1.4,0.1-2
		c-0.2-0.6-0.7-1-1.2-1.3c-0.5-0.2-1-0.3-1.5-0.3c0.3,0,0.5,0,0.8,0C152.4,425.8,152.2,425.8,152.1,425.8
		C151,425.8,153.6,425.8,152.1,425.8z"/>
	<text transform="matrix(1 0 0 1 60.0673 430.0397)" class="st123 st146 st158">All rights reserved</text>
</g>
<g>
	<rect x="214.4" y="41.9" width="1.4" height="3.3"/>
	<rect x="216.3" y="41.9" width="1.4" height="3.3"/>
	<rect x="218.1" y="41.9" width="1.4" height="3.3"/>
	<rect x="220" y="41.9" width="1.4" height="3.3"/>
	<rect x="221.8" y="42.5" width="0.7" height="2"/>
</g>
<g>
	<path d="M205.7,44.7c-0.4,0-0.7,0.3-0.7,0.7c0,0.4,0.3,0.7,0.7,0.7c0.4,0,0.7-0.3,0.7-0.7C206.3,45,206,44.7,205.7,44.7z"/>
	<path d="M207.5,43.3c-0.5-0.4-1.1-0.6-1.8-0.6s-1.3,0.2-1.8,0.6c-0.2,0.2-0.3,0.5-0.1,0.7c0.2,0.2,0.4,0.2,0.6,0.1
		c0.4-0.3,0.8-0.4,1.3-0.4c0.5,0,0.9,0.1,1.3,0.4c0.2,0.1,0.4,0.1,0.6-0.1C207.7,43.8,207.7,43.5,207.5,43.3z"/>
	<path d="M208.8,42.1c-0.8-0.7-1.9-1.1-3.1-1.1c-1.2,0-2.3,0.4-3.1,1.1c-0.2,0.2-0.2,0.5,0,0.7c0.2,0.2,0.4,0.2,0.6,0
		c0.7-0.6,1.6-0.9,2.5-0.9s1.8,0.3,2.5,0.9c0.2,0.2,0.5,0.1,0.6,0C209,42.6,209,42.2,208.8,42.1z"/>
</g>
<text transform="matrix(1 0 0 1 59.0209 45.139)" class="st146 st159">08.00</text>
</svg>
