<?xml version="1.0" encoding="utf-8"?>
<!-- Generator: Adobe Illustrator 22.1.0, SVG Export Plug-In . SVG Version: 6.00 Build 0)  -->
<svg version="1.1" id="Layer_1" xmlns="http://www.w3.org/2000/svg" xmlns:xlink="http://www.w3.org/1999/xlink" x="0px" y="0px"
	 viewBox="0 0 320 320" style="enable-background:new 0 0 320 320;" xml:space="preserve">
<style type="text/css">
	.st0{fill:#D3E4FB;stroke:#2667BF;stroke-width:2.532;stroke-miterlimit:10;}
	.st1{fill:#2667BF;}
	.st2{fill:#2667BF;stroke:#D3E4FB;stroke-width:0.9969;stroke-miterlimit:10;}
	.st3{fill:none;stroke:#2667BF;stroke-width:2.532;stroke-miterlimit:10;}
	.st4{fill:none;stroke:#2667BF;stroke-width:2.532;stroke-linecap:round;stroke-linejoin:round;stroke-miterlimit:10;}
</style>
<circle class="st0" cx="160" cy="160" r="134"/>
<g>
	<g>
		<path class="st2" d="M197.4,127.5c-0.4-0.4-0.9-0.6-1.5-0.6h-22.4v-9.9c0-5.5,3.5-5.9,4.6-5.9h17.2c1.1,0,2-0.9,2-2V82.8
			c0-1.1-0.9-2-2-2l-24.3-0.1c-25.8,0-35,17.9-35,34.6v11.5h-11.9c-1.1,0-2,0.9-2,2v31.6c0,1.1,0.9,2,2,2h13.8v75.1c0,1.1,0.9,2,2,2
			h29.7c1.1,0,2-0.9,2-2v-17.8c0-1.1-0.9-2-2-2c-1.1,0-2,0.9-2,2v15.8h-25.7v-75.1c0-1.1-0.9-2-2-2h-13.8v-27.7h11.9
			c1.1,0,2-0.9,2-2v-13.5c0-29.1,25.9-30.6,31-30.6l22.3,0.1V107h-15.2c-4.3,0-8.6,3.1-8.6,9.9v11.9c0,1.1,0.9,2,2,2h22.2l-2.5,27.7
			h-21.7c-1.1,0-2,0.9-2,2v25.7c0,1.1,0.9,2,2,2c1.1,0,2-0.9,2-2v-23.7h21.6c1,0,1.9-0.8,2-1.8l2.8-31.6
			C198,128.4,197.8,127.9,197.4,127.5z"/>
	</g>
</g>
</svg>
