<?xml version="1.0" encoding="utf-8"?>
<!-- Generator: Adobe Illustrator 22.1.0, SVG Export Plug-In . SVG Version: 6.00 Build 0)  -->
<svg version="1.1" id="Layer_1" xmlns="http://www.w3.org/2000/svg" xmlns:xlink="http://www.w3.org/1999/xlink" x="0px" y="0px"
	 viewBox="0 0 320 320" style="enable-background:new 0 0 320 320;" xml:space="preserve">
<style type="text/css">
	.st0{fill:#D3E4FB;stroke:#2667BF;stroke-width:2.532;stroke-miterlimit:10;}
	.st1{fill:#2667BF;}
	.st2{fill:#2667BF;stroke:#D3E4FB;stroke-width:0.9969;stroke-miterlimit:10;}
	.st3{fill:none;stroke:#2667BF;stroke-width:2.532;stroke-miterlimit:10;}
	.st4{fill:none;stroke:#2667BF;stroke-width:2.532;stroke-linecap:round;stroke-linejoin:round;stroke-miterlimit:10;}
</style>
<circle class="st0" cx="160" cy="160" r="134"/>
<g>
	<path class="st3" d="M112.9,95.3h94.6c9.6,0,17.3,7.8,17.3,17.3v94.6c0,9.6-7.8,17.3-17.3,17.3h-94.6c-9.6,0-17.3-7.8-17.3-17.3
		v-94.6C95.6,103.1,103.3,95.3,112.9,95.3z"/>
	<circle class="st3" cx="160" cy="160.1" r="32.3"/>
	<circle class="st3" cx="205.1" cy="116" r="7.3"/>
	<circle class="st3" cx="160" cy="160.1" r="19.7"/>
	<path class="st4" d="M239.6,115.6c0-1,0-2-0.1-3c-1.5-18.1-16.7-32.3-35.1-32.3h-88.6c-19.5,0-35.2,15.8-35.2,35.2v88.6
		c0,19.5,15.8,35.2,35.2,35.2h88.6c19.5,0,35.2-15.8,35.2-35.2v-44.9"/>
</g>
</svg>
