<?xml version="1.0" encoding="utf-8"?>
<!-- Generator: Adobe Illustrator 22.1.0, SVG Export Plug-In . SVG Version: 6.00 Build 0)  -->
<svg version="1.1" id="Layer_1" xmlns="http://www.w3.org/2000/svg" xmlns:xlink="http://www.w3.org/1999/xlink" x="0px" y="0px"
	 viewBox="0 0 375.3 105.9" style="enable-background:new 0 0 375.3 105.9;" xml:space="preserve">
<style type="text/css">
	.st0{fill:#2667BF;}
</style>
<g>
	<g>
		<polygon class="st0" points="54.6,87.5 49.4,80.2 47.9,80.2 47.9,90.5 49.6,90.5 49.6,83.3 54.6,90.5 56.3,90.5 56.3,80.2 
			54.6,80.2 		"/>
		<path class="st0" d="M71.7,80.2l-3.8,10.3h1.7l1.5-4h2.4l1.5,4h1.7L73,80.2H71.7z M72.9,84.8h-1.2l0.6-1.6L72.9,84.8z"/>
		<polygon class="st0" points="87.3,81.8 89.6,81.8 89.6,90.5 91.3,90.5 91.3,81.8 93.6,81.8 93.6,80.2 87.3,80.2 		"/>
		<path class="st0" d="M111,87c0,0.5-0.2,1-0.6,1.3c-0.4,0.4-0.8,0.6-1.3,0.6s-1-0.2-1.4-0.6s-0.6-0.8-0.6-1.3v-6.8h-1.6V87
			c0,1,0.3,1.8,1,2.5s1.5,1,2.5,1s1.8-0.3,2.5-1c0.6-0.6,0.9-1.3,1-2.2v-7.1H111V87z"/>
		<path class="st0" d="M130.3,86.3c0.7-0.7,1-1.5,1-2.5s-0.3-1.8-1-2.5c-0.6-0.6-1.3-0.9-2.2-1h-3v10.3h1.6v-3.2h0.8l2,3.2h2
			l-2.3-3.5C129.7,86.8,130,86.6,130.3,86.3z M126.8,81.9h1c0.5,0,1,0.2,1.3,0.6c0.4,0.4,0.6,0.8,0.6,1.3s-0.2,1-0.6,1.4
			c-0.4,0.4-0.8,0.6-1.3,0.6h-1V81.9z"/>
		<polygon class="st0" points="143.6,90.5 149.3,90.5 149.3,88.8 145.2,88.8 145.2,86.2 149.3,86.2 149.3,84.5 145.2,84.5 
			145.2,81.8 149.3,81.8 149.3,80.2 143.6,80.2 		"/>
		<rect x="177" y="80.2" class="st0" width="1.6" height="10.3"/>
		<polygon class="st0" points="198,87.5 192.8,80.2 191.3,80.2 191.3,90.5 192.9,90.5 192.9,83.3 198,90.5 199.6,90.5 199.6,80.2 
			198,80.2 		"/>
		<path class="st0" d="M229.5,80.2h-2.3v10.3h2.3c1.7,0,3-0.5,3.9-1.4c1-1,1.5-2.3,1.5-3.7c0-1.4-0.5-2.7-1.5-3.7
			C232.5,80.7,231.2,80.2,229.5,80.2z M228.9,81.9h0.6c1.2,0,2.1,0.3,2.7,0.9c0.7,0.7,1.1,1.5,1.1,2.5s-0.3,1.8-1.1,2.5
			c-0.6,0.6-1.6,0.9-2.7,0.9h-0.6V81.9z"/>
		<polygon class="st0" points="247.2,90.5 252.9,90.5 252.9,88.8 248.8,88.8 248.8,86.2 252.9,86.2 252.9,84.5 248.8,84.5 
			248.8,81.8 252.9,81.8 252.9,80.2 247.2,80.2 		"/>
		<path class="st0" d="M268.6,83.8c-0.4-0.2-0.7-0.4-0.9-0.6c-0.2-0.2-0.2-0.4-0.2-0.6s0.1-0.4,0.2-0.6c0.3-0.3,0.9-0.3,1.2,0
			c0.1,0.1,0.2,0.2,0.3,0.5l0.1,0.3l1.5-0.6l-0.1-0.3c-0.2-0.5-0.4-0.8-0.6-1.1c-0.5-0.5-1.1-0.7-1.8-0.7c-0.7,0-1.3,0.2-1.8,0.7
			s-0.7,1.1-0.7,1.7c0,0.7,0.2,1.3,0.7,1.8c0.4,0.4,1,0.8,1.7,1c0.5,0.2,0.9,0.5,1.2,0.8c0.3,0.3,0.5,0.7,0.5,1.2s-0.2,0.8-0.5,1.2
			c-0.6,0.7-1.7,0.6-2.3,0c-0.3-0.3-0.4-0.7-0.5-1.2v-0.4l-1.6,0.6v0.3c0.1,0.8,0.4,1.5,0.9,2c0.6,0.6,1.4,1,2.3,1s1.7-0.3,2.3-1
			c0.6-0.6,1-1.4,1-2.3s-0.3-1.7-0.9-2.3C270,84.4,269.3,84,268.6,83.8z"/>
		<rect x="283.8" y="80.2" class="st0" width="1.6" height="10.3"/>
		<path class="st0" d="M303,81.8c0.9,0,1.8,0.3,2.5,1l0.2,0.2l1.2-1.1l-0.3-0.3c-1.1-1-2.4-1.5-3.7-1.5c-1.4,0-2.7,0.5-3.7,1.5
			s-1.5,2.3-1.5,3.7c0,1.4,0.5,2.7,1.5,3.7s2.3,1.5,3.7,1.5c1.3,0,2.5-0.5,3.6-1.5l0.1-0.1v-3.8H305v3.1c-0.6,0.4-1.2,0.6-2,0.6
			c-1,0-1.8-0.3-2.5-1.1c-0.7-0.7-1.1-1.5-1.1-2.5s0.3-1.8,1.1-2.5C301.1,82.1,302,81.8,303,81.8z"/>
		<polygon class="st0" points="325.8,80.2 325.8,87.5 320.6,80.2 319.1,80.2 319.1,90.5 320.7,90.5 320.7,83.4 325.8,90.5 
			327.4,90.5 327.4,80.2 		"/>
	</g>
	<g>
		<path class="st0" d="M28.2,59.7H14V28.1h2.8v28.8h11.5L28.2,59.7L28.2,59.7z"/>
		<path class="st0" d="M52.2,42.5h4.6v2.8h-4.6v11.6h9.4v2.8H49.4V28.1h12.2v2.8h-9.4C52.2,30.9,52.2,42.5,52.2,42.5z"/>
		<path class="st0" d="M140,31.7v28h-2.8V34.4c-0.9,1.1-1.9,2.5-3,4.2l-6.5,10.2l-6.5-10.2c-1.1-1.6-2-2.9-2.8-4v25.1h-2.8V31.8
			c-1-0.7-2-1-3.1-1V28c3.3,0,5.9,1.2,10.8,9l4.4,6.9l4.4-6.9c4.9-7.7,7.5-9,10.8-9v2.8C141.9,30.9,140.9,31.2,140,31.7z"/>
		<path class="st0" d="M163.3,43.9c0-9.7,6.5-16,14.2-16s14.2,6.3,14.2,16c0,9.4-6.5,16-14.2,16S163.3,53.3,163.3,43.9z M189,43.9
			c0-8.1-5-13.2-11.4-13.2s-11.4,5-11.4,13.2c0,7.9,5,13.3,11.4,13.3C184,57.1,189,51.8,189,43.9z"/>
		<path class="st0" d="M221.1,59.7c-5.5,0-7.4-4.3-7.3-9V28.1h2.7v22.5v0.1c0,3.9,2,6.3,4.6,6.3c2.9,0,4.4-2.4,4.4-6.3v-0.1V28.1
			h2.7v22.6C228.2,55.4,226.3,59.7,221.1,59.7z"/>
		<path class="st0" d="M259.1,30.9v28.8h-2.8V30.9h-5.7v-2.8h14.3v2.8H259.1z"/>
		<path class="st0" d="M286.9,43.9c0-9.7,6.5-16,14.2-16s14.2,6.3,14.2,16c0,9.4-6.5,16-14.2,16C293.3,59.9,286.9,53.3,286.9,43.9z
			 M312.5,43.9c0-8.1-5-13.2-11.4-13.2s-11.4,5-11.4,13.2c0,7.9,5.1,13.3,11.4,13.3C307.5,57.1,312.5,51.8,312.5,43.9z"/>
		<path class="st0" d="M358.7,56.9c1,0.4,2,0.2,2.6,0v2.9c-2,0.4-4.4,0.1-5.8-1.9l-6.6-10.5l-7.4-11.9v24.4h-2.8V31.4
			c-1.1-0.8-2.4-0.6-3.1-0.3v-2.9c2-0.4,4.4-0.1,5.8,1.9l10.8,17.1l3.7,6V28.1h2.8V56.9z"/>
		<path class="st0" d="M134,17.9c-1.7-1.7-3.8-2.6-6.3-2.6c-2.4,0-4.5,0.9-6.3,2.6c-1.4,1.4-2.3,3.2-2.6,5.4V25h2.6v-0.8
			c0-1.7,0.6-3.2,1.8-4.4c1.2-1.2,2.7-1.8,4.4-1.8s3.2,0.6,4.4,1.8c1.2,1.2,1.8,2.7,1.8,4.4V25h2.6v-0.8
			C136.6,21.7,135.7,19.6,134,17.9z"/>
	</g>
</g>
</svg>
