<?xml version="1.0" encoding="utf-8"?>
<!-- Generator: Adobe Illustrator 22.1.0, SVG Export Plug-In . SVG Version: 6.00 Build 0)  -->
<svg version="1.1" id="Layer_1" xmlns="http://www.w3.org/2000/svg" xmlns:xlink="http://www.w3.org/1999/xlink" x="0px" y="0px"
	 viewBox="0 0 511 511" style="enable-background:new 0 0 511 511;" xml:space="preserve">
<style type="text/css">
	.st0{fill:#404A9A;}
</style>
<path class="st0" d="M62,1.1C24.5,1.1,0,25.7,0,58.1C0,89.7,23.8,115,60.5,115h0.7c38.2,0,62-25.3,62-56.9
	C122.5,25.7,99.4,1.1,62,1.1z"/>
<path class="st0" d="M2.5,175.9H112v329.6H2.5V175.9z"/>
<path class="st0" d="M384.9,168.1c-59.1,0-98.7,55.5-98.7,55.5v-47.8H176.6v329.6h109.5v-184c0-9.9,0.7-19.7,3.6-26.7
	c7.9-19.7,25.9-40.1,56.2-40.1c39.6,0,55.5,30.2,55.5,74.5v176.3H511v-189C511,215.2,457,168.1,384.9,168.1z"/>
<path class="st0" d="M966.7,120.1c0,16.9-13.7,30.6-30.6,30.6c-16.9,0-30.6-13.7-30.6-30.6c0-16.9,13.7-30.6,30.6-30.6
	C953,89.4,966.7,103.2,966.7,120.1z"/>
</svg>
