<svg width="54" height="54" viewBox="0 0 54 54" fill="none" xmlns="http://www.w3.org/2000/svg">
<circle cx="27" cy="27" r="26.75" fill="#F5E9EE" stroke="#E68A98" stroke-width="0.5"/>
<path d="M27.0311 19.7759C22.6237 19.7759 19.0557 23.0113 19.0557 27C19.0557 30.9921 22.6276 34.224 27.0311 34.224C31.4384 34.224 35.0064 30.9886 35.0064 27C35.0064 23.0078 31.4345 19.7759 27.0311 19.7759V19.7759ZM27.0311 31.6889C24.1701 31.6889 21.8544 29.5902 21.8544 27C21.8544 24.4097 24.1714 22.311 27.0311 22.311C29.8907 22.311 32.2077 24.4097 32.2077 27C32.209 29.5902 29.892 31.6889 27.0311 31.6889V31.6889Z" fill="#E68A98"/>
<path d="M33.3093 13.2951C30.5078 13.1768 23.5686 13.1825 20.7645 13.2951C18.3005 13.3997 16.127 13.9387 14.3748 15.5259C11.4464 18.1784 11.8207 21.7526 11.8207 26.9944C11.8207 32.3592 11.4908 35.8506 14.3748 38.4629C17.3146 41.1246 21.3177 40.7764 27.0363 40.7764C32.9033 40.7764 34.9283 40.7798 37.0028 40.0523C39.8234 39.0605 41.9524 36.7769 42.1605 32.6752C42.2925 30.1365 42.2849 23.8523 42.1605 21.3124C41.9093 16.4706 39.0405 13.5342 33.3093 13.2951V13.2951ZM37.7438 36.708C35.8241 38.4468 33.1608 38.2917 26.9995 38.2917C20.6554 38.2917 18.1115 38.3767 16.2552 36.6907C14.1172 34.7634 14.5042 31.6685 14.5042 26.976C14.5042 20.6263 13.7848 16.0534 20.8204 15.727C22.4368 15.6753 22.9126 15.658 26.9817 15.658L27.0388 15.6925C33.8003 15.6925 39.1052 15.0512 39.4237 21.4227C39.496 22.8766 39.5125 23.3133 39.5125 26.9932C39.5112 32.6729 39.6305 34.991 37.7438 36.708V36.708Z" fill="#E68A98"/>
<path d="M35.0062 21.0893C35.8071 21.0893 36.4563 20.5013 36.4563 19.7759C36.4563 19.0505 35.8071 18.4624 35.0062 18.4624C34.2054 18.4624 33.5562 19.0505 33.5562 19.7759C33.5562 20.5013 34.2054 21.0893 35.0062 21.0893Z" fill="#E68A98"/>
</svg>
