<svg width="43" height="42" viewBox="0 0 43 42" fill="none" xmlns="http://www.w3.org/2000/svg">
<circle cx="21.3333" cy="21" r="20.75" fill="#EDEEFA" stroke="#404A9A" stroke-width="0.5"/>
<path d="M33.3782 30.8202L33.3843 30.8193V23.1553C33.3843 19.4061 32.4407 16.5179 27.3162 16.5179C24.8528 16.5179 23.1996 17.6742 22.5247 18.7705H22.4534V16.868H17.5947V30.8193H22.6539V23.9111C22.6539 22.0922 23.0571 20.3334 25.6905 20.3334C28.2853 20.3334 28.324 22.4091 28.324 24.0278V30.8202H33.3782Z" fill="#404A9A"/>
<path d="M9.7001 16.5179H15.3393V30.8202H9.7001V16.5179Z" fill="#404A9A"/>
<path d="M12.5197 9.3667C10.9631 9.3667 9.70009 10.5054 9.70009 11.9088C9.70009 13.3121 10.9631 14.4746 12.5197 14.4746C14.0762 14.4746 15.3393 13.3121 15.3393 11.9088C15.3383 10.5054 14.0752 9.3667 12.5197 9.3667V9.3667Z" fill="#404A9A"/>
</svg>
