<svg width="42" height="42" viewBox="0 0 42 42" fill="none" xmlns="http://www.w3.org/2000/svg">
<circle cx="21" cy="21" r="20.75" fill="#EDEEFA" stroke="#404A9A" stroke-width="0.5"/>
<path d="M21.0241 15.3811C17.5962 15.3811 14.821 17.8976 14.821 20.9998C14.821 24.1048 17.5992 26.6186 21.0241 26.6186C24.452 26.6186 27.2272 24.1021 27.2272 20.9998C27.2272 17.8948 24.449 15.3811 21.0241 15.3811V15.3811ZM21.0241 24.6468C18.7989 24.6468 16.9978 23.0145 16.9978 20.9998C16.9978 18.9852 18.7999 17.3529 21.0241 17.3529C23.2483 17.3529 25.0504 18.9852 25.0504 20.9998C25.0514 23.0145 23.2493 24.6468 21.0241 24.6468V24.6468Z" fill="#404A9A"/>
<path d="M25.9072 10.3407C23.7283 10.2486 18.3312 10.2531 16.1502 10.3407C14.2337 10.422 12.5433 10.8413 11.1804 12.0757C8.90275 14.1388 9.19387 16.9187 9.19387 20.9957C9.19387 25.1683 8.93729 27.8839 11.1804 29.9156C13.467 31.9859 16.5805 31.715 21.0282 31.715C25.5914 31.715 27.1665 31.7177 28.78 31.1519C30.9737 30.3805 32.6297 28.6043 32.7915 25.4141C32.8942 23.4395 32.8882 18.5518 32.7915 16.5764C32.5961 12.8105 30.3649 10.5266 25.9072 10.3407V10.3407ZM29.3563 28.5507C27.8632 29.9031 25.7918 29.7825 20.9996 29.7825C16.0653 29.7825 14.0867 29.8486 12.6429 28.5373C10.9801 27.0383 11.2811 24.6311 11.2811 20.9814C11.2811 16.0427 10.7215 12.486 16.1936 12.2321C17.4509 12.1919 17.821 12.1785 20.9858 12.1785L21.0302 12.2053C26.2891 12.2053 30.4152 11.7065 30.6629 16.6622C30.7191 17.7929 30.732 18.1326 30.732 20.9948C30.731 25.4123 30.8237 27.2152 29.3563 28.5507V28.5507Z" fill="#404A9A"/>
<path d="M27.2271 16.4028C27.85 16.4028 28.3549 15.9454 28.3549 15.3812C28.3549 14.817 27.85 14.3596 27.2271 14.3596C26.6042 14.3596 26.0993 14.817 26.0993 15.3812C26.0993 15.9454 26.6042 16.4028 27.2271 16.4028Z" fill="#404A9A"/>
</svg>
