<svg width="54" height="54" viewBox="0 0 54 54" fill="none" xmlns="http://www.w3.org/2000/svg">
<circle cx="27" cy="27" r="26.75" fill="#F5E9EE" stroke="#E68A98" stroke-width="0.5"/>
<path d="M42.4865 39.6259V39.6248H42.4944V29.7711C42.4944 24.9506 41.2811 21.2373 34.6925 21.2373C31.5252 21.2373 29.3997 22.724 28.5319 24.1334H28.4403V21.6873H22.1934V39.6248H28.6982V30.7428C28.6982 28.4042 29.2164 26.1429 32.6023 26.1429C35.9385 26.1429 35.9882 28.8117 35.9882 30.8928V39.6259H42.4865Z" fill="#E68A98"/>
<path d="M12.043 21.2373H19.2933V39.6259H12.043V21.2373Z" fill="#E68A98"/>
<path d="M15.6681 12.043C13.6669 12.043 12.043 13.507 12.043 15.3113C12.043 17.1156 13.6669 18.6103 15.6681 18.6103C17.6694 18.6103 19.2933 17.1156 19.2933 15.3113C19.2921 13.507 17.6682 12.043 15.6681 12.043V12.043Z" fill="#E68A98"/>
</svg>
