<?xml version="1.0" encoding="utf-8"?>
<!-- Generator: Adobe Illustrator 22.1.0, SVG Export Plug-In . SVG Version: 6.00 Build 0)  -->
<svg version="1.1" id="Layer_1" xmlns="http://www.w3.org/2000/svg" xmlns:xlink="http://www.w3.org/1999/xlink" x="0px" y="0px"
	 viewBox="0 0 320 320" style="enable-background:new 0 0 320 320;" xml:space="preserve">
<style type="text/css">
	.st0{fill:#D3E4FB;stroke:#2667BF;stroke-width:2.532;stroke-miterlimit:10;}
	.st1{fill:#2667BF;}
	.st2{fill:#2667BF;stroke:#D3E4FB;stroke-width:0.9969;stroke-miterlimit:10;}
	.st3{fill:none;stroke:#2667BF;stroke-width:2.532;stroke-miterlimit:10;}
	.st4{fill:none;stroke:#2667BF;stroke-width:2.532;stroke-linecap:round;stroke-linejoin:round;stroke-miterlimit:10;}
</style>
<circle class="st0" cx="160" cy="160" r="134"/>
<g>
	<g>
		<path class="st1" d="M228.7,101.7H91.3c-7.9,0-14.3,6.4-14.3,14.3v88.1c0,7.9,6.4,14.3,14.3,14.3h137.3c7.9,0,14.3-6.4,14.3-14.3
			v-88.1C242.9,108.1,236.5,101.7,228.7,101.7z M91.3,104.3h8.7l58.6,47.6c0.2,0.2,0.5,0.3,0.8,0.3c0.3,0,0.6-0.1,0.8-0.3l7.9-6.4
			c0.6-0.4,0.6-1.3,0.2-1.8c-0.4-0.6-1.3-0.6-1.8-0.2l-7.1,5.8l-55.3-44.9h110.6l-38.1,30.9c-0.6,0.4-0.6,1.3-0.2,1.8
			c0.2,0.3,0.6,0.5,1,0.5c0.3,0,0.6-0.1,0.8-0.3l40.5-32.9h9.8c2.3,0,4.4,0.7,6.2,1.8l-75.4,61.1l-74.9-60.6
			C86.4,105.1,88.8,104.3,91.3,104.3z M240.3,204.1c0,3-1.2,5.9-3.1,7.9l-58-46.9c-0.6-0.4-1.4-0.4-1.8,0.2
			c-0.4,0.6-0.4,1.4,0.2,1.8l57.6,46.6c-1.9,1.3-4.1,2-6.6,2H91.3c-2.7,0-5.3-0.9-7.3-2.5l57.2-46.1c0.6-0.4,0.6-1.3,0.2-1.8
			s-1.3-0.6-1.8-0.2l-57.4,46.3c-1.6-2-2.6-4.5-2.6-7.3v-88.1c0-2.9,1.1-5.6,2.9-7.7l76,61.5c0.2,0.2,0.5,0.3,0.8,0.3
			c0.3,0,0.6-0.1,0.8-0.3l76.7-62.1c2.1,2.1,3.4,5,3.4,8.2L240.3,204.1L240.3,204.1L240.3,204.1z"/>
	</g>
</g>
</svg>
