<?xml version="1.0" encoding="utf-8"?>
<!-- Generator: Adobe Illustrator 22.1.0, SVG Export Plug-In . SVG Version: 6.00 Build 0)  -->
<svg version="1.1" id="Layer_1" xmlns="http://www.w3.org/2000/svg" xmlns:xlink="http://www.w3.org/1999/xlink" x="0px" y="0px"
	 viewBox="0 0 320 320" style="enable-background:new 0 0 320 320;" xml:space="preserve">
<style type="text/css">
	.st0{fill:#D3E4FB;stroke:#2667BF;stroke-width:2.532;stroke-miterlimit:10;}
	.st1{fill:#2667BF;}
	.st2{fill:#2667BF;stroke:#D3E4FB;stroke-width:0.9969;stroke-miterlimit:10;}
	.st3{fill:none;stroke:#2667BF;stroke-width:2.532;stroke-miterlimit:10;}
	.st4{fill:none;stroke:#2667BF;stroke-width:2.532;stroke-linecap:round;stroke-linejoin:round;stroke-miterlimit:10;}
</style>
<circle class="st0" cx="160" cy="160" r="134"/>
<g>
	<g>
		<path class="st1" d="M161.2,85.8v-4.1c0-0.8-0.5-1.3-1.3-1.3s-1.3,0.5-1.3,1.3v4.1c-25.8,0.5-48.4,14.1-61.5,34.5
			c-0.3,0.2-0.6,0.5-0.6,1c-6.9,11.1-10.9,24.1-11.1,38.1c-0.1,0.2-0.2,0.4-0.2,0.6s0,0.4,0.1,0.6c0.1,40.5,32.8,73.6,73.2,74.4v3.3
			c0,0.8,0.5,1.3,1.3,1.3c0.8,0,1.3-0.5,1.3-1.3v-3.3c40.6-0.6,73.4-33.8,73.4-74.6S201.8,86.4,161.2,85.8z M125.3,158.7h-22.4
			c0.2-13.2,3.3-25.5,8.4-36h18.8C127.2,133.3,125.4,145.6,125.3,158.7z M125.3,161.2c0.1,13.1,1.7,25.4,4.5,36H111
			c-5-10.6-8-22.9-8.1-36L125.3,161.2L125.3,161.2z M112.6,120.1c8.3-15.5,21.2-26.7,36.3-30.4c-7.5,5.5-13.9,16.3-18.1,30.4H112.6z
			 M134.2,93.1c-10,6-18.5,15.4-24.4,27h-9.5C108.5,107.9,120.4,98.4,134.2,93.1z M98.7,122.7h9.9c-5,10.6-7.9,22.9-8.2,36H88.1
			C88.3,145.5,92.2,133.2,98.7,122.7z M88,161.2h12.3c0.1,13.1,3,25.4,7.8,36h-10C91.9,186.7,88.2,174.3,88,161.2z M99.8,199.8h9.6
			c6,12,14.6,21.6,24.8,27.8C120.1,222.1,108.1,212.3,99.8,199.8z M112.3,199.8h18.3c4.2,14.4,10.7,25.6,18.3,31.2
			C133.7,227.1,120.6,215.6,112.3,199.8z M158.7,232.3c-10.6-1-20-13.7-25.5-32.5h25.5V232.3z M158.7,197.3h-26.2
			c-2.8-10.6-4.5-22.9-4.6-36h30.8V197.3z M158.7,158.7h-30.8c0.1-13.2,1.9-25.5,4.7-36h26.1V158.7z M158.7,120.1h-25.3
			c5.6-18.4,14.8-30.8,25.3-31.8V120.1z M232.1,158.7h-12.3c-0.2-13.1-3.2-25.4-8.2-36h9.9C227.9,133.2,231.8,145.5,232.1,158.7z
			 M194.8,161.2h22.4c-0.1,13.2-3.1,25.5-8.1,36h-18.9C193.1,186.6,194.7,174.3,194.8,161.2z M194.8,158.7
			c-0.1-13.1-1.9-25.4-4.8-36h18.7c5.2,10.6,8.2,22.9,8.5,36H194.8z M219.8,120.1h-9.5c-5.9-11.6-14.4-21-24.4-27
			C199.7,98.4,211.6,107.9,219.8,120.1z M207.4,120.1h-18.1c-4.2-14.1-10.6-25-18.1-30.4C186.2,93.4,199.1,104.6,207.4,120.1z
			 M161.2,88.3c10.6,0.9,19.9,13.2,25.6,31.8h-25.6V88.3z M161.2,122.6h26.3c2.9,10.5,4.6,22.8,4.8,36h-31.1L161.2,122.6
			L161.2,122.6z M161.2,197.2v-36h31.1c-0.1,13.2-1.7,25.5-4.6,36H161.2z M161.2,199.8H187c-5.6,19-15,31.7-25.7,32.5V199.8z
			 M189.5,199.8h18.3c-8.3,15.9-21.4,27.4-36.7,31.2C178.8,225.4,185.3,214.3,189.5,199.8z M185.7,227.6
			c10.3-6.1,18.9-15.9,24.9-27.8h9.6C212,212.3,200,222.2,185.7,227.6z M221.9,197.3h-10c4.9-10.7,7.7-23,7.8-36h12.3
			C231.9,174.4,228.2,186.7,221.9,197.3z"/>
	</g>
</g>
</svg>
